{
.appVersion = "3324";
.formatVersion = 3;
axes = (
{
name = Weight;
tag = wght;
}
);
classes = (
{
automatic = 1;
code = "A Aacute Abreve Acircumflex Adieresis Agrave Amacron Aogonek Aring Atilde AE B C Cacute Ccaron Ccedilla Cdotaccent D Dcaron Dcroat Eth E Eacute Ecaron Ecircumflex Edieresis Edotaccent Egrave Emacron Eogonek F G Gbreve Gcommaaccent Gdotaccent H Hbar I IJ Iacute Icircumflex Idieresis Idotaccent Igrave Imacron Iogonek J Jacute K Kcommaaccent L Lacute Lcaron Lcommaaccent Lslash M N Nacute Ncaron Ncommaaccent Ntilde O Oacute Ocircumflex Odieresis Ograve Ohungarumlaut Oslash Otilde OE P Thorn Q R Racute Rcaron S Sacute Scaron Scedilla Scommaaccent Germandbls T Tcaron Tcedilla Tcommaaccent U Uacute Ucircumflex Udieresis Ugrave Uhungarumlaut Umacron Uogonek Uring V W Wacute Wcircumflex Wdieresis Wgrave X Y Yacute Ycircumflex Ydieresis Ygrave Z Zacute Zcaron Zdotaccent Delta Omega";
name = Uppercase;
}
);
customParameters = (
{
name = unicodeRanges;
value = (
0,
1,
2,
3,
5,
6,
29,
31,
33,
35,
45,
46
);
},
{
name = "Enforce Compatibility Check";
value = 1;
},
{
name = fsType;
value = (
);
},
{
name = "Variable Font Origin";
value = "451A0C9A-5D2B-4982-995B-41594B80AF49";
},
{
name = "Axis Mappings";
value = {
wght = {
200 = 60;
300 = 75;
400 = 91;
500 = 115;
600 = 130;
700 = 146;
800 = 170;
};
};
},
{
name = isFixedPitch;
value = 1;
},
{
name = panose;
value = (
2,
0,
0,
9,
0,
0,
0,
0,
0,
0
);
},
{
name = "Use Typo Metrics";
value = 1;
}
);
date = "2024-04-25 14:25:39 +0000";
familyName = "Atkinson Hyperlegible Mono";
featurePrefixes = (
{
automatic = 1;
code = "languagesystem DFLT dflt;

languagesystem latn dflt;
languagesystem latn AZE;
languagesystem latn CRT;
languagesystem latn KAZ;
languagesystem latn TAT;
languagesystem latn TRK;
languagesystem latn ROM;
languagesystem latn MOL;
languagesystem latn CAT;
languagesystem latn NLD;
";
name = Languagesystems;
}
);
features = (
{
automatic = 1;
code = "feature locl;
feature sups;
feature frac;

glyphs = (
{
glyphname = A;
kernLeft = A;
kernRight = A;
lastChange = "2024-11-01 12:01:51 +0000";
layers = (
{
anchors = (
{
name = bottom;
pos = (316,0);
},
{
name = ogonek;
pos = (597,10);
},
{
name = top;
pos = (316,668);
}
);
layerId = "451A0C9A-5D2B-4982-995B-41594B80AF49";
shapes = (
{
closed = 1;
nodes = (
(91,0,l),
(153,168,l),
(479,168,l),
(540,0,l),
(597,0,l),
(346,668,l),
(287,668,l),
(35,0,l)
);
},
{
closed = 1;
nodes = (
(314,609,l),
(318,609,l),
(461,216,l),
(170,216,l)
);
}
);
width = 632;
},
{
anchors = (
{
name = bottom;
pos = (316,0);
},
{
name = ogonek;
pos = (601,10);
},
{
name = top;
pos = (316,668);
}
);
layerId = "EAC7C082-8AF0-48CD-AF1D-A26CC3CBE6D4";
name = "AHL Variable 05 Mono ExtraBold Mono";
shapes = (
{
closed = 1;
nodes = (
(180,0,l),
(210,114,l),
(414,114,l),
(444,0,l),
(601,0,l),
(406,668,l),
(226,668,l),
(31,0,l)
);
},
{
closed = 1;
nodes = (
(310,495,l),
(314,495,l),
(378,251,l),
(246,251,l)
);
}
);
width = 632;
}
);
unicode = 65;
},
{
glyphname = Aogonek;
kernLeft = A;
kernRight = A;
lastChange = "2024-11-01 12:01:51 +0000";
layers = (
{
anchors = (
{
name = top;
pos = (316,668);
}
);
layerId = "451A0C9A-5D2B-4982-995B-41594B80AF49";
shapes = (
{
closed = 1;
nodes = (
(91,0,l),
(153,168,l),
(479,168,l),
(538,5,l),
(497,-17,o),
(467,-48,o),
(467,-94,cs),
(467,-140,o),
(502,-168,o),
(549,-168,cs),
(565,-168,o),
(577,-167,o),
(597,-159,c),
(597,-120,l),
(586,-124,o),
(574,-127,o),
(562,-127,cs),
(536,-127,o),
(512,-115,o),
(512,-84,cs),
(512,-50,o),
(544,-17,o),
(597,0,c),
(346,668,l),
(287,668,l),
(35,0,l)
);
},
{
closed = 1;
nodes = (
(314,609,l),
(318,609,l),
(461,216,l),
(170,216,l)
);
}
);
width = 632;
},
{
anchors = (
{
name = top;
pos = (316,668);
}
);
layerId = "EAC7C082-8AF0-48CD-AF1D-A26CC3CBE6D4";
shapes = (
{
closed = 1;
nodes = (
(180,0,l),
(210,114,l),
(414,114,l),
(443,4,l),
(403,-12,o),
(368,-41,o),
(368,-84,cs),
(368,-121,o),
(398,-176,o),
(519,-176,cs),
(545,-176,o),
(587,-171,o),
(601,-167,c),
(601,-86,l),
(584,-91,o),
(565,-95,o),
(547,-95,cs),
(524,-95,o),
(505,-85,o),
(505,-64,cs),
(505,-31,o),
(565,-2,o),
(601,0,c),
(406,668,l),
(226,668,l),
(31,0,l)
);
},
{
closed = 1;
nodes = (
(310,495,l),
(314,495,l),
(378,251,l),
(246,251,l)
);
}
);
width = 632;
}
);
metricLeft = A;
metricRight = A;
unicode = 260;
},
{
glyphname = Aring;
kernLeft = A;
kernRight = A;
lastChange = "2024-11-01 12:01:51 +0000";
layers = (
{
anchors = (
{
name = bottom;
pos = (316,0);
},
{
name = ogonek;
pos = (597,10);
},
{
name = top;
pos = (316,835);
}
);
layerId = "451A0C9A-5D2B-4982-995B-41594B80AF49";
shapes = (
{
closed = 1;
nodes = (
(91,0,l),
(153,168,l),
(479,168,l),
(540,0,l),
(597,0,l),
(352,652,l),
(387,666,o),
(411,701,o),
(411,740,cs),
(411,792,o),
(369,835,o),
(316,835,cs),
(264,835,o),
(221,792,o),
(221,740,cs),
(221,700,o),
(246,666,o),
(281,652,c),
(35,0,l)
);
},
{
closed = 1;
nodes = (
(314,609,l),
(318,609,l),
(461,216,l),
(170,216,l)
);
},
{
closed = 1;
nodes = (
(286,685,o),
(261,710,o),
(261,740,cs),
(261,770,o),
(286,795,o),
(316,795,cs),
(347,795,o),
(371,770,o),
(371,740,cs),
(371,710,o),
(347,685,o),
(316,685,cs)
);
}
);
width = 632;
},
{
anchors = (
{
name = bottom;
pos = (316,0);
},
{
name = ogonek;
pos = (601,10);
},
{
name = top;
pos = (316,865);
}
);
layerId = "EAC7C082-8AF0-48CD-AF1D-A26CC3CBE6D4";
shapes = (
{
closed = 1;
nodes = (
(180,0,l),
(210,114,l),
(414,114,l),
(444,0,l),
(601,0,l),
(416,635,l),
(439,660,o),
(453,693,o),
(453,729,cs),
(453,805,o),
(390,865,o),
(315,865,cs),
(240,865,o),
(179,805,o),
(179,729,cs),
(179,692,o),
(193,659,o),
(216,634,c),
(31,0,l)
);
},
{
closed = 1;
nodes = (
(310,495,l),
(314,495,l),
(378,251,l),
(246,251,l)
);
},
{
closed = 1;
nodes = (
(291,682,o),
(270,702,o),
(270,728,cs),
(270,754,o),
(291,774,o),
(316,774,cs),
(342,774,o),
(362,754,o),
(362,728,cs),
(362,702,o),
(342,682,o),
(316,682,cs)
);
}
);
width = 632;
}
);
metricLeft = A;
metricRight = A;
unicode = 197;
},
{
glyphname = AE;
kernLeft = AE;
kernRight = E;
lastChange = "2024-11-01 12:01:51 +0000";
layers = (
{
anchors = (
{
name = bottom;
pos = (314,0);
},
{
name = top;
pos = (314,668);
}
);
layerId = "451A0C9A-5D2B-4982-995B-41594B80AF49";
shapes = (
{
closed = 1;
nodes = (
(59,0,l),
(125,168,l),
(307,168,l),
(307,0,l),
(620,0,l),
(620,48,l),
(363,48,l),
(363,320,l),
(568,320,l),
(568,368,l),
(363,368,l),
(363,620,l),
(617,620,l),
(617,668,l),
(273,668,l),
(5,0,l)
);
},
{
closed = 1;
nodes = (
(303,623,l),
(307,623,l),
(307,216,l),
(144,216,l)
);
}
);
width = 632;
},
{
anchors = (
{
name = bottom;
pos = (349,0);
},
{
name = top;
pos = (349,668);
}
);
layerId = "EAC7C082-8AF0-48CD-AF1D-A26CC3CBE6D4";
shapes = (
{
closed = 1;
nodes = (
(142,0,l),
(180,124,l),
(309,124,l),
(309,0,l),
(628,0,l),
(628,130,l),
(439,130,l),
(439,279,l),
(533,279,l),
(533,408,l),
(439,408,l),
(439,538,l),
(628,538,l),
(628,668,l),
(226,668,l),
(5,0,l)
);
},
{
closed = 1;
nodes = (
(305,529,l),
(309,529,l),
(309,241,l),
(216,241,l)
);
}
);
width = 632;
}
);
unicode = 198;
},
{
glyphname = B;
kernLeft = B;
kernRight = B;
lastChange = "2024-11-01 12:01:51 +0000";
layers = (
{
anchors = (
{
name = bottom;
pos = (316,0);
},
{
name = center;
pos = (316,334);
},
{
name = top;
pos = (316,668);
}
);
layerId = "451A0C9A-5D2B-4982-995B-41594B80AF49";
shapes = (
{
closed = 1;
nodes = (
(364,0,ls),
(505,0,o),
(561,86,o),
(561,184,cs),
(561,261,o),
(524,320,o),
(442,349,c),
(507,374,o),
(532,441,o),
(532,497,cs),
(532,591,o),
(475,668,o),
(343,668,cs),
(116,668,l),
(116,0,l)
);
},
{
closed = 1;
nodes = (
(172,322,l),
(352,322,ls),
(458,322,o),
(504,261,o),
(504,188,cs),
(504,113,o),
(462,48,o),
(354,48,cs),
(172,48,l)
);
},
{
closed = 1;
nodes = (
(172,620,l),
(333,620,ls),
(433,620,o),
(476,562,o),
(476,491,cs),
(476,423,o),
(440,370,o),
(349,370,cs),
(172,370,l)
);
}
);
width = 632;
},
{
anchors = (
{
name = bottom;
pos = (328,0);
},
{
name = center;
pos = (328,334);
},
{
name = top;
pos = (328,668);
}
);
layerId = "EAC7C082-8AF0-48CD-AF1D-A26CC3CBE6D4";
name = "AHL Variable 05 Mono ExtraBold Mono";
shapes = (
{
closed = 1;
nodes = (
(346,0,ls),
(494,0,o),
(598,56,o),
(598,198,cs),
(598,290,o),
(542,336,o),
(488,355,c),
(541,383,o),
(573,428,o),
(573,495,cs),
(573,614,o),
(486,668,o),
(337,668,cs),
(66,668,l),
(66,0,l)
);
},
{
closed = 1;
nodes = (
(221,275,l),
(347,275,ls),
(405,275,o),
(438,251,o),
(438,206,cs),
(438,159,o),
(405,134,o),
(347,134,cs),
(221,134,l)
);
},
{
closed = 1;
nodes = (
(221,534,l),
(341,534,ls),
(387,534,o),
(416,511,o),
(416,473,cs),
(416,434,o),
(386,409,o),
(339,409,cs),
(221,409,l)
);
}
);
width = 632;
},
{
anchors = (
{
name = bottom;
pos = (322,0);
},
{
name = center;
pos = (322,334);
},
{
name = top;
pos = (322,668);
}
);
associatedMasterId = "EAC7C082-8AF0-48CD-AF1D-A26CC3CBE6D4";
background = {
shapes = (
{
closed = 1;
nodes = (
(355,0,ls),
(499,0,o),
(581,70,o),
(581,191,cs),
(581,276,o),
(533,328,o),
(466,352,c),
(525,379,o),
(554,434,o),
(554,496,cs),
(554,603,o),
(481,668,o),
(340,668,cs),
(90,668,l),
(90,0,l)
);
},
{
closed = 1;
nodes = (
(198,297,l),
(349,297,ls),
(430,297,o),
(469,256,o),
(469,197,cs),
(469,137,o),
(432,93,o),
(350,93,cs),
(198,93,l)
);
},
{
closed = 1;
nodes = (
(198,575,l),
(337,575,ls),
(409,575,o),
(444,535,o),
(444,482,cs),
(444,429,o),
(412,391,o),
(344,391,cs),
(198,391,l)
);
}
);
};
layerId = "576DFDE7-2E53-448E-BC44-9721C8E1E71D";
name = "18 Apr 24 at 15:54";
shapes = (
{
closed = 1;
nodes = (
(359,0,ls),
(503,0,o),
(585,70,o),
(585,191,cs),
(585,276,o),
(537,328,o),
(470,352,c),
(529,379,o),
(558,434,o),
(558,496,cs),
(558,603,o),
(485,668,o),
(344,668,cs),
(86,668,l),
(86,0,l)
);
},
{
closed = 1;
nodes = (
(202,297,l),
(345,297,ls),
(426,297,o),
(465,256,o),
(465,197,cs),
(465,137,o),
(428,93,o),
(346,93,cs),
(202,93,l)
);
},
{
closed = 1;
nodes = (
(202,575,l),
(333,575,ls),
(405,575,o),
(440,535,o),
(440,482,cs),
(440,429,o),
(408,391,o),
(340,391,cs),
(202,391,l)
);
}
);
width = 632;
}
);
unicode = 66;
},
{
glyphname = C;
kernLeft = O;
kernRight = C;
lastChange = "2024-11-01 12:01:51 +0000";
layers = (
{
anchors = (
{
name = bottom;
pos = (334,0);
},
{
name = top;
pos = (337,668);
}
);
guides = (
{
angle = 21.1941;
pos = (558,530);
},
{
angle = 159.1932;
pos = (560,139);
}
);
layerId = "451A0C9A-5D2B-4982-995B-41594B80AF49";
shapes = (
{
closed = 1;
nodes = (
(443,-12,o),
(530,36,o),
(577,137,c),
(527,156,l),
(495,92,o),
(437,36,o),
(339,36,cs),
(218,36,o),
(111,142,o),
(111,336,cs),
(111,530,o),
(219,632,o),
(339,632,cs),
(434,632,o),
(495,577,o),
(525,512,c),
(574,531,l),
(531,630,o),
(437,680,o),
(340,680,cs),
(173,680,o),
(54,536,o),
(54,336,cs),
(54,136,o),
(166,-12,o),
(334,-12,cs)
);
}
);
width = 632;
},
{
anchors = (
{
name = bottom;
pos = (339,0);
},
{
name = top;
pos = (339,668);
}
);
layerId = "EAC7C082-8AF0-48CD-AF1D-A26CC3CBE6D4";
name = "AHL Variable 05 Mono ExtraBold Mono";
shapes = (
{
closed = 1;
nodes = (
(449,-12,o),
(534,50,o),
(580,148,c),
(451,196,l),
(426,135,o),
(378,123,o),
(349,123,cs),
(273,123,o),
(217,195,o),
(217,334,cs),
(217,466,o),
(270,545,o),
(344,545,cs),
(385,545,o),
(422,526,o),
(444,471,c),
(577,520,l),
(534,619,o),
(450,680,o),
(340,680,cs),
(164,680,o),
(52,545,o),
(52,334,cs),
(52,119,o),
(161,-12,o),
(339,-12,cs)
);
}
);
width = 632;
}
);
unicode = 67;
},
{
glyphname = Ccedilla;
kernLeft = O;
kernRight = C;
lastChange = "2024-11-01 12:01:51 +0000";
layers = (
{
anchors = (
{
name = top;
pos = (337,668);
}
);
layerId = "451A0C9A-5D2B-4982-995B-41594B80AF49";
shapes = (
{
closed = 1;
nodes = (
(387,-177,o),
(413,-130,o),
(413,-99,cs),
(413,-71,o),
(392,-44,o),
(351,-44,cs),
(345,-44,o),
(333,-45,o),
(320,-48,c),
(343,-12,l),
(448,-9,o),
(531,39,o),
(577,137,c),
(527,156,l),
(495,92,o),
(437,36,o),
(339,36,cs),
(218,36,o),
(111,142,o),
(111,336,cs),
(111,530,o),
(219,632,o),
(339,632,cs),
(434,632,o),
(495,577,o),
(525,512,c),
(574,531,l),
(531,630,o),
(437,680,o),
(340,680,cs),
(173,680,o),
(54,536,o),
(54,336,cs),
(54,147,o),
(154,5,o),
(306,-11,c),
(279,-55,ls),
(270,-69,o),
(273,-83,o),
(288,-83,cs),
(298,-83,o),
(315,-77,o),
(330,-77,cs),
(360,-77,o),
(371,-89,o),
(371,-107,cs),
(371,-121,o),
(360,-145,o),
(323,-145,cs),
(303,-145,o),
(286,-142,o),
(258,-128,c),
(244,-153,l),
(267,-167,o),
(300,-177,o),
(325,-177,cs)
);
}
);
width = 632;
},
{
anchors = (
{
name = top;
pos = (339,668);
}
);
layerId = "EAC7C082-8AF0-48CD-AF1D-A26CC3CBE6D4";
shapes = (
{
closed = 1;
nodes = (
(392,-188,o),
(461,-170,o),
(461,-108,cs),
(461,-59,o),
(408,-46,o),
(371,-46,cs),
(356,-46,o),
(345,-47,o),
(337,-49,c),
(361,-11,l),
(460,-3,o),
(537,57,o),
(580,148,c),
(451,196,l),
(426,135,o),
(378,123,o),
(349,123,cs),
(273,123,o),
(217,195,o),
(217,334,cs),
(217,466,o),
(270,545,o),
(344,545,cs),
(385,545,o),
(422,526,o),
(444,471,c),
(577,520,l),
(534,619,o),
(450,680,o),
(340,680,cs),
(164,680,o),
(52,545,o),
(52,334,cs),
(52,134,o),
(146,7,o),
(302,-10,c),
(272,-59,ls),
(263,-75,o),
(273,-96,o),
(297,-90,cs),
(306,-87,o),
(316,-85,o),
(323,-85,cs),
(345,-85,o),
(361,-94,o),
(361,-111,cs),
(361,-131,o),
(340,-136,o),
(318,-136,cs),
(292,-136,o),
(265,-129,o),
(256,-124,c),
(240,-176,l),
(263,-183,o),
(295,-188,o),
(328,-188,cs)
);
}
);
width = 632;
}
);
unicode = 199;
},
{
glyphname = D;
kernLeft = H;
kernRight = O;
lastChange = "2024-11-01 12:01:51 +0000";
layers = (
{
anchors = (
{
name = bottom;
pos = (318,0);
},
{
name = center;
pos = (177,351);
},
{
name = top;
pos = (328,668);
}
);
layerId = "451A0C9A-5D2B-4982-995B-41594B80AF49";
shapes = (
{
closed = 1;
nodes = (
(241,0,ls),
(447,0,o),
(591,92,o),
(591,336,cs),
(591,580,o),
(447,668,o),
(241,668,cs),
(77,668,l),
(77,0,l)
);
},
{
closed = 1;
nodes = (
(133,620,l),
(233,620,ls),
(385,620,o),
(534,578,o),
(534,336,cs),
(534,94,o),
(385,48,o),
(233,48,cs),
(133,48,l)
);
}
);
width = 632;
},
{
anchors = (
{
name = bottom;
pos = (325,0);
},
{
name = center;
pos = (167,344);
},
{
name = top;
pos = (307,668);
}
);
layerId = "EAC7C082-8AF0-48CD-AF1D-A26CC3CBE6D4";
shapes = (
{
closed = 1;
nodes = (
(258,0,ls),
(447,0,o),
(597,79,o),
(597,334,cs),
(597,588,o),
(447,668,o),
(258,668,cs),
(62,668,l),
(62,0,l)
);
},
{
closed = 1;
nodes = (
(217,532,l),
(254,532,ls),
(350,532,o),
(437,505,o),
(437,334,cs),
(437,163,o),
(350,138,o),
(254,138,cs),
(217,138,l)
);
}
);
width = 632;
},
{
anchors = (
{
name = bottom;
pos = (322,0);
},
{
name = center;
pos = (172,347);
},
{
name = top;
pos = (317,668);
}
);
associatedMasterId = "EAC7C082-8AF0-48CD-AF1D-A26CC3CBE6D4";
background = {
shapes = (
{
closed = 1;
nodes = (
(250,0,ls),
(447,0,o),
(594,85,o),
(594,335,cs),
(594,584,o),
(447,668,o),
(250,668,cs),
(69,668,l),
(69,0,l)
);
},
{
closed = 1;
nodes = (
(177,574,l),
(244,574,ls),
(367,574,o),
(483,540,o),
(483,335,cs),
(483,130,o),
(367,95,o),
(244,95,cs),
(177,95,l)
);
}
);
};
layerId = "8A7B4F41-6985-4969-A7D0-B8733EE49C66";
name = "18 Apr 24 at 15:55";
shapes = (
{
closed = 1;
nodes = (
(254,0,ls),
(451,0,o),
(598,85,o),
(598,335,cs),
(598,584,o),
(451,668,o),
(254,668,cs),
(65,668,l),
(65,0,l)
);
},
{
closed = 1;
nodes = (
(181,574,l),
(240,574,ls),
(363,574,o),
(479,540,o),
(479,335,cs),
(479,130,o),
(363,95,o),
(240,95,cs),
(181,95,l)
);
}
);
width = 632;
}
);
unicode = 68;
},
{
glyphname = Dcroat;
kernLeft = H;
kernRight = O;
lastChange = "2024-11-01 12:01:51 +0000";
layers = (
{
layerId = "451A0C9A-5D2B-4982-995B-41594B80AF49";
shapes = (
{
closed = 1;
nodes = (
(241,0,ls),
(447,0,o),
(591,92,o),
(591,336,cs),
(591,580,o),
(447,668,o),
(241,668,cs),
(77,668,l),
(77,375,l),
(22,375,l),
(22,327,l),
(77,327,l),
(77,0,l)
);
},
{
closed = 1;
nodes = (
(133,327,l),
(335,327,l),
(335,375,l),
(133,375,l),
(133,620,l),
(233,620,ls),
(385,620,o),
(534,578,o),
(534,336,cs),
(534,94,o),
(385,48,o),
(233,48,cs),
(133,48,l)
);
}
);
width = 632;
},
{
layerId = "EAC7C082-8AF0-48CD-AF1D-A26CC3CBE6D4";
shapes = (
{
closed = 1;
nodes = (
(258,0,ls),
(447,0,o),
(597,79,o),
(597,334,cs),
(597,588,o),
(447,668,o),
(258,668,cs),
(62,668,l),
(62,413,l),
(17,413,l),
(17,274,l),
(62,274,l),
(62,0,l)
);
},
{
closed = 1;
nodes = (
(217,274,l),
(313,274,l),
(313,413,l),
(217,413,l),
(217,532,l),
(254,532,ls),
(350,532,o),
(437,505,o),
(437,334,cs),
(437,163,o),
(350,138,o),
(254,138,cs),
(217,138,l)
);
}
);
width = 632;
}
);
metricRight = D;
unicode = 272;
},
{
glyphname = Eth;
kernLeft = H;
kernRight = O;
lastChange = "2024-11-01 12:01:51 +0000";
layers = (
{
layerId = "451A0C9A-5D2B-4982-995B-41594B80AF49";
shapes = (
{
closed = 1;
nodes = (
(241,0,ls),
(447,0,o),
(591,92,o),
(591,336,cs),
(591,580,o),
(447,668,o),
(241,668,cs),
(77,668,l),
(77,375,l),
(22,375,l),
(22,327,l),
(77,327,l),
(77,0,l)
);
},
{
closed = 1;
nodes = (
(133,327,l),
(335,327,l),
(335,375,l),
(133,375,l),
(133,620,l),
(233,620,ls),
(385,620,o),
(534,578,o),
(534,336,cs),
(534,94,o),
(385,48,o),
(233,48,cs),
(133,48,l)
);
}
);
width = 632;
},
{
layerId = "EAC7C082-8AF0-48CD-AF1D-A26CC3CBE6D4";
shapes = (
{
closed = 1;
nodes = (
(258,0,ls),
(447,0,o),
(597,79,o),
(597,334,cs),
(597,588,o),
(447,668,o),
(258,668,cs),
(62,668,l),
(62,413,l),
(17,413,l),
(17,274,l),
(62,274,l),
(62,0,l)
);
},
{
closed = 1;
nodes = (
(217,274,l),
(313,274,l),
(313,413,l),
(217,413,l),
(217,532,l),
(254,532,ls),
(350,532,o),
(437,505,o),
(437,334,cs),
(437,163,o),
(350,138,o),
(254,138,cs),
(217,138,l)
);
}
);
width = 632;
}
);
metricRight = D;
unicode = 208;
},
{
glyphname = E;
kernLeft = B;
kernRight = E;
lastChange = "2024-11-01 12:01:51 +0000";
layers = (
{
anchors = (
{
name = bottom;
pos = (316,0);
},
{
name = ogonek;
pos = (537,10);
},
{
name = top;
pos = (337,668);
},
{
name = topleft;
pos = (67,668);
}
);
layerId = "451A0C9A-5D2B-4982-995B-41594B80AF49";
shapes = (
{
closed = 1;
nodes = (
(537,0,l),
(537,48,l),
(193,48,l),
(193,320,l),
(470,320,l),
(470,368,l),
(193,368,l),
(193,620,l),
(533,620,l),
(533,668,l),
(137,668,l),
(137,0,l)
);
}
);
width = 632;
},
{
anchors = (
{
name = bottom;
pos = (318,0);
},
{
name = ogonek;
pos = (565,10);
},
{
name = top;
pos = (329,668);
},
{
name = topleft;
pos = (72,668);
}
);
layerId = "EAC7C082-8AF0-48CD-AF1D-A26CC3CBE6D4";
name = "AHL Variable 05 Mono ExtraBold Mono";
shapes = (
{
closed = 1;
nodes = (
(565,0,l),
(565,150,l),
(258,150,l),
(258,269,l),
(431,269,l),
(431,418,l),
(258,418,l),
(258,518,l),
(561,518,l),
(561,668,l),
(88,668,l),
(88,0,l)
);
}
);
width = 632;
}
);
unicode = 69;
},
{
color = 6;
glyphname = Edieresis;
kernLeft = B;
kernRight = E;
lastChange = "2024-11-01 11:55:55 +0000";
layers = (
{
background = {
shapes = (
{
closed = 1;
nodes = (
(547,0,l),
(547,48,l),
(183,48,l),
(183,320,l),
(477,320,l),
(477,368,l),
(183,368,l),
(183,620,l),
(543,620,l),
(543,668,l),
(127,668,l),
(127,0,l)
);
},
{
closed = 1;
nodes = (
(440,739,o),
(459,758,o),
(459,781,cs),
(459,804,o),
(440,823,o),
(417,823,cs),
(394,823,o),
(375,804,o),
(375,781,cs),
(375,758,o),
(394,739,o),
(417,739,cs)
);
},
{
closed = 1;
nodes = (
(280,739,o),
(299,758,o),
(299,781,cs),
(299,804,o),
(280,823,o),
(257,823,cs),
(234,823,o),
(215,804,o),
(215,781,cs),
(215,758,o),
(234,739,o),
(257,739,cs)
);
}
);
};
layerId = "451A0C9A-5D2B-4982-995B-41594B80AF49";
shapes = (
{
ref = E;
},
{
pos = (21,0);
ref = dieresiscomb.case;
}
);
width = 632;
},
{
background = {
shapes = (
{
closed = 1;
nodes = (
(589,0,l),
(589,150,l),
(234,150,l),
(234,269,l),
(442,269,l),
(442,418,l),
(234,418,l),
(234,518,l),
(585,518,l),
(585,668,l),
(64,668,l),
(64,0,l)
);
},
{
closed = 1;
nodes = (
(478,717,o),
(514,753,o),
(514,796,cs),
(514,839,o),
(478,875,o),
(435,875,cs),
(392,875,o),
(356,839,o),
(356,796,cs),
(356,753,o),
(392,717,o),
(435,717,cs)
);
},
{
closed = 1;
nodes = (
(266,717,o),
(302,753,o),
(302,796,cs),
(302,839,o),
(266,875,o),
(223,875,cs),
(180,875,o),
(144,839,o),
(144,796,cs),
(144,753,o),
(180,717,o),
(223,717,cs)
);
}
);
};
layerId = "EAC7C082-8AF0-48CD-AF1D-A26CC3CBE6D4";
shapes = (
{
ref = E;
},
{
pos = (13,0);
ref = dieresiscomb.case;
}
);
width = 632;
}
);
metricLeft = E;
metricRight = E;
unicode = 203;
},
{
glyphname = Eogonek;
kernLeft = B;
kernRight = E;
lastChange = "2024-11-01 12:01:51 +0000";
layers = (
{
anchors = (
{
name = top;
pos = (281,668);
},
{
name = topleft;
pos = (67,668);
}
);
layerId = "451A0C9A-5D2B-4982-995B-41594B80AF49";
shapes = (
{
closed = 1;
nodes = (
(469,0,l),
(432,-22,o),
(407,-52,o),
(407,-94,cs),
(407,-140,o),
(442,-168,o),
(489,-168,cs),
(505,-168,o),
(517,-167,o),
(537,-159,c),
(537,-120,l),
(526,-124,o),
(514,-127,o),
(502,-127,cs),
(476,-127,o),
(452,-115,o),
(452,-84,cs),
(452,-50,o),
(484,-17,o),
(537,0,c),
(537,48,l),
(193,48,l),
(193,320,l),
(470,320,l),
(470,368,l),
(193,368,l),
(193,620,l),
(533,620,l),
(533,668,l),
(137,668,l),
(137,0,l)
);
}
);
width = 632;
},
{
anchors = (
{
name = top;
pos = (291,668);
},
{
name = topleft;
pos = (72,668);
}
);
layerId = "EAC7C082-8AF0-48CD-AF1D-A26CC3CBE6D4";
shapes = (
{
closed = 1;
nodes = (
(397,0,l),
(361,-17,o),
(332,-45,o),
(332,-84,cs),
(332,-121,o),
(362,-176,o),
(483,-176,cs),
(509,-176,o),
(551,-171,o),
(565,-167,c),
(565,-86,l),
(548,-91,o),
(529,-95,o),
(511,-95,cs),
(488,-95,o),
(469,-85,o),
(469,-64,cs),
(469,-31,o),
(529,-2,o),
(565,0,c),
(565,150,l),
(258,150,l),
(258,269,l),
(431,269,l),
(431,418,l),
(258,418,l),
(258,518,l),
(561,518,l),
(561,668,l),
(88,668,l),
(88,0,l)
);
}
);
width = 632;
}
);
metricLeft = E;
metricRight = E;
unicode = 280;
},
{
glyphname = F;
kernLeft = B;
kernRight = F;
lastChange = "2024-11-01 12:01:51 +0000";
layers = (
{
anchors = (
{
name = bottom;
pos = (309,0);
},
{
name = top;
pos = (309,668);
}
);
layerId = "451A0C9A-5D2B-4982-995B-41594B80AF49";
shapes = (
{
closed = 1;
nodes = (
(193,0,l),
(193,320,l),
(533,320,l),
(533,368,l),
(193,368,l),
(193,620,l),
(537,620,l),
(537,668,l),
(137,668,l),
(137,0,l)
);
}
);
width = 632;
},
{
anchors = (
{
name = bottom;
pos = (312,0);
},
{
name = top;
pos = (312,668);
}
);
layerId = "EAC7C082-8AF0-48CD-AF1D-A26CC3CBE6D4";
name = "AHL Variable 05 Mono ExtraBold Mono";
shapes = (
{
closed = 1;
nodes = (
(263,0,l),
(263,233,l),
(561,233,l),
(561,383,l),
(263,383,l),
(263,518,l),
(565,518,l),
(565,668,l),
(93,668,l),
(93,0,l)
);
}
);
width = 632;
}
);
unicode = 70;
},
{
glyphname = G;
kernLeft = O;
kernRight = G;
lastChange = "2024-11-01 12:01:51 +0000";
layers = (
{
anchors = (
{
name = bottom;
pos = (323,0);
},
{
name = top;
pos = (323,668);
}
);
guides = (
{
angle = 21.1941;
pos = (490,499);
}
);
layerId = "451A0C9A-5D2B-4982-995B-41594B80AF49";
shapes = (
{
closed = 1;
nodes = (
(391,-12,o),
(478,20,o),
(525,97,c),
(538,0,l),
(578,0,l),
(578,327,l),
(325,327,l),
(325,279,l),
(525,279,l),
(525,253,ls),
(525,79,o),
(397,36,o),
(322,36,cs),
(195,36,o),
(98,150,o),
(98,334,cs),
(98,529,o),
(198,632,o),
(323,632,cs),
(413,632,o),
(477,585,o),
(508,506,c),
(558,525,l),
(516,627,o),
(428,680,o),
(325,680,cs),
(151,680,o),
(41,541,o),
(41,334,cs),
(41,137,o),
(146,-12,o),
(323,-12,cs)
);
}
);
width = 632;
},
{
anchors = (
{
name = bottom;
pos = (308,0);
},
{
name = top;
pos = (308,668);
}
);
layerId = "EAC7C082-8AF0-48CD-AF1D-A26CC3CBE6D4";
name = "AHL Variable 05 Mono ExtraBold Mono";
shapes = (
{
closed = 1;
nodes = (
(371,-12,o),
(432,16,o),
(465,71,c),
(487,0,l),
(581,0,l),
(581,384,l),
(322,384,l),
(322,257,l),
(439,257,l),
(439,237,ls),
(439,152,o),
(391,123,o),
(336,123,cs),
(249,123,o),
(196,192,o),
(196,336,cs),
(196,479,o),
(253,545,o),
(328,545,cs),
(382,545,o),
(412,514,o),
(426,481,c),
(558,529,l),
(520,630,o),
(425,680,o),
(324,680,cs),
(154,680,o),
(36,548,o),
(36,336,cs),
(36,121,o),
(139,-12,o),
(301,-12,cs)
);
}
);
width = 632;
}
);
unicode = 71;
},
{
glyphname = H;
kernLeft = B;
kernRight = H;
lastChange = "2024-11-01 12:01:51 +0000";
layers = (
{
anchors = (
{
name = bottom;
pos = (315,0);
},
{
name = center;
pos = (316,540);
},
{
name = top;
pos = (315,668);
},
{
name = topleft;
pos = (-12,668);
}
);
layerId = "451A0C9A-5D2B-4982-995B-41594B80AF49";
shapes = (
{
closed = 1;
nodes = (
(121,0,l),
(121,321,l),
(511,321,l),
(511,0,l),
(567,0,l),
(567,668,l),
(511,668,l),
(511,369,l),
(121,369,l),
(121,668,l),
(65,668,l),
(65,0,l)
);
}
);
width = 632;
},
{
anchors = (
{
name = bottom;
pos = (317,0);
},
{
name = center;
pos = (317,546);
},
{
name = top;
pos = (317,668);
},
{
name = topleft;
pos = (-18,668);
}
);
layerId = "EAC7C082-8AF0-48CD-AF1D-A26CC3CBE6D4";
name = "AHL Variable 05 Mono ExtraBold Mono";
shapes = (
{
closed = 1;
nodes = (
(221,0,l),
(221,268,l),
(411,268,l),
(411,0,l),
(581,0,l),
(581,668,l),
(411,668,l),
(411,418,l),
(221,418,l),
(221,668,l),
(51,668,l),
(51,0,l)
);
}
);
width = 632;
},
{
anchors = (
{
name = bottom;
pos = (316,0);
},
{
name = center;
pos = (317,543);
},
{
name = top;
pos = (316,668);
},
{
name = topleft;
pos = (-15,668);
}
);
associatedMasterId = "EAC7C082-8AF0-48CD-AF1D-A26CC3CBE6D4";
layerId = "635176D0-CB87-4155-B3E3-27D2BA35BDDB";
name = "18 Apr 24 at 15:54";
shapes = (
{
closed = 1;
nodes = (
(174,0,l),
(174,293,l),
(458,293,l),
(458,0,l),
(574,0,l),
(574,668,l),
(458,668,l),
(458,395,l),
(174,395,l),
(174,668,l),
(58,668,l),
(58,0,l)
);
}
);
width = 632;
}
);
unicode = 72;
},
{
glyphname = Hbar;
kernLeft = H;
kernRight = H;
lastChange = "2024-11-01 12:01:51 +0000";
layers = (
{
layerId = "451A0C9A-5D2B-4982-995B-41594B80AF49";
shapes = (
{
closed = 1;
nodes = (
(121,0,l),
(121,321,l),
(511,321,l),
(511,0,l),
(567,0,l),
(567,517,l),
(622,517,l),
(622,563,l),
(567,563,l),
(567,668,l),
(511,668,l),
(511,563,l),
(121,563,l),
(121,668,l),
(65,668,l),
(65,563,l),
(10,563,l),
(10,517,l),
(65,517,l),
(65,0,l)
);
},
{
closed = 1;
nodes = (
(121,517,l),
(511,517,l),
(511,369,l),
(121,369,l)
);
}
);
width = 632;
},
{
layerId = "EAC7C082-8AF0-48CD-AF1D-A26CC3CBE6D4";
shapes = (
{
closed = 1;
nodes = (
(221,0,l),
(221,268,l),
(411,268,l),
(411,0,l),
(581,0,l),
(581,498,l),
(626,498,l),
(626,594,l),
(581,594,l),
(581,668,l),
(411,668,l),
(411,594,l),
(221,594,l),
(221,668,l),
(51,668,l),
(51,594,l),
(6,594,l),
(6,498,l),
(51,498,l),
(51,0,l)
);
},
{
closed = 1;
nodes = (
(221,498,l),
(411,498,l),
(411,418,l),
(221,418,l)
);
}
);
width = 632;
}
);
unicode = 294;
},
{
glyphname = I;
kernLeft = I;
kernRight = I;
lastChange = "2024-11-01 12:01:51 +0000";
layers = (
{
anchors = (
{
name = bottom;
pos = (316,0);
},
{
name = ogonek;
pos = (489,10);
},
{
name = top;
pos = (316,668);
},
{
name = topleft;
pos = (143,668);
}
);
layerId = "451A0C9A-5D2B-4982-995B-41594B80AF49";
shapes = (
{
closed = 1;
nodes = (
(489,0,l),
(489,42,l),
(344,42,l),
(344,626,l),
(489,626,l),
(489,668,l),
(143,668,l),
(143,626,l),
(288,626,l),
(288,42,l),
(143,42,l),
(143,0,l)
);
}
);
width = 632;
},
{
anchors = (
{
name = bottom;
pos = (316,0);
},
{
name = ogonek;
pos = (523,10);
},
{
name = top;
pos = (316,668);
},
{
name = topleft;
pos = (101,668);
}
);
layerId = "EAC7C082-8AF0-48CD-AF1D-A26CC3CBE6D4";
name = "AHL Variable 05 Mono ExtraBold Mono";
shapes = (
{
closed = 1;
nodes = (
(523,0,l),
(523,124,l),
(401,124,l),
(401,544,l),
(523,544,l),
(523,668,l),
(109,668,l),
(109,544,l),
(231,544,l),
(231,124,l),
(109,124,l),
(109,0,l)
);
}
);
width = 632;
}
);
unicode = 73;
},
{
glyphname = IJ;
kernLeft = I;
kernRight = U;
lastChange = "2024-11-06 14:11:30 +0000";
layers = (
{
layerId = "451A0C9A-5D2B-4982-995B-41594B80AF49";
shapes = (
{
closed = 1;
nodes = (
(517,-12,o),
(582,52,o),
(582,183,cs),
(582,668,l),
(526,668,l),
(526,184,ls),
(526,58,o),
(465,36,o),
(424,36,cs),
(368,36,o),
(310,79,o),
(317,207,c),
(261,196,l),
(257,53,o),
(324,-12,o),
(424,-12,cs)
);
},
{
closed = 1;
nodes = (
(226,0,l),
(226,42,l),
(146,42,l),
(146,626,l),
(226,626,l),
(226,668,l),
(10,668,l),
(10,626,l),
(90,626,l),
(90,42,l),
(10,42,l),
(10,0,l)
);
}
);
width = 632;
},
{
layerId = "EAC7C082-8AF0-48CD-AF1D-A26CC3CBE6D4";
shapes = (
{
closed = 1;
nodes = (
(565,-12,o),
(622,76,o),
(622,209,cs),
(622,668,l),
(482,668,l),
(482,188,ls),
(482,124,o),
(468,108,o),
(444,108,cs),
(417,108,o),
(403,136,o),
(400,191,c),
(274,142,l),
(302,41,o),
(355,-12,o),
(445,-12,cs)
);
},
{
closed = 1;
nodes = (
(245,0,l),
(245,124,l),
(195,124,l),
(195,544,l),
(245,544,l),
(245,668,l),
(5,668,l),
(5,544,l),
(55,544,l),
(55,124,l),
(5,124,l),
(5,0,l)
);
}
);
width = 632;
}
);
unicode = 306;
},
{
glyphname = Iogonek;
kernLeft = I;
kernRight = I;
lastChange = "2024-11-01 12:01:51 +0000";
layers = (
{
anchors = (
{
name = top;
pos = (316,668);
},
{
name = topleft;
pos = (143,668);
}
);
layerId = "451A0C9A-5D2B-4982-995B-41594B80AF49";
shapes = (
{
closed = 1;
nodes = (
(421,0,l),
(384,-22,o),
(359,-52,o),
(359,-94,cs),
(359,-140,o),
(394,-168,o),
(441,-168,cs),
(457,-168,o),
(469,-167,o),
(489,-159,c),
(489,-120,l),
(478,-124,o),
(466,-127,o),
(454,-127,cs),
(428,-127,o),
(404,-115,o),
(404,-84,cs),
(404,-50,o),
(436,-17,o),
(489,0,c),
(489,42,l),
(344,42,l),
(344,626,l),
(489,626,l),
(489,668,l),
(143,668,l),
(143,626,l),
(288,626,l),
(288,42,l),
(143,42,l),
(143,0,l)
);
}
);
width = 632;
},
{
anchors = (
{
name = top;
pos = (316,668);
},
{
name = topleft;
pos = (101,668);
}
);
layerId = "EAC7C082-8AF0-48CD-AF1D-A26CC3CBE6D4";
shapes = (
{
closed = 1;
nodes = (
(355,0,l),
(319,-17,o),
(290,-45,o),
(290,-84,cs),
(290,-121,o),
(320,-176,o),
(441,-176,cs),
(467,-176,o),
(509,-171,o),
(523,-167,c),
(523,-86,l),
(506,-91,o),
(487,-95,o),
(469,-95,cs),
(446,-95,o),
(427,-85,o),
(427,-64,cs),
(427,-31,o),
(487,-2,o),
(523,0,c),
(523,124,l),
(401,124,l),
(401,544,l),
(523,544,l),
(523,668,l),
(109,668,l),
(109,544,l),
(231,544,l),
(231,124,l),
(109,124,l),
(109,0,l)
);
}
);
width = 632;
}
);
metricLeft = I;
metricRight = I;
unicode = 302;
},
{
glyphname = J;
kernLeft = J;
kernRight = U;
lastChange = "2024-11-01 12:01:51 +0000";
layers = (
{
anchors = (
{
name = bottom;
pos = (322,0);
},
{
name = top;
pos = (472,668);
}
);
layerId = "451A0C9A-5D2B-4982-995B-41594B80AF49";
shapes = (
{
closed = 1;
nodes = (
(412,-12,o),
(500,52,o),
(500,183,cs),
(500,668,l),
(444,668,l),
(444,184,ls),
(444,58,o),
(351,36,o),
(288,36,cs),
(202,36,o),
(115,79,o),
(125,207,c),
(71,196,l),
(66,53,o),
(157,-12,o),
(288,-12,cs)
);
}
);
width = 632;
},
{
anchors = (
{
name = bottom;
pos = (310,0);
},
{
name = top;
pos = (483,668);
}
);
layerId = "EAC7C082-8AF0-48CD-AF1D-A26CC3CBE6D4";
shapes = (
{
closed = 1;
nodes = (
(476,-12,o),
(568,93,o),
(568,264,cs),
(568,668,l),
(398,668,l),
(398,264,ls),
(398,160,o),
(365,122,o),
(287,122,cs),
(219,122,o),
(188,168,o),
(170,231,c),
(14,172,l),
(46,63,o),
(129,-12,o),
(285,-12,cs)
);
}
);
width = 632;
}
);
unicode = 74;
},
{
glyphname = K;
kernLeft = H;
kernRight = K;
lastChange = "2024-11-01 12:01:51 +0000";
layers = (
{
anchors = (
{
name = bottom;
pos = (306,0);
},
{
name = top;
pos = (306,668);
}
);
layerId = "451A0C9A-5D2B-4982-995B-41594B80AF49";
shapes = (
{
closed = 1;
nodes = (
(154,0,l),
(154,219,l),
(274,350,l),
(532,0,l),
(600,0,l),
(310,391,l),
(563,668,l),
(493,668,l),
(154,288,l),
(154,668,l),
(98,668,l),
(98,0,l)
);
}
);
width = 632;
},
{
anchors = (
{
name = bottom;
pos = (310,0);
},
{
name = top;
pos = (325,668);
}
);
layerId = "EAC7C082-8AF0-48CD-AF1D-A26CC3CBE6D4";
shapes = (
{
closed = 1;
nodes = (
(212,0,l),
(212,195,l),
(268,261,l),
(431,0,l),
(617,0,l),
(371,385,l),
(608,668,l),
(426,668,l),
(212,409,l),
(212,668,l),
(57,668,l),
(57,0,l)
);
}
);
width = 632;
},
{
anchors = (
{
name = bottom;
pos = (308,0);
},
{
name = top;
pos = (316,668);
}
);
associatedMasterId = "EAC7C082-8AF0-48CD-AF1D-A26CC3CBE6D4";
background = {
shapes = (
{
closed = 1;
nodes = (
(-2646,0,l),
(-2646,195,l),
(-2209,668,l),
(-2416,668,l),
(-2646,416,l),
(-2646,668,l),
(-2816,668,l),
(-2816,0,l)
);
},
{
closed = 1;
nodes = (
(-2199,0,l),
(-2519,441,l),
(-2627,323,l),
(-2395,0,l)
);
},
{
closed = 1;
nodes = (
(-1685,0,l),
(-1685,195,l),
(-1289,668,l),
(-1477,668,l),
(-1685,416,l),
(-1685,668,l),
(-1839,668,l),
(-1839,0,l)
);
},
{
closed = 1;
nodes = (
(-1280,0,l),
(-1570,441,l),
(-1668,323,l),
(-1457,0,l)
);
},
{
closed = 1;
nodes = (
(-736,0,l),
(-736,195,l),
(-340,668,l),
(-528,668,l),
(-736,416,l),
(-736,668,l),
(-891,668,l),
(-891,0,l)
);
},
{
closed = 1;
nodes = (
(-331,0,l),
(-621,441,l),
(-719,323,l),
(-508,0,l)
);
},
{
closed = 1;
nodes = (
(185,0,l),
(185,206,l),
(587,668,l),
(455,668,l),
(185,355,l),
(185,668,l),
(76,668,l),
(76,0,l)
);
},
{
closed = 1;
nodes = (
(609,0,l),
(318,426,l),
(244,344,l),
(476,0,l)
);
}
);
};
layerId = "DF57CA9A-16F4-4EB9-AFF5-61C3593947E0";
name = "18 Apr 24 at 15:56";
shapes = (
{
closed = 1;
nodes = (
(189,0,l),
(189,204,l),
(591,668,l),
(451,668,l),
(189,357,l),
(189,668,l),
(73,668,l),
(73,0,l)
);
},
{
closed = 1;
nodes = (
(613,0,l),
(322,426,l),
(240,344,l),
(472,0,l)
);
}
);
width = 632;
}
);
unicode = 75;
},
{
glyphname = L;
kernLeft = H;
kernRight = L;
lastChange = "2024-11-01 12:01:51 +0000";
layers = (
{
anchors = (
{
name = bottom;
pos = (340,0);
},
{
name = center;
pos = (218,330);
},
{
name = top;
pos = (320,668);
},
{
name = topright;
pos = (280,459);
}
);
layerId = "451A0C9A-5D2B-4982-995B-41594B80AF49";
shapes = (
{
closed = 1;
nodes = (
(582,0,l),
(582,48,l),
(203,48,l),
(203,668,l),
(147,668,l),
(147,0,l)
);
}
);
width = 632;
},
{
anchors = (
{
name = bottom;
pos = (332,0);
},
{
name = center;
pos = (226,363);
},
{
name = top;
pos = (332,668);
},
{
name = topright;
pos = (315,459);
}
);
layerId = "EAC7C082-8AF0-48CD-AF1D-A26CC3CBE6D4";
name = "AHL Variable 05 Mono ExtraBold Mono";
shapes = (
{
closed = 1;
nodes = (
(584,0,l),
(584,150,l),
(271,150,l),
(271,668,l),
(101,668,l),
(101,0,l)
);
}
);
width = 632;
}
);
unicode = 76;
},
{
color = 6;
glyphname = Lcaron;
kernLeft = H;
kernRight = L;
lastChange = "2024-11-01 11:55:55 +0000";
layers = (
{
background = {
anchors = (
{
name = _topright;
pos = (185,459);
},
{
name = bottom;
pos = (255,0);
},
{
name = center;
pos = (153,330);
},
{
name = top;
pos = (255,668);
},
{
name = topright;
pos = (185,459);
}
);
shapes = (
{
closed = 1;
nodes = (
(517,0,l),
(517,48,l),
(138,48,l),
(138,668,l),
(82,668,l),
(82,0,l)
);
},
{
closed = 1;
nodes = (
(238,503,l),
(277,616,ls),
(285,638,o),
(288,648,o),
(288,655,cs),
(288,675,o),
(272,681,o),
(259,681,cs),
(237,681,o),
(230,665,o),
(225,632,cs),
(205,503,l)
);
}
);
};
layerId = "451A0C9A-5D2B-4982-995B-41594B80AF49";
shapes = (
{
ref = L;
},
{
pos = (25,-37);
ref = caroncomb.alt;
}
);
width = 632;
},
{
background = {
anchors = (
{
name = _topright;
pos = (238,459);
},
{
name = bottom;
pos = (285,0);
},
{
name = center;
pos = (179,363);
},
{
name = top;
pos = (285,668);
},
{
name = topright;
pos = (238,459);
}
);
shapes = (
{
closed = 1;
nodes = (
(537,0,l),
(537,150,l),
(224,150,l),
(224,668,l),
(54,668,l),
(54,0,l)
);
},
{
closed = 1;
nodes = (
(344,487,l),
(381,569,ls),
(394,597,o),
(399,609,o),
(399,624,cs),
(399,648,o),
(378,681,o),
(341,681,cs),
(318,681,o),
(288,665,o),
(282,631,cs),
(258,487,l)
);
}
);
};
layerId = "EAC7C082-8AF0-48CD-AF1D-A26CC3CBE6D4";
shapes = (
{
ref = L;
},
{
pos = (89,-37);
ref = caroncomb.alt;
}
);
width = 632;
}
);
metricLeft = L;
metricRight = L;
unicode = 317;
},
{
glyphname = Lslash;
kernLeft = H;
kernRight = L;
lastChange = "2024-11-01 12:01:51 +0000";
layers = (
{
layerId = "451A0C9A-5D2B-4982-995B-41594B80AF49";
shapes = (
{
closed = 1;
nodes = (
(582,0,l),
(582,48,l),
(203,48,l),
(203,293,l),
(405,411,l),
(405,466,l),
(203,348,l),
(203,668,l),
(147,668,l),
(147,316,l),
(31,248,l),
(31,193,l),
(147,261,l),
(147,0,l)
);
}
);
width = 632;
},
{
layerId = "EAC7C082-8AF0-48CD-AF1D-A26CC3CBE6D4";
shapes = (
{
closed = 1;
nodes = (
(584,0,l),
(584,150,l),
(271,150,l),
(271,326,l),
(421,416,l),
(421,544,l),
(271,454,l),
(271,668,l),
(101,668,l),
(101,352,l),
(30,310,l),
(30,182,l),
(101,224,l),
(101,0,l)
);
}
);
width = 632;
}
);
metricRight = L;
unicode = 321;
},
{
glyphname = M;
kernLeft = H;
kernRight = H;
lastChange = "2024-11-01 12:01:51 +0000";
layers = (
{
anchors = (
{
name = bottom;
pos = (316,0);
},
{
name = top;
pos = (316,668);
}
);
layerId = "451A0C9A-5D2B-4982-995B-41594B80AF49";
shapes = (
{
closed = 1;
nodes = (
(107,0,l),
(107,608,l),
(111,608,l),
(286,0,l),
(348,0,l),
(521,608,l),
(525,608,l),
(525,0,l),
(581,0,l),
(581,668,l),
(484,668,l),
(320,75,l),
(316,75,l),
(148,668,l),
(51,668,l),
(51,0,l)
);
}
);
width = 632;
},
{
anchors = (
{
name = bottom;
pos = (316,0);
},
{
name = top;
pos = (316,668);
}
);
layerId = "EAC7C082-8AF0-48CD-AF1D-A26CC3CBE6D4";
name = "AHL Variable 05 Mono ExtraBold Mono";
shapes = (
{
closed = 1;
nodes = (
(157,0,l),
(157,502,l),
(161,502,l),
(253,0,l),
(376,0,l),
(469,502,l),
(473,502,l),
(473,0,l),
(597,0,l),
(597,668,l),
(402,668,l),
(321,212,l),
(317,212,l),
(238,668,l),
(35,668,l),
(35,0,l)
);
}
);
width = 632;
}
);
unicode = 77;
},
{
glyphname = N;
kernLeft = H;
kernRight = H;
lastChange = "2024-11-01 12:01:51 +0000";
layers = (
{
anchors = (
{
name = bottom;
pos = (300,0);
},
{
name = top;
pos = (316,668);
}
);
layerId = "451A0C9A-5D2B-4982-995B-41594B80AF49";
shapes = (
{
closed = 1;
nodes = (
(141,0,l),
(141,606,l),
(145,606,l),
(458,0,l),
(547,0,l),
(547,668,l),
(491,668,l),
(491,62,l),
(487,62,l),
(174,668,l),
(85,668,l),
(85,0,l)
);
}
);
width = 632;
},
{
anchors = (
{
name = bottom;
pos = (305,0);
},
{
name = top;
pos = (316,668);
}
);
layerId = "EAC7C082-8AF0-48CD-AF1D-A26CC3CBE6D4";
name = "AHL Variable 05 Mono ExtraBold Mono";
shapes = (
{
closed = 1;
nodes = (
(193,0,l),
(193,452,l),
(197,452,l),
(396,0,l),
(581,0,l),
(581,668,l),
(439,668,l),
(439,216,l),
(435,216,l),
(235,668,l),
(51,668,l),
(51,0,l)
);
}
);
width = 632;
}
);
unicode = 78;
},
{
glyphname = O;
kernLeft = O;
kernRight = O;
lastChange = "2024-11-01 12:01:51 +0000";
layers = (
{
anchors = (
{
name = bottom;
pos = (317,0);
},
{
name = center;
pos = (317,334);
},
{
name = ogonek;
pos = (586,10);
},
{
name = top;
pos = (317,668);
},
{
name = topleft;
pos = (-3,668);
},
{
name = topright;
pos = (635,668);
}
);
layerId = "451A0C9A-5D2B-4982-995B-41594B80AF49";
shapes = (
{
closed = 1;
nodes = (
(490,-12,o),
(591,134,o),
(591,334,cs),
(591,534,o),
(490,680,o),
(316,680,cs),
(142,680,o),
(41,534,o),
(41,334,cs),
(41,134,o),
(142,-12,o),
(316,-12,cs)
);
},
{
closed = 1;
nodes = (
(192,36,o),
(98,141,o),
(98,334,cs),
(98,527,o),
(192,632,o),
(316,632,cs),
(440,632,o),
(534,527,o),
(534,334,cs),
(534,141,o),
(440,36,o),
(316,36,cs)
);
}
);
width = 632;
},
{
anchors = (
{
name = bottom;
pos = (317,0);
},
{
name = center;
pos = (317,334);
},
{
name = ogonek;
pos = (557,10);
},
{
name = top;
pos = (317,668);
},
{
name = topleft;
pos = (32,668);
},
{
name = topright;
pos = (602,668);
}
);
layerId = "EAC7C082-8AF0-48CD-AF1D-A26CC3CBE6D4";
name = "AHL Variable 05 Mono ExtraBold Mono";
shapes = (
{
closed = 1;
nodes = (
(489,-12,o),
(596,121,o),
(596,334,cs),
(596,547,o),
(489,680,o),
(316,680,cs),
(143,680,o),
(36,547,o),
(36,334,cs),
(36,121,o),
(143,-12,o),
(316,-12,cs)
);
},
{
closed = 1;
nodes = (
(245,123,o),
(201,194,o),
(201,334,cs),
(201,474,o),
(245,545,o),
(316,545,cs),
(387,545,o),
(431,474,o),
(431,334,cs),
(431,194,o),
(387,123,o),
(316,123,cs)
);
}
);
width = 632;
}
);
unicode = 79;
},
{
glyphname = Oslash;
kernLeft = O;
kernRight = O;
lastChange = "2024-11-06 15:28:43 +0000";
layers = (
{
anchors = (
{
name = bottom;
pos = (317,0);
},
{
name = center;
pos = (317,334);
},
{
name = ogonek;
pos = (586,10);
},
{
name = top;
pos = (317,668);
},
{
name = topleft;
pos = (-3,668);
},
{
name = topright;
pos = (635,668);
}
);
layerId = "451A0C9A-5D2B-4982-995B-41594B80AF49";
shapes = (
{
closed = 1;
nodes = (
(490,-12,o),
(591,134,o),
(591,334,cs),
(591,428,o),
(569,510,o),
(527,570,c),
(587,646,l),
(556,670,l),
(502,602,l),
(456,651,o),
(393,680,o),
(316,680,cs),
(142,680,o),
(41,534,o),
(41,334,cs),
(41,240,o),
(64,157,o),
(106,97,c),
(47,22,l),
(77,-3,l),
(131,65,l),
(177,16,o),
(239,-12,o),
(316,-12,cs)
);
},
{
closed = 1;
nodes = (
(256,36,o),
(203,61,o),
(164,108,c),
(492,525,l),
(518,476,o),
(534,412,o),
(534,334,cs),
(534,141,o),
(440,36,o),
(316,36,cs)
);
},
{
closed = 1;
nodes = (
(114,190,o),
(98,255,o),
(98,334,cs),
(98,527,o),
(192,632,o),
(316,632,cs),
(377,632,o),
(430,607,o),
(469,559,c),
(141,142,l)
);
}
);
width = 632;
},
{
anchors = (
{
name = bottom;
pos = (317,0);
},
{
name = center;
pos = (317,334);
},
{
name = ogonek;
pos = (557,10);
},
{
name = top;
pos = (317,668);
},
{
name = topleft;
pos = (32,668);
},
{
name = topright;
pos = (602,668);
}
);
guides = (
{
angle = 90;
pos = (596,334);
},
{
angle = 90;
pos = (36,334);
}
);
layerId = "EAC7C082-8AF0-48CD-AF1D-A26CC3CBE6D4";
shapes = (
{
closed = 1;
nodes = (
(489,-12,o),
(596,121,o),
(596,334,cs),
(596,435,o),
(572,517,o),
(529,577,c),
(569,635,l),
(504,680,l),
(472,633,l),
(429,664,o),
(377,680,o),
(316,680,cs),
(143,680,o),
(36,547,o),
(36,334,cs),
(36,233,o),
(60,150,o),
(104,91,c),
(63,32,l),
(127,-13,l),
(160,35,l),
(202,4,o),
(255,-12,o),
(316,-12,cs)
);
},
{
closed = 1;
nodes = (
(287,123,o),
(263,135,o),
(244,158,c),
(424,423,l),
(428,397,o),
(431,368,o),
(431,334,cs),
(431,194,o),
(387,123,o),
(316,123,cs)
);
},
{
closed = 1;
nodes = (
(204,271,o),
(201,300,o),
(201,334,cs),
(201,474,o),
(245,545,o),
(316,545,cs),
(345,545,o),
(369,533,o),
(388,510,c),
(208,245,l)
);
}
);
width = 632;
}
);
metricLeft = O;
metricRight = O;
unicode = 216;
},
{
glyphname = OE;
kernLeft = O;
kernRight = E;
lastChange = "2024-11-01 12:01:51 +0000";
layers = (
{
anchors = (
{
name = bottom;
pos = (316,0);
},
{
name = top;
pos = (316,668);
}
);
layerId = "451A0C9A-5D2B-4982-995B-41594B80AF49";
shapes = (
{
closed = 1;
nodes = (
(270,-12,o),
(320,24,o),
(353,90,c),
(353,0,l),
(617,0,l),
(617,48,l),
(409,48,l),
(409,320,l),
(569,320,l),
(569,368,l),
(409,368,l),
(409,620,l),
(614,620,l),
(614,668,l),
(353,668,l),
(353,577,l),
(320,644,o),
(270,680,o),
(204,680,cs),
(77,680,o),
(8,543,o),
(8,334,cs),
(8,124,o),
(77,-12,o),
(203,-12,cs)
);
},
{
closed = 1;
nodes = (
(125,36,o),
(65,131,o),
(65,334,cs),
(65,537,o),
(125,632,o),
(208,632,cs),
(293,632,o),
(353,537,o),
(353,334,cs),
(353,133,o),
(293,36,o),
(208,36,cs)
);
}
);
width = 632;
},
{
anchors = (
{
name = bottom;
pos = (318,0);
},
{
name = top;
pos = (318,668);
}
);
layerId = "EAC7C082-8AF0-48CD-AF1D-A26CC3CBE6D4";
shapes = (
{
closed = 1;
nodes = (
(251,-12,o),
(287,3,o),
(317,31,c),
(317,0,l),
(631,0,l),
(631,130,l),
(439,130,l),
(439,279,l),
(536,279,l),
(536,408,l),
(439,408,l),
(439,538,l),
(629,538,l),
(629,668,l),
(317,668,l),
(317,637,l),
(287,665,o),
(251,680,o),
(210,680,cs),
(82,680,o),
(5,554,o),
(5,334,cs),
(5,114,o),
(82,-12,o),
(210,-12,cs)
);
},
{
closed = 1;
nodes = (
(181,108,o),
(142,157,o),
(142,335,cs),
(142,512,o),
(181,560,o),
(229,560,cs),
(278,560,o),
(317,512,o),
(317,335,cs),
(317,157,o),
(278,108,o),
(229,108,cs)
);
}
);
width = 632;
}
);
unicode = 338;
},
{
glyphname = P;
kernLeft = H;
kernRight = P;
lastChange = "2024-11-01 12:01:51 +0000";
layers = (
{
anchors = (
{
name = bottom;
pos = (317,0);
},
{
name = top;
pos = (317,668);
}
);
layerId = "451A0C9A-5D2B-4982-995B-41594B80AF49";
shapes = (
{
closed = 1;
nodes = (
(175,0,l),
(175,285,l),
(332,285,ls),
(474,285,o),
(565,348,o),
(565,477,cs),
(565,606,o),
(474,668,o),
(332,668,cs),
(119,668,l),
(119,0,l)
);
},
{
closed = 1;
nodes = (
(175,620,l),
(326,620,ls),
(436,620,o),
(508,584,o),
(508,477,cs),
(508,369,o),
(436,333,o),
(326,333,cs),
(175,333,l)
);
}
);
width = 632;
},
{
anchors = (
{
name = bottom;
pos = (329,0);
},
{
name = top;
pos = (329,668);
}
);
layerId = "EAC7C082-8AF0-48CD-AF1D-A26CC3CBE6D4";
shapes = (
{
closed = 1;
nodes = (
(221,0,l),
(221,223,l),
(350,223,ls),
(487,223,o),
(608,289,o),
(608,446,cs),
(608,602,o),
(487,668,o),
(350,668,cs),
(66,668,l),
(66,0,l)
);
},
{
closed = 1;
nodes = (
(221,534,l),
(345,534,ls),
(402,534,o),
(448,508,o),
(448,446,cs),
(448,383,o),
(402,357,o),
(345,357,cs),
(221,357,l)
);
}
);
width = 632;
},
{
anchors = (
{
name = bottom;
pos = (323,0);
},
{
name = top;
pos = (323,668);
}
);
associatedMasterId = "EAC7C082-8AF0-48CD-AF1D-A26CC3CBE6D4";
background = {
shapes = (
{
closed = 1;
nodes = (
(199,0,l),
(199,252,l),
(341,252,ls),
(481,252,o),
(588,317,o),
(588,461,cs),
(588,604,o),
(481,668,o),
(341,668,cs),
(91,668,l),
(91,0,l)
);
},
{
closed = 1;
nodes = (
(199,575,l),
(336,575,ls),
(418,575,o),
(476,544,o),
(476,461,cs),
(476,376,o),
(418,346,o),
(336,346,cs),
(199,346,l)
);
}
);
};
layerId = "84886809-9E80-4C56-B4C8-A7066341B1CE";
name = "18 Apr 24 at 15:56";
shapes = (
{
closed = 1;
nodes = (
(203,0,l),
(203,252,l),
(345,252,ls),
(485,252,o),
(592,317,o),
(592,461,cs),
(592,604,o),
(485,668,o),
(345,668,cs),
(87,668,l),
(87,0,l)
);
},
{
closed = 1;
nodes = (
(203,575,l),
(332,575,ls),
(414,575,o),
(472,544,o),
(472,461,cs),
(472,376,o),
(414,346,o),
(332,346,cs),
(203,346,l)
);
}
);
width = 632;
}
);
unicode = 80;
},
{
glyphname = Thorn;
kernLeft = H;
kernRight = Thorn;
lastChange = "2024-11-01 12:01:51 +0000";
layers = (
{
anchors = (
{
name = bottom;
pos = (298,0);
},
{
name = top;
pos = (298,668);
}
);
layerId = "451A0C9A-5D2B-4982-995B-41594B80AF49";
shapes = (
{
closed = 1;
nodes = (
(175,0,l),
(175,148,l),
(332,148,ls),
(474,148,o),
(565,211,o),
(565,340,cs),
(565,469,o),
(474,531,o),
(332,531,cs),
(175,531,l),
(175,668,l),
(119,668,l),
(119,0,l)
);
},
{
closed = 1;
nodes = (
(175,483,l),
(326,483,ls),
(436,483,o),
(508,447,o),
(508,340,cs),
(508,232,o),
(436,196,o),
(326,196,cs),
(175,196,l)
);
}
);
width = 632;
},
{
anchors = (
{
name = bottom;
pos = (325,0);
},
{
name = top;
pos = (325,668);
}
);
layerId = "EAC7C082-8AF0-48CD-AF1D-A26CC3CBE6D4";
shapes = (
{
closed = 1;
nodes = (
(221,0,l),
(221,119,l),
(350,119,ls),
(486,119,o),
(608,185,o),
(608,342,cs),
(608,498,o),
(486,564,o),
(350,564,cs),
(221,564,l),
(221,668,l),
(66,668,l),
(66,0,l)
);
},
{
closed = 1;
nodes = (
(221,430,l),
(345,430,ls),
(403,430,o),
(448,404,o),
(448,342,cs),
(448,280,o),
(403,253,o),
(345,253,cs),
(221,253,l)
);
}
);
width = 632;
},
{
anchors = (
{
name = bottom;
pos = (312,0);
},
{
name = top;
pos = (312,668);
}
);
associatedMasterId = "EAC7C082-8AF0-48CD-AF1D-A26CC3CBE6D4";
background = {
shapes = (
{
closed = 1;
nodes = (
(341,133,ls),
(480,133,o),
(588,197,o),
(588,341,cs),
(588,484,o),
(480,548,o),
(341,548,cs),
(150,548,l),
(150,455,l),
(336,455,ls),
(419,455,o),
(476,424,o),
(476,341,cs),
(476,257,o),
(419,226,o),
(336,226,cs),
(150,226,l),
(150,133,l)
);
},
{
closed = 1;
nodes = (
(199,0,l),
(199,668,l),
(91,668,l),
(91,0,l)
);
}
);
};
layerId = "F49D244A-9818-476B-A613-345DE941B846";
name = "18 Apr 24 at 15:57";
shapes = (
{
closed = 1;
nodes = (
(345,133,ls),
(484,133,o),
(592,197,o),
(592,341,cs),
(592,484,o),
(484,548,o),
(345,548,cs),
(150,548,l),
(150,455,l),
(332,455,ls),
(415,455,o),
(472,424,o),
(472,341,cs),
(472,257,o),
(415,226,o),
(332,226,cs),
(150,226,l),
(150,133,l)
);
},
{
closed = 1;
nodes = (
(203,0,l),
(203,668,l),
(87,668,l),
(87,0,l)
);
}
);
width = 632;
}
);
unicode = 222;
},
{
glyphname = Q;
kernLeft = O;
kernRight = O;
lastChange = "2024-11-01 12:01:51 +0000";
layers = (
{
layerId = "451A0C9A-5D2B-4982-995B-41594B80AF49";
shapes = (
{
closed = 1;
nodes = (
(396,-12,o),
(461,19,o),
(507,72,c),
(596,-12,l),
(632,25,l),
(538,114,l),
(572,173,o),
(591,248,o),
(591,334,cs),
(591,534,o),
(490,680,o),
(316,680,cs),
(142,680,o),
(41,534,o),
(41,334,cs),
(41,134,o),
(142,-12,o),
(316,-12,cs)
);
},
{
closed = 1;
nodes = (
(192,36,o),
(98,141,o),
(98,334,cs),
(98,527,o),
(192,632,o),
(316,632,cs),
(440,632,o),
(534,527,o),
(534,334,cs),
(534,260,o),
(520,200,o),
(497,153,c),
(331,309,l),
(295,271,l),
(468,108,l),
(429,61,o),
(376,36,o),
(316,36,cs)
);
}
);
width = 632;
},
{
layerId = "EAC7C082-8AF0-48CD-AF1D-A26CC3CBE6D4";
shapes = (
{
closed = 1;
nodes = (
(382,-12,o),
(439,7,o),
(483,43,c),
(545,-15,l),
(632,78,l),
(560,146,l),
(583,198,o),
(596,261,o),
(596,334,cs),
(596,547,o),
(489,680,o),
(316,680,cs),
(143,680,o),
(36,547,o),
(36,334,cs),
(36,121,o),
(143,-12,o),
(316,-12,cs)
);
},
{
closed = 1;
nodes = (
(245,123,o),
(201,194,o),
(201,334,cs),
(201,474,o),
(245,545,o),
(316,545,cs),
(387,545,o),
(431,474,o),
(431,334,cs),
(431,311,o),
(430,289,o),
(427,270,c),
(357,336,l),
(270,245,l),
(376,145,l),
(359,130,o),
(339,123,o),
(316,123,cs)
);
}
);
width = 632;
}
);
metricLeft = O;
unicode = 81;
},
{
glyphname = R;
kernLeft = H;
kernRight = R;
lastChange = "2024-11-01 12:01:51 +0000";
layers = (
{
anchors = (
{
name = bottom;
pos = (311,0);
},
{
name = top;
pos = (292,668);
}
);
layerId = "451A0C9A-5D2B-4982-995B-41594B80AF49";
shapes = (
{
closed = 1;
nodes = (
(174,0,l),
(174,291,l),
(288,291,l),
(490,0,l),
(561,0,l),
(351,294,l),
(470,303,o),
(550,361,o),
(550,479,cs),
(550,608,o),
(459,668,o),
(322,668,cs),
(118,668,l),
(118,0,l)
);
},
{
closed = 1;
nodes = (
(174,620,l),
(319,620,ls),
(418,620,o),
(493,580,o),
(493,479,cs),
(493,379,o),
(418,339,o),
(319,339,cs),
(174,339,l)
);
}
);
width = 632;
},
{
anchors = (
{
name = bottom;
pos = (317,0);
},
{
name = top;
pos = (297,668);
}
);
layerId = "EAC7C082-8AF0-48CD-AF1D-A26CC3CBE6D4";
name = "AHL Variable 05 Mono ExtraBold Mono";
shapes = (
{
closed = 1;
nodes = (
(206,0,l),
(206,245,l),
(269,245,l),
(421,0,l),
(602,0,l),
(430,264,l),
(511,290,o),
(571,350,o),
(571,457,cs),
(571,606,o),
(454,668,o),
(318,668,cs),
(51,668,l),
(51,0,l)
);
},
{
closed = 1;
nodes = (
(206,534,l),
(317,534,ls),
(370,534,o),
(409,512,o),
(409,457,cs),
(409,401,o),
(370,379,o),
(317,379,cs),
(206,379,l)
);
}
);
width = 632;
},
{
anchors = (
{
name = bottom;
pos = (314,0);
},
{
name = top;
pos = (295,668);
}
);
associatedMasterId = "EAC7C082-8AF0-48CD-AF1D-A26CC3CBE6D4";
background = {
shapes = (
{
closed = 1;
nodes = (
(191,0,l),
(191,267,l),
(298,267,l),
(312,270,l),
(323,270,ls),
(455,270,o),
(561,328,o),
(561,467,cs),
(561,607,o),
(456,668,o),
(320,668,cs),
(83,668,l),
(83,0,l)
);
},
{
closed = 1;
nodes = (
(583,0,l),
(372,311,l),
(250,311,l),
(454,0,l)
);
},
{
closed = 1;
nodes = (
(191,575,l),
(318,575,ls),
(393,575,o),
(449,544,o),
(449,467,cs),
(449,391,o),
(393,360,o),
(318,360,cs),
(191,360,l)
);
}
);
};
layerId = "5AE4A579-F077-4EDD-959C-502E32B6026F";
name = "18 Apr 24 at 15:58";
shapes = (
{
closed = 1;
nodes = (
(195,0,l),
(195,267,l),
(298,267,l),
(312,270,l),
(327,270,ls),
(459,270,o),
(565,328,o),
(565,467,cs),
(565,607,o),
(460,668,o),
(324,668,cs),
(79,668,l),
(79,0,l)
);
},
{
closed = 1;
nodes = (
(587,0,l),
(375,311,l),
(246,311,l),
(450,0,l)
);
},
{
closed = 1;
nodes = (
(195,575,l),
(314,575,ls),
(389,575,o),
(445,544,o),
(445,467,cs),
(445,391,o),
(389,360,o),
(314,360,cs),
(195,360,l)
);
}
);
width = 632;
}
);
unicode = 82;
},
{
glyphname = S;
kernLeft = S;
kernRight = S;
lastChange = "2024-11-01 12:01:51 +0000";
layers = (
{
anchors = (
{
name = bottom;
pos = (316,0);
},
{
name = top;
pos = (316,668);
}
);
layerId = "451A0C9A-5D2B-4982-995B-41594B80AF49";
shapes = (
{
closed = 1;
nodes = (
(446,-12,o),
(560,62,o),
(560,181,cs),
(560,293,o),
(481,334,o),
(364,364,cs),
(268,389,ls),
(203,406,o),
(146,439,o),
(146,502,cs),
(146,590,o),
(225,632,o),
(316,632,cs),
(376,632,o),
(448,602,o),
(478,545,c),
(533,566,l),
(492,644,o),
(405,680,o),
(315,680,cs),
(185,680,o),
(89,605,o),
(89,503,cs),
(89,399,o),
(169,358,o),
(256,336,cs),
(351,312,ls),
(469,282,o),
(503,245,o),
(503,184,cs),
(503,87,o),
(421,36,o),
(315,36,cs),
(234,36,o),
(152,74,o),
(127,161,c),
(73,140,l),
(104,32,o),
(220,-12,o),
(314,-12,cs)
);
}
);
width = 632;
},
{
anchors = (
{
name = bottom;
pos = (316,0);
},
{
name = top;
pos = (316,668);
}
);
layerId = "EAC7C082-8AF0-48CD-AF1D-A26CC3CBE6D4";
name = "AHL Variable 05 Mono ExtraBold Mono";
shapes = (
{
closed = 1;
nodes = (
(465,-12,o),
(591,76,o),
(591,214,cs),
(591,335,o),
(496,383,o),
(360,410,cs),
(295,423,ls),
(248,432,o),
(225,453,o),
(225,483,cs),
(225,521,o),
(263,544,o),
(313,544,cs),
(364,544,o),
(406,519,o),
(423,475,c),
(576,531,l),
(534,637,o),
(425,680,o),
(326,680,cs),
(183,680,o),
(55,600,o),
(55,475,cs),
(55,363,o),
(132,301,o),
(259,277,cs),
(311,267,ls),
(385,253,o),
(421,233,o),
(421,192,cs),
(421,145,o),
(367,124,o),
(324,124,cs),
(262,124,o),
(208,160,o),
(194,215,c),
(39,159,l),
(81,52,o),
(182,-12,o),
(321,-12,cs)
);
}
);
width = 632;
}
);
unicode = 83;
},
{
glyphname = Scedilla;
kernLeft = S;
kernRight = S;
lastChange = "2024-11-01 12:01:51 +0000";
layers = (
{
anchors = (
{
name = top;
pos = (316,668);
}
);
layerId = "451A0C9A-5D2B-4982-995B-41594B80AF49";
shapes = (
{
closed = 1;
nodes = (
(369,-177,o),
(395,-130,o),
(395,-99,cs),
(395,-71,o),
(374,-44,o),
(333,-44,cs),
(327,-44,o),
(315,-45,o),
(302,-48,c),
(325,-12,l),
(453,-8,o),
(560,65,o),
(560,181,cs),
(560,293,o),
(481,334,o),
(364,364,cs),
(268,389,ls),
(203,406,o),
(146,439,o),
(146,502,cs),
(146,590,o),
(225,632,o),
(316,632,cs),
(376,632,o),
(448,602,o),
(478,545,c),
(533,566,l),
(492,644,o),
(405,680,o),
(315,680,cs),
(185,680,o),
(89,605,o),
(89,503,cs),
(89,399,o),
(169,358,o),
(256,336,cs),
(351,312,ls),
(469,282,o),
(503,245,o),
(503,184,cs),
(503,87,o),
(421,36,o),
(315,36,cs),
(234,36,o),
(152,74,o),
(127,161,c),
(73,140,l),
(101,42,o),
(200,-4,o),
(288,-11,c),
(261,-55,ls),
(252,-69,o),
(255,-83,o),
(270,-83,cs),
(280,-83,o),
(297,-77,o),
(312,-77,cs),
(342,-77,o),
(353,-89,o),
(353,-107,cs),
(353,-121,o),
(342,-145,o),
(305,-145,cs),
(285,-145,o),
(268,-142,o),
(240,-128,c),
(226,-153,l),
(249,-167,o),
(282,-177,o),
(307,-177,cs)
);
}
);
width = 632;
},
{
anchors = (
{
name = top;
pos = (316,668);
}
);
layerId = "EAC7C082-8AF0-48CD-AF1D-A26CC3CBE6D4";
shapes = (
{
closed = 1;
nodes = (
(369,-188,o),
(438,-170,o),
(438,-108,cs),
(438,-59,o),
(385,-46,o),
(348,-46,cs),
(333,-46,o),
(322,-47,o),
(314,-49,c),
(338,-12,l),
(475,-5,o),
(591,81,o),
(591,214,cs),
(591,335,o),
(496,383,o),
(360,410,cs),
(295,423,ls),
(248,432,o),
(225,453,o),
(225,483,cs),
(225,521,o),
(263,544,o),
(313,544,cs),
(364,544,o),
(406,519,o),
(423,475,c),
(576,531,l),
(534,637,o),
(425,680,o),
(326,680,cs),
(183,680,o),
(55,600,o),
(55,475,cs),
(55,363,o),
(132,301,o),
(259,277,cs),
(311,267,ls),
(385,253,o),
(421,233,o),
(421,192,cs),
(421,145,o),
(367,124,o),
(324,124,cs),
(262,124,o),
(208,160,o),
(194,215,c),
(39,159,l),
(77,63,o),
(162,2,o),
(279,-10,c),
(249,-59,ls),
(240,-75,o),
(250,-96,o),
(274,-90,cs),
(283,-87,o),
(293,-85,o),
(300,-85,cs),
(322,-85,o),
(338,-94,o),
(338,-111,cs),
(338,-131,o),
(317,-136,o),
(295,-136,cs),
(269,-136,o),
(242,-129,o),
(233,-124,c),
(217,-176,l),
(240,-183,o),
(272,-188,o),
(305,-188,cs)
);
}
);
width = 632;
}
);
metricLeft = S;
metricRight = S;
unicode = 350;
},
{
glyphname = Germandbls;
kernLeft = H;
kernRight = Germandbls;
lastChange = "2024-11-01 12:01:51 +0000";
layers = (
{
guides = (
{
angle = 200.6744;
pos = (71,30);
}
);
layerId = "451A0C9A-5D2B-4982-995B-41594B80AF49";
shapes = (
{
closed = 1;
nodes = (
(510,-12,o),
(595,49,o),
(595,169,cs),
(595,287,o),
(507,361,o),
(405,346,c),
(575,595,l),
(575,645,l),
(492,665,o),
(409,680,o),
(335,680,cs),
(190,680,o),
(81,624,o),
(81,447,cs),
(81,0,l),
(137,0,l),
(137,447,ls),
(137,593,o),
(210,632,o),
(335,632,cs),
(392,632,o),
(456,623,o),
(524,608,c),
(342,341,l),
(372,291,l),
(384,296,o),
(401,300,o),
(421,300,cs),
(481,300,o),
(540,260,o),
(540,170,cs),
(540,85,o),
(486,38,o),
(420,38,cs),
(350,38,o),
(318,70,o),
(306,119,c),
(256,100,l),
(274,41,o),
(320,-12,o),
(420,-12,cs)
);
}
);
width = 632;
},
{
layerId = "EAC7C082-8AF0-48CD-AF1D-A26CC3CBE6D4";
shapes = (
{
closed = 1;
nodes = (
(520,-12,o),
(617,68,o),
(617,193,cs),
(617,285,o),
(557,353,o),
(471,372,c),
(587,516,l),
(587,656,l),
(496,674,o),
(404,680,o),
(334,680,cs),
(111,680,o),
(40,592,o),
(40,448,cs),
(40,0,l),
(210,0,l),
(210,410,ls),
(210,500,o),
(258,550,o),
(371,550,cs),
(392,550,o),
(419,548,o),
(448,544,c),
(303,363,l),
(361,265,l),
(370,269,o),
(385,273,o),
(401,273,cs),
(434,273,o),
(461,248,o),
(461,197,cs),
(461,144,o),
(442,120,o),
(414,120,cs),
(391,120,o),
(375,133,o),
(367,159,c),
(241,112,l),
(266,48,o),
(317,-12,o),
(422,-12,cs)
);
}
);
width = 632;
}
);
unicode = 7838;
},
{
glyphname = T;
kernLeft = T;
kernRight = T;
lastChange = "2024-11-01 12:01:51 +0000";
layers = (
{
anchors = (
{
name = bottom;
pos = (316,0);
},
{
name = center;
pos = (316,334);
},
{
name = top;
pos = (316,668);
}
);
guides = (
{
angle = 270;
pos = (288,310);
},
{
angle = 90;
pos = (344,310);
},
{
angle = 90;
pos = (316,310);
}
);
layerId = "451A0C9A-5D2B-4982-995B-41594B80AF49";
shapes = (
{
closed = 1;
nodes = (
(344,0,l),
(344,620,l),
(569,620,l),
(569,668,l),
(63,668,l),
(63,620,l),
(288,620,l),
(288,0,l)
);
}
);
width = 632;
},
{
anchors = (
{
name = bottom;
pos = (316,0);
},
{
name = center;
pos = (316,334);
},
{
name = top;
pos = (316,668);
}
);
layerId = "EAC7C082-8AF0-48CD-AF1D-A26CC3CBE6D4";
name = "AHL Variable 05 Mono ExtraBold Mono";
shapes = (
{
closed = 1;
nodes = (
(401,0,l),
(401,518,l),
(583,518,l),
(583,668,l),
(49,668,l),
(49,518,l),
(231,518,l),
(231,0,l)
);
}
);
width = 632;
}
);
unicode = 84;
},
{
glyphname = Tcedilla;
kernLeft = T;
kernRight = T;
lastChange = "2024-11-01 12:01:51 +0000";
layers = (
{
anchors = (
{
name = center;
pos = (316,334);
},
{
name = top;
pos = (316,668);
}
);
layerId = "451A0C9A-5D2B-4982-995B-41594B80AF49";
shapes = (
{
closed = 1;
nodes = (
(297,0,l),
(263,-55,ls),
(254,-69,o),
(257,-83,o),
(272,-83,cs),
(282,-83,o),
(299,-77,o),
(314,-77,cs),
(344,-77,o),
(355,-89,o),
(355,-107,cs),
(355,-121,o),
(344,-145,o),
(307,-145,cs),
(287,-145,o),
(270,-142,o),
(242,-128,c),
(228,-153,l),
(251,-167,o),
(284,-177,o),
(309,-177,cs),
(371,-177,o),
(397,-130,o),
(397,-99,cs),
(397,-71,o),
(376,-44,o),
(335,-44,cs),
(329,-44,o),
(317,-45,o),
(304,-48,c),
(335,0,l),
(344,0,l),
(344,620,l),
(569,620,l),
(569,668,l),
(63,668,l),
(63,620,l),
(288,620,l),
(288,0,l)
);
}
);
width = 632;
},
{
anchors = (
{
name = center;
pos = (316,334);
},
{
name = top;
pos = (316,668);
}
);
layerId = "EAC7C082-8AF0-48CD-AF1D-A26CC3CBE6D4";
shapes = (
{
closed = 1;
nodes = (
(288,0,l),
(251,-59,ls),
(242,-75,o),
(252,-96,o),
(276,-90,cs),
(285,-87,o),
(295,-85,o),
(302,-85,cs),
(324,-85,o),
(340,-94,o),
(340,-111,cs),
(340,-131,o),
(319,-136,o),
(297,-136,cs),
(271,-136,o),
(244,-129,o),
(235,-124,c),
(219,-176,l),
(242,-183,o),
(274,-188,o),
(307,-188,cs),
(371,-188,o),
(440,-170,o),
(440,-108,cs),
(440,-59,o),
(387,-46,o),
(350,-46,cs),
(335,-46,o),
(324,-47,o),
(316,-49,c),
(347,0,l),
(401,0,l),
(401,518,l),
(583,518,l),
(583,668,l),
(49,668,l),
(49,518,l),
(231,518,l),
(231,0,l)
);
}
);
width = 632;
}
);
unicode = 354;
},
{
color = 6;
glyphname = Tcommaaccent;
kernLeft = T;
kernRight = T;
lastChange = "2024-11-01 11:55:55 +0000";
layers = (
{
layerId = "451A0C9A-5D2B-4982-995B-41594B80AF49";
shapes = (
{
ref = T;
},
{
pos = (-12,0);
ref = commaaccentcomb;
}
);
width = 632;
},
{
background = {
shapes = (
{
closed = 1;
nodes = (
(401,0,l),
(401,518,l),
(614,518,l),
(614,668,l),
(18,668,l),
(18,518,l),
(231,518,l),
(231,0,l)
);
},
{
closed = 1;
nodes = (
(364,-251,o),
(426,-202,o),
(426,-141,cs),
(426,-104,o),
(403,-69,o),
(337,-43,c),
(227,-86,l),
(265,-94,o),
(298,-116,o),
(298,-145,cs),
(298,-179,o),
(264,-204,o),
(195,-204,c),
(249,-251,l)
);
}
);
};
layerId = "EAC7C082-8AF0-48CD-AF1D-A26CC3CBE6D4";
shapes = (
{
ref = T;
},
{
pos = (-11,0);
ref = commaaccentcomb;
}
);
width = 632;
}
);
unicode = 538;
},
{
glyphname = U;
kernLeft = U;
kernRight = U;
lastChange = "2024-11-01 12:01:51 +0000";
layers = (
{
anchors = (
{
name = top;
pos = (316,668);
},
{
name = topright;
pos = (646,668);
}
);
layerId = "451A0C9A-5D2B-4982-995B-41594B80AF49";
shapes = (
{
closed = 1;
nodes = (
(477,-12,o),
(547,74,o),
(547,244,cs),
(547,668,l),
(491,668,l),
(491,240,ls),
(491,105,o),
(437,36,o),
(315,36,cs),
(194,36,o),
(141,105,o),
(141,240,cs),
(141,668,l),
(85,668,l),
(85,244,ls),
(85,74,o),
(154,-12,o),
(315,-12,cs)
);
}
);
width = 632;
},
{
anchors = (
{
name = top;
pos = (316,668);
},
{
name = topright;
pos = (625,668);
}
);
layerId = "EAC7C082-8AF0-48CD-AF1D-A26CC3CBE6D4";
name = "AHL Variable 05 Mono ExtraBold Mono";
shapes = (
{
closed = 1;
nodes = (
(507,-12,o),
(581,77,o),
(581,266,cs),
(581,668,l),
(411,668,l),
(411,243,ls),
(411,173,o),
(397,126,o),
(318,126,cs),
(239,126,o),
(221,173,o),
(221,243,cs),
(221,668,l),
(51,668,l),
(51,266,ls),
(51,77,o),
(124,-12,o),
(317,-12,cs)
);
}
);
width = 632;
}
);
unicode = 85;
},
{
glyphname = Uogonek;
kernLeft = U;
kernRight = U;
lastChange = "2024-11-01 12:01:51 +0000";
layers = (
{
anchors = (
{
name = top;
pos = (316,668);
},
{
name = topright;
pos = (646,668);
}
);
layerId = "451A0C9A-5D2B-4982-995B-41594B80AF49";
shapes = (
{
closed = 1;
nodes = (
(441,-168,o),
(453,-167,o),
(473,-159,c),
(473,-120,l),
(464,-125,o),
(453,-127,o),
(442,-127,cs),
(415,-127,o),
(388,-112,o),
(388,-78,cs),
(388,-43,o),
(406,-9,o),
(445,14,cs),
(516,55,o),
(547,130,o),
(547,244,cs),
(547,668,l),
(491,668,l),
(491,240,ls),
(491,105,o),
(437,36,o),
(315,36,cs),
(194,36,o),
(141,105,o),
(141,240,cs),
(141,668,l),
(85,668,l),
(85,241,ls),
(85,-21,o),
(264,-23,o),
(381,-6,c),
(358,-31,o),
(343,-62,o),
(343,-94,cs),
(343,-140,o),
(378,-168,o),
(425,-168,cs)
);
}
);
width = 632;
},
{
anchors = (
{
name = top;
pos = (316,668);
},
{
name = topright;
pos = (625,668);
}
);
layerId = "EAC7C082-8AF0-48CD-AF1D-A26CC3CBE6D4";
shapes = (
{
closed = 1;
nodes = (
(463,-176,o),
(505,-171,o),
(519,-166,c),
(519,-86,l),
(503,-91,o),
(485,-95,o),
(468,-95,cs),
(443,-95,o),
(422,-84,o),
(422,-56,cs),
(422,-24,o),
(447,3,o),
(476,21,cs),
(549,65,o),
(581,143,o),
(581,266,cs),
(581,668,l),
(411,668,l),
(411,243,ls),
(411,173,o),
(397,126,o),
(318,126,cs),
(239,126,o),
(221,173,o),
(221,243,cs),
(221,668,l),
(51,668,l),
(51,266,ls),
(51,67,o),
(135,-12,o),
(315,-12,c),
(297,-30,o),
(286,-53,o),
(286,-81,cs),
(286,-122,o),
(316,-176,o),
(437,-176,cs)
);
}
);
width = 632;
}
);
metricLeft = U;
metricRight = U;
unicode = 370;
},
{
glyphname = V;
kernLeft = V;
kernRight = V;
lastChange = "2024-11-01 12:01:51 +0000";
layers = (
{
anchors = (
{
name = bottom;
pos = (317,0);
},
{
name = top;
pos = (317,668);
}
);
layerId = "451A0C9A-5D2B-4982-995B-41594B80AF49";
shapes = (
{
closed = 1;
nodes = (
(345,0,l),
(583,668,l),
(526,668,l),
(318,68,l),
(314,68,l),
(107,668,l),
(49,668,l),
(286,0,l)
);
}
);
width = 632;
},
{
anchors = (
{
name = bottom;
pos = (316,0);
},
{
name = top;
pos = (316,668);
}
);
layerId = "EAC7C082-8AF0-48CD-AF1D-A26CC3CBE6D4";
name = "AHL Variable 05 Mono ExtraBold Mono";
shapes = (
{
closed = 1;
nodes = (
(406,0,l),
(601,668,l),
(446,668,l),
(323,173,l),
(319,173,l),
(196,668,l),
(31,668,l),
(226,0,l)
);
}
);
width = 632;
}
);
unicode = 86;
},
{
glyphname = W;
kernLeft = W;
kernRight = W;
lastChange = "2024-11-01 12:01:51 +0000";
layers = (
{
anchors = (
{
name = bottom;
pos = (318,0);
},
{
name = top;
pos = (318,668);
}
);
layerId = "451A0C9A-5D2B-4982-995B-41594B80AF49";
shapes = (
{
closed = 1;
nodes = (
(209,0,l),
(315,566,l),
(319,566,l),
(424,0,l),
(495,0,l),
(620,668,l),
(565,668,l),
(462,75,l),
(458,75,l),
(349,668,l),
(287,668,l),
(176,75,l),
(172,75,l),
(69,668,l),
(13,668,l),
(138,0,l)
);
}
);
width = 632;
},
{
anchors = (
{
name = bottom;
pos = (317,0);
},
{
name = top;
pos = (316,668);
}
);
layerId = "EAC7C082-8AF0-48CD-AF1D-A26CC3CBE6D4";
shapes = (
{
closed = 1;
nodes = (
(258,0,l),
(314,468,l),
(318,468,l),
(375,0,l),
(522,0,l),
(625,668,l),
(496,668,l),
(450,210,l),
(446,210,l),
(388,668,l),
(244,668,l),
(187,210,l),
(183,210,l),
(136,668,l),
(7,668,l),
(111,0,l)
);
}
);
width = 632;
}
);
unicode = 87;
},
{
glyphname = X;
kernLeft = X;
kernRight = X;
lastChange = "2024-11-01 12:01:51 +0000";
layers = (
{
anchors = (
{
name = bottom;
pos = (316,0);
},
{
name = top;
pos = (316,668);
}
);
layerId = "451A0C9A-5D2B-4982-995B-41594B80AF49";
shapes = (
{
closed = 1;
nodes = (
(102,0,l),
(314,301,l),
(318,301,l),
(530,0,l),
(597,0,l),
(352,345,l),
(583,668,l),
(515,668,l),
(317,388,l),
(313,388,l),
(115,668,l),
(49,668,l),
(280,345,l),
(35,0,l)
);
}
);
width = 632;
},
{
anchors = (
{
name = bottom;
pos = (317,0);
},
{
name = top;
pos = (317,668);
}
);
layerId = "EAC7C082-8AF0-48CD-AF1D-A26CC3CBE6D4";
shapes = (
{
closed = 1;
nodes = (
(193,0,l),
(314,203,l),
(318,203,l),
(440,0,l),
(616,0,l),
(404,343,l),
(604,668,l),
(428,668,l),
(318,485,l),
(314,485,l),
(205,668,l),
(29,668,l),
(229,343,l),
(17,0,l)
);
}
);
width = 632;
}
);
unicode = 88;
},
{
glyphname = Y;
kernLeft = Y;
kernRight = Y;
lastChange = "2024-11-01 12:01:51 +0000";
layers = (
{
anchors = (
{
name = bottom;
pos = (317,0);
},
{
name = top;
pos = (317,668);
},
{
name = topleft;
pos = (63,668);
}
);
guides = (
{
angle = 90;
pos = (317,564);
}
);
layerId = "451A0C9A-5D2B-4982-995B-41594B80AF49";
shapes = (
{
closed = 1;
nodes = (
(345,0,l),
(345,268,l),
(596,668,l),
(530,668,l),
(319,327,l),
(315,327,l),
(102,668,l),
(36,668,l),
(289,268,l),
(289,0,l)
);
}
);
width = 632;
},
{
anchors = (
{
name = bottom;
pos = (317,0);
},
{
name = top;
pos = (315,668);
},
{
name = topleft;
pos = (15,668);
}
);
guides = (
{
angle = 90;
pos = (315,284);
}
);
layerId = "EAC7C082-8AF0-48CD-AF1D-A26CC3CBE6D4";
shapes = (
{
closed = 1;
nodes = (
(393,0,l),
(393,262,l),
(626,668,l),
(447,668,l),
(319,423,l),
(315,423,l),
(188,668,l),
(6,668,l),
(238,262,l),
(238,0,l)
);
}
);
width = 632;
},
{
anchors = (
{
name = bottom;
pos = (317,0);
},
{
name = top;
pos = (316,668);
},
{
name = topleft;
pos = (38,668);
}
);
associatedMasterId = "EAC7C082-8AF0-48CD-AF1D-A26CC3CBE6D4";
background = {
guides = (
{
angle = 90;
pos = (315,284);
}
);
shapes = (
{
closed = 1;
nodes = (
(370,0,l),
(370,265,l),
(612,668,l),
(486,668,l),
(319,378,l),
(315,378,l),
(147,668,l),
(20,668,l),
(262,265,l),
(262,0,l)
);
}
);
};
guides = (
{
angle = 90;
pos = (315,284);
}
);
layerId = "4866032A-1154-47AE-A06A-202EDE857B3C";
name = "18 Apr 24 at 16:00";
shapes = (
{
closed = 1;
nodes = (
(374,0,l),
(374,265,l),
(616,668,l),
(482,668,l),
(319,378,l),
(315,378,l),
(151,668,l),
(16,668,l),
(258,265,l),
(258,0,l)
);
}
);
width = 632;
}
);
unicode = 89;
},
{
glyphname = Z;
kernLeft = Z;
kernRight = Z;
lastChange = "2024-11-13 10:48:43 +0000";
layers = (
{
anchors = (
{
name = bottom;
pos = (316,0);
},
{
name = center;
pos = (316,334);
},
{
name = top;
pos = (320,668);
}
);
layerId = "451A0C9A-5D2B-4982-995B-41594B80AF49";
shapes = (
{
closed = 1;
nodes = (
(577,0,l),
(577,50,l),
(115,50,l),
(562,608,l),
(562,668,l),
(69,668,l),
(69,618,l),
(501,618,l),
(54,60,l),
(54,0,l)
);
}
);
width = 632;
},
{
anchors = (
{
name = bottom;
pos = (317,0);
},
{
name = center;
pos = (317,334);
},
{
name = top;
pos = (317,668);
}
);
layerId = "EAC7C082-8AF0-48CD-AF1D-A26CC3CBE6D4";
shapes = (
{
closed = 1;
nodes = (
(586,0,l),
(586,150,l),
(267,150,l),
(571,540,l),
(571,668,l),
(63,668,l),
(63,518,l),
(356,518,l),
(48,128,l),
(48,0,l)
);
}
);
width = 632;
}
);
unicode = 90;
},
{
glyphname = a;
kernLeft = a;
kernRight = a;
lastChange = "2024-11-01 12:01:51 +0000";
layers = (
{
anchors = (
{
name = bottom;
pos = (310,0);
},
{
name = ogonek;
pos = (515,10);
},
{
name = top;
pos = (310,496);
}
);
layerId = "451A0C9A-5D2B-4982-995B-41594B80AF49";
name = "AHL Variable 05 Mono Light Mono";
shapes = (
{
closed = 1;
nodes = (
(375,-12,o),
(430,35,o),
(451,81,c),
(471,0,l),
(515,0,l),
(505,44,o),
(497,100,o),
(497,194,cs),
(497,314,ls),
(497,439,o),
(440,506,o),
(309,506,cs),
(218,506,o),
(145,465,o),
(119,385,c),
(175,372,l),
(187,422,o),
(232,460,o),
(310,460,cs),
(406,460,o),
(444,405,o),
(444,318,cs),
(444,308,l),
(205,291,o),
(88,242,o),
(88,122,cs),
(88,35,o),
(161,-12,o),
(266,-12,cs)
);
},
{
closed = 1;
nodes = (
(189,35,o),
(143,71,o),
(143,125,cs),
(143,211,o),
(241,249,o),
(444,263,c),
(444,195,ls),
(444,78,o),
(366,35,o),
(269,35,cs)
);
}
);
width = 632;
},
{
anchors = (
{
name = bottom;
pos = (316,0);
},
{
name = ogonek;
pos = (565,10);
},
{
name = top;
pos = (316,496);
}
);
layerId = "EAC7C082-8AF0-48CD-AF1D-A26CC3CBE6D4";
name = "AHL Variable 05 Mono ExtraBold Mono";
shapes = (
{
closed = 1;
nodes = (
(297,-12,o),
(358,4,o),
(396,59,c),
(414,0,l),
(565,0,l),
(554,38,o),
(547,114,o),
(547,185,cs),
(547,312,ls),
(547,450,o),
(461,511,o),
(315,511,cs),
(198,511,o),
(117,459,o),
(84,394,c),
(220,346,l),
(230,379,o),
(265,403,o),
(306,403,cs),
(360,403,o),
(392,381,o),
(392,328,cs),
(392,314,l),
(177,303,o),
(56,254,o),
(56,134,cs),
(56,45,o),
(129,-12,o),
(228,-12,cs)
);
},
{
closed = 1;
nodes = (
(251,95,o),
(224,117,o),
(224,148,cs),
(224,193,o),
(282,213,o),
(392,220,c),
(392,204,ls),
(392,121,o),
(352,95,o),
(289,95,cs)
);
}
);
width = 632;
}
);
unicode = 97;
},
{
glyphname = aogonek;
kernLeft = a;
kernRight = a;
lastChange = "2024-11-01 12:01:51 +0000";
layers = (
{
anchors = (
{
name = top;
pos = (310,496);
}
);
layerId = "451A0C9A-5D2B-4982-995B-41594B80AF49";
shapes = (
{
closed = 1;
nodes = (
(483,-168,o),
(495,-167,o),
(515,-159,c),
(515,-120,l),
(506,-124,o),
(494,-127,o),
(481,-127,cs),
(453,-127,o),
(430,-114,o),
(430,-84,cs),
(430,-50,o),
(462,-17,o),
(515,0,c),
(505,44,o),
(497,100,o),
(497,194,cs),
(497,314,ls),
(497,439,o),
(440,506,o),
(309,506,cs),
(218,506,o),
(145,465,o),
(119,385,c),
(175,372,l),
(187,422,o),
(232,460,o),
(310,460,cs),
(406,460,o),
(444,405,o),
(444,318,cs),
(444,308,l),
(205,291,o),
(88,242,o),
(88,122,cs),
(88,35,o),
(161,-12,o),
(266,-12,cs),
(375,-12,o),
(430,35,o),
(451,81,c),
(468,11,l),
(413,-16,o),
(385,-48,o),
(385,-94,cs),
(385,-140,o),
(420,-168,o),
(467,-168,cs)
);
},
{
closed = 1;
nodes = (
(189,35,o),
(143,71,o),
(143,125,cs),
(143,211,o),
(241,249,o),
(444,263,c),
(444,195,ls),
(444,78,o),
(366,35,o),
(269,35,cs)
);
}
);
width = 632;
},
{
anchors = (
{
name = top;
pos = (316,496);
}
);
layerId = "EAC7C082-8AF0-48CD-AF1D-A26CC3CBE6D4";
shapes = (
{
closed = 1;
nodes = (
(509,-176,o),
(551,-171,o),
(565,-167,c),
(565,-86,l),
(552,-90,o),
(532,-95,o),
(514,-95,cs),
(493,-95,o),
(468,-88,o),
(468,-65,cs),
(468,-41,o),
(496,-13,o),
(565,0,c),
(554,38,o),
(547,114,o),
(547,185,cs),
(547,312,ls),
(547,450,o),
(461,511,o),
(315,511,cs),
(198,511,o),
(117,459,o),
(84,394,c),
(220,346,l),
(230,379,o),
(265,403,o),
(306,403,cs),
(360,403,o),
(392,381,o),
(392,328,cs),
(392,314,l),
(177,303,o),
(56,254,o),
(56,134,cs),
(56,45,o),
(129,-12,o),
(228,-12,cs),
(297,-12,o),
(358,4,o),
(396,59,c),
(411,11,l),
(373,-7,o),
(332,-33,o),
(332,-84,cs),
(332,-121,o),
(362,-176,o),
(483,-176,cs)
);
},
{
closed = 1;
nodes = (
(251,95,o),
(224,117,o),
(224,148,cs),
(224,193,o),
(282,213,o),
(392,220,c),
(392,204,ls),
(392,121,o),
(352,95,o),
(289,95,cs)
);
}
);
width = 632;
}
);
metricLeft = a;
metricRight = a;
unicode = 261;
},
{
glyphname = ae;
kernLeft = a;
kernRight = e;
lastChange = "2024-11-01 12:01:51 +0000";
layers = (
{
anchors = (
{
name = bottom;
pos = (315,0);
},
{
name = top;
pos = (315,496);
}
);
guides = (
{
angle = 160.6155;
pos = (492,120);
}
);
layerId = "451A0C9A-5D2B-4982-995B-41594B80AF49";
shapes = (
{
closed = 1;
nodes = (
(224,-12,o),
(270,26,o),
(297,100,c),
(325,32,o),
(376,-12,o),
(452,-12,cs),
(531,-12,o),
(571,33,o),
(598,83,c),
(553,99,l),
(527,54,o),
(501,32,o),
(457,32,cs),
(401,32,o),
(317,79,o),
(318,244,c),
(617,244,l),
(626,373,o),
(573,506,o),
(449,506,cs),
(388,506,o),
(338,469,o),
(307,405,c),
(289,470,o),
(246,506,o),
(178,506,cs),
(113,506,o),
(58,465,o),
(32,385,c),
(84,373,l),
(96,424,o),
(125,464,o),
(177,464,cs),
(244,464,o),
(270,406,o),
(270,318,cs),
(270,286,l),
(67,271,o),
(10,213,o),
(10,117,cs),
(10,36,o),
(66,-12,o),
(147,-12,cs)
);
},
{
closed = 1;
nodes = (
(93,30,o),
(61,68,o),
(61,118,cs),
(61,187,o),
(102,233,o),
(270,244,c),
(270,195,ls),
(270,72,o),
(215,30,o),
(150,30,cs)
);
},
{
closed = 1;
nodes = (
(333,416,o),
(388,462,o),
(447,462,cs),
(534,462,o),
(564,365,o),
(564,286,c),
(320,286,l)
);
}
);
width = 632;
},
{
anchors = (
{
name = bottom;
pos = (315,0);
},
{
name = top;
pos = (315,496);
}
);
layerId = "EAC7C082-8AF0-48CD-AF1D-A26CC3CBE6D4";
shapes = (
{
closed = 1;
nodes = (
(222,-12,o),
(265,20,o),
(290,65,c),
(321,15,o),
(369,-12,o),
(435,-12,cs),
(495,-12,o),
(560,24,o),
(602,104,c),
(506,140,l),
(494,113,o),
(469,95,o),
(437,95,cs),
(390,95,o),
(361,136,o),
(354,207,c),
(620,207,l),
(629,388,o),
(565,511,o),
(445,511,cs),
(391,511,o),
(351,490,o),
(324,452,c),
(299,494,o),
(260,511,o),
(204,511,cs),
(118,511,o),
(62,460,o),
(38,396,c),
(135,346,l),
(144,384,o),
(167,401,o),
(196,401,cs),
(230,401,o),
(251,382,o),
(251,328,cs),
(251,297,l),
(93,291,o),
(16,243,o),
(16,135,cs),
(16,45,o),
(73,-12,o),
(155,-12,cs)
);
},
{
closed = 1;
nodes = (
(150,95,o),
(131,115,o),
(131,145,cs),
(131,186,o),
(159,203,o),
(251,207,c),
(251,202,ls),
(250,122,o),
(222,95,o),
(180,95,cs)
);
},
{
closed = 1;
nodes = (
(364,367,o),
(393,399,o),
(432,399,cs),
(472,399,o),
(497,366,o),
(498,297,c),
(355,297,l)
);
}
);
width = 632;
}
);
unicode = 230;
},
{
glyphname = b;
kernLeft = h;
kernRight = o;
lastChange = "2024-11-06 13:42:29 +0000";
layers = (
{
anchors = (
{
name = bottom;
pos = (304,0);
},
{
name = center;
pos = (304,248);
},
{
name = top;
pos = (304,496);
}
);
layerId = "451A0C9A-5D2B-4982-995B-41594B80AF49";
name = "AHL Variable 05 Mono Light Mono";
shapes = (
{
closed = 1;
nodes = (
(477,-12,o),
(573,83,o),
(573,247,cs),
(573,411,o),
(477,506,o),
(339,506,cs),
(253,506,o),
(189,464,o),
(154,405,c),
(154,708,l),
(100,708,l),
(100,0,l),
(140,0,l),
(153,85,l),
(186,33,o),
(249,-12,o),
(339,-12,cs)
);
},
{
closed = 1;
nodes = (
(225,36,o),
(154,118,o),
(154,247,cs),
(154,377,o),
(225,458,o),
(334,458,cs),
(445,458,o),
(518,382,o),
(518,247,cs),
(518,112,o),
(445,36,o),
(334,36,cs)
);
}
);
width = 632;
},
{
anchors = (
{
name = bottom;
pos = (315,0);
},
{
name = center;
pos = (315,248);
},
{
name = top;
pos = (315,496);
}
);
layerId = "EAC7C082-8AF0-48CD-AF1D-A26CC3CBE6D4";
name = "AHL Variable 05 Mono ExtraBold Mono";
shapes = (
{
closed = 1;
nodes = (
(505,-12,o),
(594,91,o),
(594,253,cs),
(594,415,o),
(505,511,o),
(374,511,cs),
(326,511,o),
(258,485,o),
(225,430,c),
(225,708,l),
(60,708,l),
(60,0,l),
(207,0,l),
(225,66,l),
(258,10,o),
(326,-12,o),
(374,-12,cs)
);
},
{
closed = 1;
nodes = (
(266,115,o),
(217,149,o),
(217,250,cs),
(217,347,o),
(266,385,o),
(321,385,cs),
(376,385,o),
(424,339,o),
(424,253,cs),
(424,166,o),
(376,115,o),
(321,115,cs)
);
}
);
width = 632;
}
);
unicode = 98;
},
{
glyphname = c;
kernLeft = o;
kernRight = c;
lastChange = "2024-11-01 12:01:51 +0000";
layers = (
{
anchors = (
{
name = bottom;
pos = (344,0);
},
{
name = top;
pos = (346,496);
}
);
layerId = "451A0C9A-5D2B-4982-995B-41594B80AF49";
shapes = (
{
closed = 1;
nodes = (
(450,-12,o),
(518,44,o),
(547,94,c),
(496,113,l),
(471,66,o),
(412,36,o),
(343,36,cs),
(245,36,o),
(156,103,o),
(156,245,cs),
(156,391,o),
(247,458,o),
(346,458,cs),
(413,458,o),
(466,429,o),
(493,379,c),
(542,398,l),
(505,462,o),
(440,506,o),
(349,506,cs),
(191,506,o),
(101,387,o),
(101,243,cs),
(101,97,o),
(200,-12,o),
(343,-12,cs)
);
}
);
width = 632;
},
{
anchors = (
{
name = bottom;
pos = (341,0);
},
{
name = top;
pos = (351,496);
}
);
layerId = "EAC7C082-8AF0-48CD-AF1D-A26CC3CBE6D4";
shapes = (
{
closed = 1;
nodes = (
(441,-12,o),
(534,30,o),
(578,110,c),
(446,158,l),
(429,130,o),
(393,114,o),
(351,114,cs),
(298,114,o),
(238,147,o),
(238,251,cs),
(238,351,o),
(297,385,o),
(351,385,cs),
(397,385,o),
(430,366,o),
(445,328,c),
(581,378,l),
(538,470,o),
(444,511,o),
(338,511,cs),
(184,511,o),
(70,409,o),
(70,252,cs),
(70,94,o),
(160,-12,o),
(340,-12,cs)
);
}
);
width = 632;
}
);
unicode = 99;
},
{
glyphname = ccedilla;
kernLeft = o;
kernRight = c;
lastChange = "2024-11-01 12:01:51 +0000";
layers = (
{
anchors = (
{
name = top;
pos = (346,496);
}
);
layerId = "451A0C9A-5D2B-4982-995B-41594B80AF49";
shapes = (
{
closed = 1;
nodes = (
(397,-177,o),
(423,-130,o),
(423,-99,cs),
(423,-71,o),
(402,-44,o),
(361,-44,cs),
(355,-44,o),
(343,-45,o),
(330,-48,c),
(353,-12,l),
(454,-8,o),
(519,46,o),
(547,94,c),
(496,113,l),
(471,66,o),
(412,36,o),
(343,36,cs),
(245,36,o),
(156,103,o),
(156,245,cs),
(156,391,o),
(247,458,o),
(346,458,cs),
(413,458,o),
(466,429,o),
(493,379,c),
(542,398,l),
(505,462,o),
(440,506,o),
(349,506,cs),
(191,506,o),
(101,387,o),
(101,243,cs),
(101,106,o),
(188,2,o),
(316,-11,c),
(289,-55,ls),
(280,-69,o),
(283,-83,o),
(298,-83,cs),
(308,-83,o),
(325,-77,o),
(340,-77,cs),
(370,-77,o),
(381,-89,o),
(381,-107,cs),
(381,-121,o),
(370,-145,o),
(333,-145,cs),
(313,-145,o),
(296,-142,o),
(268,-128,c),
(254,-153,l),
(277,-167,o),
(310,-177,o),
(335,-177,cs)
);
}
);
width = 632;
},
{
anchors = (
{
name = top;
pos = (351,496);
}
);
layerId = "EAC7C082-8AF0-48CD-AF1D-A26CC3CBE6D4";
shapes = (
{
closed = 1;
nodes = (
(394,-188,o),
(463,-170,o),
(463,-108,cs),
(463,-59,o),
(410,-46,o),
(373,-46,cs),
(358,-46,o),
(347,-47,o),
(339,-49,c),
(363,-11,l),
(455,-5,o),
(537,36,o),
(578,110,c),
(446,158,l),
(429,130,o),
(393,114,o),
(351,114,cs),
(298,114,o),
(238,147,o),
(238,251,cs),
(238,351,o),
(297,385,o),
(351,385,cs),
(397,385,o),
(430,366,o),
(445,328,c),
(581,378,l),
(538,470,o),
(444,511,o),
(338,511,cs),
(184,511,o),
(70,409,o),
(70,252,cs),
(70,105,o),
(148,3,o),
(304,-11,c),
(274,-59,ls),
(265,-75,o),
(275,-96,o),
(299,-90,cs),
(308,-87,o),
(318,-85,o),
(325,-85,cs),
(347,-85,o),
(363,-94,o),
(363,-111,cs),
(363,-131,o),
(342,-136,o),
(320,-136,cs),
(294,-136,o),
(267,-129,o),
(258,-124,c),
(242,-176,l),
(265,-183,o),
(297,-188,o),
(330,-188,cs)
);
}
);
width = 632;
}
);
unicode = 231;
},
{
glyphname = d;
kernLeft = o;
kernRight = d;
lastChange = "2024-11-01 12:01:51 +0000";
layers = (
{
anchors = (
{
name = bottom;
pos = (329,0);
},
{
name = center;
pos = (453,581);
},
{
name = top;
pos = (329,796);
},
{
name = topright;
pos = (567,498);
}
);
layerId = "451A0C9A-5D2B-4982-995B-41594B80AF49";
shapes = (
{
closed = 1;
nodes = (
(382,-12,o),
(442,31,o),
(476,84,c),
(499,0,l),
(549,0,l),
(531,94,o),
(532,159,o),
(532,183,cs),
(532,708,l),
(478,708,l),
(478,406,l),
(444,463,o),
(382,506,o),
(293,506,cs),
(155,506,o),
(59,411,o),
(59,247,cs),
(59,83,o),
(155,-12,o),
(293,-12,cs)
);
},
{
closed = 1;
nodes = (
(187,36,o),
(114,112,o),
(114,247,cs),
(114,382,o),
(187,458,o),
(298,458,cs),
(407,458,o),
(478,376,o),
(478,247,cs),
(478,118,o),
(407,36,o),
(298,36,cs)
);
}
);
width = 632;
},
{
anchors = (
{
name = bottom;
pos = (317,0);
},
{
name = center;
pos = (460,584);
},
{
name = top;
pos = (317,796);
},
{
name = topright;
pos = (579,496);
}
);
layerId = "EAC7C082-8AF0-48CD-AF1D-A26CC3CBE6D4";
shapes = (
{
closed = 1;
nodes = (
(307,-12,o),
(367,8,o),
(412,63,c),
(431,0,l),
(589,0,l),
(575,70,o),
(572,142,o),
(572,195,cs),
(572,708,l),
(407,708,l),
(407,430,l),
(374,486,o),
(307,511,o),
(258,511,cs),
(128,511,o),
(38,415,o),
(38,253,cs),
(38,92,o),
(127,-12,o),
(258,-12,cs)
);
},
{
closed = 1;
nodes = (
(256,115,o),
(208,166,o),
(208,253,cs),
(208,340,o),
(256,385,o),
(312,385,cs),
(366,385,o),
(415,348,o),
(415,250,cs),
(415,149,o),
(366,115,o),
(312,115,cs)
);
}
);
width = 632;
}
);
unicode = 100;
},
{
glyphname = dcaron;
kernLeft = o;
kernRight = dcaron;
lastChange = "2024-11-01 12:01:51 +0000";
layers = (
{
layerId = "451A0C9A-5D2B-4982-995B-41594B80AF49";
shapes = (
{
closed = 1;
nodes = (
(333,-12,o),
(383,31,o),
(417,84,c),
(440,0,l),
(490,0,l),
(472,94,o),
(473,159,o),
(473,183,cs),
(473,708,l),
(419,708,l),
(419,406,l),
(385,463,o),
(333,506,o),
(257,506,cs),
(130,506,o),
(44,411,o),
(44,247,cs),
(44,83,o),
(130,-12,o),
(257,-12,cs)
);
},
{
closed = 1;
nodes = (
(163,36,o),
(99,112,o),
(99,247,cs),
(99,382,o),
(163,458,o),
(262,458,cs),
(358,458,o),
(419,376,o),
(419,247,cs),
(419,118,o),
(358,36,o),
(262,36,cs)
);
},
{
closed = 1;
nodes = (
(553,542,l),
(589,655,ls),
(596,677,o),
(599,687,o),
(599,694,cs),
(599,714,o),
(584,720,o),
(572,720,cs),
(552,720,o),
(546,704,o),
(541,671,cs),
(523,542,l)
);
}
);
width = 632;
},
{
layerId = "EAC7C082-8AF0-48CD-AF1D-A26CC3CBE6D4";
shapes = (
{
closed = 1;
nodes = (
(247,-12,o),
(297,6,o),
(337,54,c),
(351,0,l),
(504,0,l),
(492,70,o),
(489,142,o),
(489,195,cs),
(489,708,l),
(329,708,l),
(329,446,l),
(297,491,o),
(245,511,o),
(204,511,cs),
(86,511,o),
(5,415,o),
(5,253,cs),
(5,92,o),
(85,-12,o),
(204,-12,cs)
);
},
{
closed = 1;
nodes = (
(206,115,o),
(169,166,o),
(169,253,cs),
(169,340,o),
(206,385,o),
(253,385,cs),
(298,385,o),
(337,348,o),
(337,250,cs),
(337,149,o),
(298,115,o),
(253,115,cs)
);
},
{
closed = 1;
nodes = (
(582,524,l),
(616,606,ls),
(626,629,o),
(632,651,o),
(632,670,cs),
(632,698,o),
(619,718,o),
(588,718,cs),
(565,718,o),
(541,702,o),
(534,658,cs),
(513,524,l)
);
}
);
width = 632;
}
);
unicode = 271;
},
{
glyphname = dcroat;
kernLeft = o;
kernRight = d;
lastChange = "2024-11-01 12:01:51 +0000";
layers = (
{
layerId = "451A0C9A-5D2B-4982-995B-41594B80AF49";
shapes = (
{
closed = 1;
nodes = (
(382,-12,o),
(442,31,o),
(476,84,c),
(499,0,l),
(549,0,l),
(531,94,o),
(532,159,o),
(532,183,cs),
(532,561,l),
(597,561,l),
(597,601,l),
(532,601,l),
(532,708,l),
(478,708,l),
(478,601,l),
(309,601,l),
(309,561,l),
(478,561,l),
(478,406,l),
(444,463,o),
(382,506,o),
(293,506,cs),
(155,506,o),
(59,411,o),
(59,247,cs),
(59,83,o),
(155,-12,o),
(293,-12,cs)
);
},
{
closed = 1;
nodes = (
(187,36,o),
(114,112,o),
(114,247,cs),
(114,382,o),
(187,458,o),
(298,458,cs),
(407,458,o),
(478,376,o),
(478,247,cs),
(478,118,o),
(407,36,o),
(298,36,cs)
);
}
);
width = 632;
},
{
layerId = "EAC7C082-8AF0-48CD-AF1D-A26CC3CBE6D4";
shapes = (
{
closed = 1;
nodes = (
(307,-12,o),
(367,8,o),
(412,63,c),
(431,0,l),
(589,0,l),
(575,70,o),
(572,142,o),
(572,195,cs),
(572,544,l),
(627,544,l),
(627,624,l),
(572,624,l),
(572,708,l),
(407,708,l),
(407,624,l),
(271,624,l),
(271,544,l),
(407,544,l),
(407,430,l),
(374,486,o),
(307,511,o),
(258,511,cs),
(128,511,o),
(38,415,o),
(38,253,cs),
(38,92,o),
(127,-12,o),
(258,-12,cs)
);
},
{
closed = 1;
nodes = (
(256,115,o),
(208,166,o),
(208,253,cs),
(208,340,o),
(256,385,o),
(312,385,cs),
(366,385,o),
(415,348,o),
(415,250,cs),
(415,149,o),
(366,115,o),
(312,115,cs)
);
}
);
width = 632;
}
);
metricLeft = d;
unicode = 273;
},
{
glyphname = eth;
kernLeft = o;
kernRight = eth;
lastChange = "2024-11-01 12:01:51 +0000";
layers = (
{
layerId = "451A0C9A-5D2B-4982-995B-41594B80AF49";
shapes = (
{
closed = 1;
nodes = (
(495,-12,o),
(553,147,o),
(553,324,cs),
(553,457,o),
(531,556,o),
(460,630,c),
(497,668,l),
(469,695,l),
(428,655,l),
(372,692,o),
(293,723,o),
(195,715,c),
(195,670,l),
(289,678,o),
(358,644,o),
(393,619,c),
(336,562,l),
(364,535,l),
(425,594,l),
(469,549,o),
(498,480,o),
(505,336,c),
(481,417,o),
(390,464,o),
(299,464,cs),
(183,464,o),
(61,383,o),
(61,226,cs),
(61,68,o),
(185,-12,o),
(303,-12,cs)
);
},
{
closed = 1;
nodes = (
(210,36,o),
(116,99,o),
(116,226,cs),
(116,353,o),
(209,416,o),
(302,416,cs),
(395,416,o),
(489,352,o),
(489,224,cs),
(489,98,o),
(396,36,o),
(303,36,cs)
);
}
);
width = 632;
},
{
layerId = "EAC7C082-8AF0-48CD-AF1D-A26CC3CBE6D4";
shapes = (
{
closed = 1;
nodes = (
(500,-12,o),
(584,131,o),
(584,321,cs),
(584,477,o),
(524,593,o),
(452,646,c),
(501,694,l),
(451,744,l),
(393,686,l),
(340,717,o),
(273,735,o),
(184,735,c),
(184,604,l),
(224,604,o),
(261,597,o),
(292,584,c),
(242,535,l),
(292,485,l),
(353,547,l),
(391,514,o),
(413,468,o),
(413,413,c),
(378,438,o),
(339,453,o),
(286,453,cs),
(156,453,o),
(45,356,o),
(45,220,cs),
(45,75,o),
(155,-12,o),
(302,-12,cs)
);
},
{
closed = 1;
nodes = (
(251,109,o),
(215,153,o),
(215,221,cs),
(215,286,o),
(251,332,o),
(314,332,cs),
(375,332,o),
(412,286,o),
(412,221,cs),
(412,153,o),
(375,109,o),
(314,109,cs)
);
}
);
width = 632;
}
);
unicode = 240;
},
{
glyphname = e;
kernLeft = o;
kernRight = e;
lastChange = "2024-11-01 12:01:51 +0000";
layers = (
{
anchors = (
{
name = bottom;
pos = (313,0);
},
{
name = ogonek;
pos = (474,10);
},
{
name = top;
pos = (326,496);
}
);
layerId = "451A0C9A-5D2B-4982-995B-41594B80AF49";
name = "AHL Variable 05 Mono Light Mono";
shapes = (
{
closed = 1;
nodes = (
(430,-12,o),
(486,32,o),
(519,81,c),
(465,100,l),
(440,64,o),
(399,36,o),
(328,36,cs),
(247,36,o),
(140,82,o),
(139,244,c),
(547,244,l),
(556,373,o),
(476,506,o),
(321,506,cs),
(182,506,o),
(84,404,o),
(84,245,cs),
(84,102,o),
(169,-12,o),
(323,-12,cs)
);
},
{
closed = 1;
nodes = (
(156,414,o),
(236,458,o),
(321,458,cs),
(436,458,o),
(489,364,o),
(490,289,c),
(141,289,l)
);
}
);
width = 632;
},
{
anchors = (
{
name = bottom;
pos = (320,0);
},
{
name = ogonek;
pos = (510,10);
},
{
name = top;
pos = (333,496);
}
);
layerId = "EAC7C082-8AF0-48CD-AF1D-A26CC3CBE6D4";
name = "AHL Variable 05 Mono ExtraBold Mono";
shapes = (
{
closed = 1;
nodes = (
(423,-12,o),
(505,29,o),
(554,101,c),
(425,149,l),
(406,127,o),
(376,114,o),
(334,114,cs),
(275,114,o),
(231,144,o),
(216,205,c),
(584,205,l),
(598,388,o),
(490,511,o),
(326,511,cs),
(179,511,o),
(56,410,o),
(56,252,cs),
(56,84,o),
(171,-12,o),
(333,-12,cs)
);
},
{
closed = 1;
nodes = (
(229,365,o),
(276,390,o),
(331,390,cs),
(385,390,o),
(428,363,o),
(434,301,c),
(215,301,l)
);
}
);
width = 632;
}
);
unicode = 101;
},
{
glyphname = eogonek;
kernLeft = o;
kernRight = e;
lastChange = "2024-11-01 12:01:51 +0000";
layers = (
{
anchors = (
{
name = top;
pos = (261,496);
}
);
layerId = "451A0C9A-5D2B-4982-995B-41594B80AF49";
shapes = (
{
closed = 1;
nodes = (
(442,-168,o),
(454,-167,o),
(474,-159,c),
(474,-120,l),
(465,-125,o),
(454,-127,o),
(443,-127,cs),
(416,-127,o),
(389,-112,o),
(389,-78,cs),
(389,-45,o),
(406,-12,o),
(443,11,cs),
(475,31,o),
(501,55,o),
(519,81,c),
(465,100,l),
(440,64,o),
(399,36,o),
(328,36,cs),
(247,36,o),
(140,82,o),
(139,244,c),
(547,244,l),
(556,373,o),
(476,506,o),
(321,506,cs),
(182,506,o),
(84,404,o),
(84,245,cs),
(84,66,o),
(211,-37,o),
(381,-7,c),
(358,-31,o),
(344,-63,o),
(344,-94,cs),
(344,-140,o),
(379,-168,o),
(426,-168,cs)
);
},
{
closed = 1;
nodes = (
(156,414,o),
(236,458,o),
(321,458,cs),
(436,458,o),
(489,364,o),
(490,289,c),
(141,289,l)
);
}
);
width = 632;
},
{
anchors = (
{
name = top;
pos = (261,496);
}
);
layerId = "EAC7C082-8AF0-48CD-AF1D-A26CC3CBE6D4";
shapes = (
{
closed = 1;
nodes = (
(454,-176,o),
(496,-171,o),
(510,-166,c),
(510,-86,l),
(494,-91,o),
(476,-95,o),
(459,-95,cs),
(434,-95,o),
(413,-84,o),
(413,-56,cs),
(413,-23,o),
(440,3,o),
(469,22,cs),
(502,43,o),
(532,68,o),
(554,101,c),
(425,149,l),
(406,127,o),
(376,114,o),
(334,114,cs),
(275,114,o),
(231,144,o),
(216,205,c),
(584,205,l),
(598,388,o),
(490,511,o),
(326,511,cs),
(179,511,o),
(56,410,o),
(56,252,cs),
(56,93,o),
(159,-1,o),
(307,-11,c),
(288,-30,o),
(277,-53,o),
(277,-81,cs),
(277,-122,o),
(307,-176,o),
(428,-176,cs)
);
},
{
closed = 1;
nodes = (
(229,365,o),
(276,390,o),
(331,390,cs),
(385,390,o),
(428,363,o),
(434,301,c),
(215,301,l)
);
}
);
width = 632;
}
);
metricLeft = e;
metricRight = e;
unicode = 281;
},
{
glyphname = f;
kernLeft = f;
kernRight = f;
lastChange = "2024-11-01 12:01:51 +0000";
layers = (
{
anchors = (
{
name = bottom;
pos = (296,0);
},
{
name = top;
pos = (296,796);
}
);
layerId = "451A0C9A-5D2B-4982-995B-41594B80AF49";
name = "AHL Variable 05 Mono Light Mono";
shapes = (
{
closed = 1;
nodes = (
(323,0,l),
(323,452,l),
(468,452,l),
(468,496,l),
(323,496,l),
(323,598,ls),
(323,657,o),
(333,668,o),
(374,668,cs),
(548,668,l),
(548,716,l),
(378,716,ls),
(290,716,o),
(269,693,o),
(269,598,cs),
(269,496,l),
(109,496,l),
(109,452,l),
(269,452,l),
(269,0,l)
);
}
);
width = 632;
},
{
anchors = (
{
name = bottom;
pos = (295,0);
},
{
name = top;
pos = (295,796);
}
);
layerId = "EAC7C082-8AF0-48CD-AF1D-A26CC3CBE6D4";
name = "AHL Variable 05 Mono ExtraBold Mono";
shapes = (
{
closed = 1;
nodes = (
(378,0,l),
(378,372,l),
(498,372,l),
(498,496,l),
(378,496,l),
(378,547,ls),
(378,583,o),
(391,589,o),
(447,589,cs),
(602,589,l),
(602,718,l),
(415,718,ls),
(276,718,o),
(213,685,o),
(213,564,cs),
(213,496,l),
(83,496,l),
(83,372,l),
(213,372,l),
(213,0,l)
);
}
);
width = 632;
}
);
unicode = 102;
},
{
glyphname = g;
kernLeft = g;
kernRight = g;
lastChange = "2024-11-01 12:01:51 +0000";
layers = (
{
anchors = (
{
name = bottom;
pos = (315,-251);
},
{
name = top;
pos = (307,496);
}
);
layerId = "451A0C9A-5D2B-4982-995B-41594B80AF49";
name = "AHL Variable 05 Mono Light Mono";
shapes = (
{
closed = 1;
nodes = (
(442,-186,o),
(531,-117,o),
(531,-4,cs),
(531,496,l),
(491,496,l),
(477,407,l),
(444,463,o),
(382,506,o),
(296,506,cs),
(161,506,o),
(66,411,o),
(66,254,cs),
(66,96,o),
(161,4,o),
(296,4,cs),
(383,4,o),
(442,44,o),
(477,97,c),
(477,0,ls),
(477,-95,o),
(407,-137,o),
(313,-137,cs),
(233,-137,o),
(176,-108,o),
(163,-57,c),
(108,-72,l),
(128,-152,o),
(221,-186,o),
(311,-186,cs)
);
},
{
closed = 1;
nodes = (
(193,52,o),
(121,125,o),
(121,253,cs),
(121,382,o),
(193,458,o),
(301,458,cs),
(407,458,o),
(477,376,o),
(477,253,cs),
(477,131,o),
(409,52,o),
(301,52,cs)
);
}
);
width = 632;
},
{
anchors = (
{
name = bottom;
pos = (321,-251);
},
{
name = top;
pos = (321,496);
}
);
layerId = "EAC7C082-8AF0-48CD-AF1D-A26CC3CBE6D4";
name = "AHL Variable 05 Mono ExtraBold Mono";
shapes = (
{
closed = 1;
nodes = (
(471,-205,o),
(575,-136,o),
(575,42,cs),
(575,496,l),
(431,496,l),
(411,430,l),
(372,484,o),
(308,511,o),
(248,511,cs),
(147,511,o),
(40,435,o),
(40,260,cs),
(40,110,o),
(147,20,o),
(254,20,cs),
(306,20,o),
(366,43,o),
(411,96,c),
(411,9,ls),
(411,-62,o),
(362,-82,o),
(318,-82,cs),
(266,-82,o),
(237,-62,o),
(218,-34,c),
(89,-93,l),
(138,-180,o),
(233,-205,o),
(315,-205,cs)
);
},
{
closed = 1;
nodes = (
(259,147,o),
(210,186,o),
(210,269,cs),
(210,351,o),
(259,385,o),
(314,385,cs),
(370,385,o),
(418,356,o),
(418,264,cs),
(418,173,o),
(370,147,o),
(314,147,cs)
);
}
);
width = 632;
}
);
unicode = 103;
},
{
color = 6;
glyphname = gcommaaccent;
kernLeft = g;
kernRight = g;
lastChange = "2024-11-01 11:55:55 +0000";
layers = (
{
background = {
anchors = (
{
name = _top;
pos = (330,523);
},
{
name = bottom;
pos = (315,-251);
},
{
name = top;
pos = (307,496);
}
);
shapes = (
{
closed = 1;
nodes = (
(442,-186,o),
(531,-117,o),
(531,-4,cs),
(531,496,l),
(491,496,l),
(477,407,l),
(444,463,o),
(382,506,o),
(296,506,cs),
(161,506,o),
(66,411,o),
(66,254,cs),
(66,96,o),
(161,4,o),
(296,4,cs),
(383,4,o),
(442,44,o),
(477,97,c),
(477,0,ls),
(477,-95,o),
(407,-137,o),
(313,-137,cs),
(233,-137,o),
(176,-108,o),
(163,-57,c),
(108,-72,l),
(128,-152,o),
(221,-186,o),
(311,-186,cs)
);
},
{
closed = 1;
nodes = (
(193,52,o),
(121,125,o),
(121,253,cs),
(121,382,o),
(193,458,o),
(301,458,cs),
(407,458,o),
(477,376,o),
(477,253,cs),
(477,131,o),
(409,52,o),
(301,52,cs)
);
},
{
closed = 1;
nodes = (
(325,752,o),
(274,714,o),
(274,650,cs),
(274,620,o),
(286,598,o),
(313,575,c),
(356,593,l),
(330,609,o),
(319,633,o),
(319,658,cs),
(319,709,o),
(367,727,o),
(400,730,c),
(370,755,l)
);
}
);
};
layerId = "451A0C9A-5D2B-4982-995B-41594B80AF49";
shapes = (
{
ref = g;
},
{
ref = commaturnedabovecomb;
}
);
width = 632;
},
{
annotations = (
{
pos = (280.253,228.281);
type = Text;
}
);
background = {
anchors = (
{
name = _top;
pos = (329,523);
},
{
name = bottom;
pos = (321,-251);
},
{
name = top;
pos = (321,496);
}
);
shapes = (
{
closed = 1;
nodes = (
(471,-205,o),
(575,-136,o),
(575,42,cs),
(575,496,l),
(431,496,l),
(411,430,l),
(372,484,o),
(308,511,o),
(248,511,cs),
(147,511,o),
(40,435,o),
(40,260,cs),
(40,110,o),
(147,20,o),
(254,20,cs),
(306,20,o),
(366,43,o),
(411,96,c),
(411,9,ls),
(411,-62,o),
(362,-82,o),
(318,-82,cs),
(266,-82,o),
(237,-62,o),
(218,-34,c),
(89,-93,l),
(138,-180,o),
(233,-205,o),
(315,-205,cs)
);
},
{
closed = 1;
nodes = (
(259,147,o),
(210,186,o),
(210,269,cs),
(210,351,o),
(259,385,o),
(314,385,cs),
(370,385,o),
(418,356,o),
(418,264,cs),
(418,173,o),
(370,147,o),
(314,147,cs)
);
},
{
closed = 1;
nodes = (
(276,774,o),
(214,725,o),
(214,664,cs),
(214,627,o),
(237,592,o),
(303,566,c),
(413,609,l),
(375,617,o),
(342,639,o),
(342,668,cs),
(342,702,o),
(376,727,o),
(445,727,c),
(391,774,l)
);
}
);
};
layerId = "EAC7C082-8AF0-48CD-AF1D-A26CC3CBE6D4";
shapes = (
{
ref = g;
},
{
ref = commaturnedabovecomb;
}
);
width = 632;
}
);
metricLeft = g;
metricRight = g;
unicode = 291;
},
{
glyphname = h;
kernLeft = h;
kernRight = h;
lastChange = "2024-11-06 13:43:01 +0000";
layers = (
{
anchors = (
{
name = bottom;
pos = (310,0);
},
{
name = center;
pos = (193,581);
},
{
name = top;
pos = (310,796);
}
);
layerId = "451A0C9A-5D2B-4982-995B-41594B80AF49";
name = "AHL Variable 05 Mono Light Mono";
shapes = (
{
closed = 1;
nodes = (
(168,0,l),
(168,273,ls),
(168,391,o),
(237,458,o),
(333,458,cs),
(430,458,o),
(466,395,o),
(466,311,cs),
(466,0,l),
(520,0,l),
(520,328,ls),
(520,428,o),
(465,506,o),
(339,506,cs),
(249,506,o),
(192,457,o),
(168,419,c),
(168,708,l),
(114,708,l),
(114,0,l)
);
}
);
width = 632;
},
{
anchors = (
{
name = bottom;
pos = (319,0);
},
{
name = center;
pos = (210,584);
},
{
name = top;
pos = (319,796);
}
);
layerId = "EAC7C082-8AF0-48CD-AF1D-A26CC3CBE6D4";
name = "AHL Variable 05 Mono ExtraBold Mono";
shapes = (
{
closed = 1;
nodes = (
(241,0,l),
(241,252,ls),
(241,339,o),
(266,385,o),
(327,385,cs),
(376,385,o),
(398,353,o),
(398,282,cs),
(398,0,l),
(563,0,l),
(563,317,ls),
(563,444,o),
(515,511,o),
(394,511,cs),
(319,511,o),
(262,467,o),
(241,432,c),
(241,708,l),
(76,708,l),
(76,0,l)
);
}
);
width = 632;
}
);
unicode = 104;
},
{
glyphname = hbar;
kernLeft = h;
kernRight = h;
lastChange = "2024-11-06 13:43:06 +0000";
layers = (
{
layerId = "451A0C9A-5D2B-4982-995B-41594B80AF49";
shapes = (
{
closed = 1;
nodes = (
(168,0,l),
(168,273,ls),
(168,391,o),
(237,458,o),
(333,458,cs),
(430,458,o),
(466,395,o),
(466,311,cs),
(466,0,l),
(520,0,l),
(520,328,ls),
(520,428,o),
(465,506,o),
(339,506,cs),
(249,506,o),
(192,457,o),
(168,419,c),
(168,561,l),
(337,561,l),
(337,601,l),
(168,601,l),
(168,708,l),
(114,708,l),
(114,601,l),
(49,601,l),
(49,561,l),
(114,561,l),
(114,0,l)
);
}
);
width = 632;
},
{
layerId = "EAC7C082-8AF0-48CD-AF1D-A26CC3CBE6D4";
shapes = (
{
closed = 1;
nodes = (
(241,0,l),
(241,252,ls),
(241,339,o),
(266,385,o),
(327,385,cs),
(376,385,o),
(398,353,o),
(398,282,cs),
(398,0,l),
(563,0,l),
(563,317,ls),
(563,444,o),
(515,511,o),
(394,511,cs),
(319,511,o),
(262,467,o),
(241,432,c),
(241,544,l),
(377,544,l),
(377,624,l),
(241,624,l),
(241,708,l),
(76,708,l),
(76,624,l),
(21,624,l),
(21,544,l),
(76,544,l),
(76,0,l)
);
}
);
width = 632;
}
);
unicode = 295;
},
{
color = 6;
glyphname = i;
kernLeft = i;
kernRight = i;
lastChange = "2024-11-01 11:55:55 +0000";
layers = (
{
background = {
shapes = (
{
closed = 1;
nodes = (
(483,0,l),
(483,44,l),
(333,44,l),
(333,496,l),
(154,496,l),
(154,452,l),
(279,452,l),
(279,44,l),
(129,44,l),
(129,0,l)
);
},
{
closed = 1;
nodes = (
(320,601,o),
(341,622,o),
(341,647,cs),
(341,672,o),
(320,693,o),
(295,693,cs),
(270,693,o),
(249,672,o),
(249,647,cs),
(249,622,o),
(270,601,o),
(295,601,cs)
);
}
);
};
layerId = "451A0C9A-5D2B-4982-995B-41594B80AF49";
name = "AHL Variable 05 Mono Light Mono";
shapes = (
{
ref = idotless;
},
{
pos = (-5,0);
ref = dotaccentcomb.large;
}
);
width = 632;
},
{
background = {
shapes = (
{
closed = 1;
nodes = (
(589,0,l),
(589,124,l),
(427,124,l),
(427,496,l),
(125,496,l),
(125,372,l),
(261,372,l),
(261,124,l),
(99,124,l),
(99,0,l)
);
},
{
closed = 1;
nodes = (
(388,576,o),
(430,618,o),
(430,671,cs),
(430,724,o),
(388,766,o),
(335,766,cs),
(282,766,o),
(240,724,o),
(240,671,cs),
(240,618,o),
(282,576,o),
(335,576,cs)
);
}
);
};
layerId = "EAC7C082-8AF0-48CD-AF1D-A26CC3CBE6D4";
name = "AHL Variable 05 Mono ExtraBold Mono";
shapes = (
{
ref = idotless;
},
{
pos = (18,0);
ref = dotaccentcomb.large;
}
);
width = 632;
}
);
unicode = 105;
},
{
glyphname = idotless;
kernLeft = i;
kernRight = i;
lastChange = "2024-11-01 12:01:51 +0000";
layers = (
{
anchors = (
{
name = bottom;
pos = (316,0);
},
{
name = ogonek;
pos = (529,10);
},
{
name = top;
pos = (311,496);
}
);
layerId = "451A0C9A-5D2B-4982-995B-41594B80AF49";
shapes = (
{
closed = 1;
nodes = (
(529,0,l),
(529,44,l),
(349,44,l),
(349,496,l),
(140,496,l),
(140,452,l),
(295,452,l),
(295,44,l),
(115,44,l),
(115,0,l)
);
}
);
width = 632;
},
{
anchors = (
{
name = bottom;
pos = (294,0);
},
{
name = ogonek;
pos = (588,10);
},
{
name = top;
pos = (334,496);
}
);
layerId = "EAC7C082-8AF0-48CD-AF1D-A26CC3CBE6D4";
shapes = (
{
closed = 1;
nodes = (
(588,0,l),
(588,124,l),
(426,124,l),
(426,496,l),
(125,496,l),
(125,372,l),
(261,372,l),
(261,124,l),
(99,124,l),
(99,0,l)
);
}
);
width = 632;
}
);
unicode = 305;
},
{
color = 6;
glyphname = iacute;
kernLeft = i;
kernRight = i;
lastChange = "2024-11-01 11:55:55 +0000";
layers = (
{
background = {
anchors = (
{
name = _top;
pos = (106,496);
},
{
name = bottom;
pos = (110,0);
},
{
name = ogonek;
pos = (137,10);
},
{
name = top;
pos = (105,496);
}
);
shapes = (
{
closed = 1;
nodes = (
(143,0,l),
(143,496,l),
(28,496,l),
(28,452,l),
(89,452,l),
(89,0,l)
);
},
{
closed = 1;
nodes = (
(133,569,l),
(190,620,ls),
(217,645,o),
(226,652,o),
(226,670,cs),
(226,684,o),
(216,696,o),
(200,696,cs),
(184,696,o),
(174,684,o),
(159,665,cs),
(87,569,l)
);
}
);
};
layerId = "451A0C9A-5D2B-4982-995B-41594B80AF49";
shapes = (
{
ref = idotless;
},
{
pos = (45,0);
ref = acutecomb;
}
);
width = 632;
},
{
background = {
anchors = (
{
name = _top;
pos = (181,496);
},
{
name = bottom;
pos = (140,0);
},
{
name = ogonek;
pos = (272,10);
},
{
name = top;
pos = (181,496);
}
);
shapes = (
{
closed = 1;
nodes = (
(274,0,l),
(274,496,l),
(20,496,l),
(20,372,l),
(106,372,l),
(106,0,l)
);
},
{
closed = 1;
nodes = (
(244,575,l),
(302,616,ls),
(335,640,o),
(340,656,o),
(340,675,cs),
(340,705,o),
(316,731,o),
(281,731,cs),
(256,731,o),
(242,719,o),
(223,696,cs),
(122,575,l)
);
}
);
};
layerId = "EAC7C082-8AF0-48CD-AF1D-A26CC3CBE6D4";
shapes = (
{
ref = idotless;
},
{
pos = (68,0);
ref = acutecomb;
}
);
width = 632;
}
);
unicode = 237;
},
{
color = 6;
glyphname = icircumflex;
kernLeft = i;
kernRight = i;
lastChange = "2024-11-01 11:55:55 +0000";
layers = (
{
background = {
anchors = (
{
name = _top;
pos = (86,496);
},
{
name = bottom;
pos = (110,0);
},
{
name = ogonek;
pos = (137,10);
},
{
name = top;
pos = (105,496);
}
);
shapes = (
{
closed = 1;
nodes = (
(143,0,l),
(143,496,l),
(28,496,l),
(28,452,l),
(89,452,l),
(89,0,l)
);
},
{
closed = 1;
nodes = (
(17,576,l),
(85,636,l),
(155,576,l),
(210,576,l),
(130,658,ls),
(116,672,o),
(103,679,o),
(87,679,cs),
(69,679,o),
(56,672,o),
(42,658,cs),
(-38,576,l)
);
}
);
};
layerId = "451A0C9A-5D2B-4982-995B-41594B80AF49";
shapes = (
{
ref = idotless;
},
{
pos = (-5,0);
ref = circumflexcomb;
}
);
width = 632;
},
{
background = {
anchors = (
{
name = _top;
pos = (180,496);
},
{
name = bottom;
pos = (140,0);
},
{
name = ogonek;
pos = (272,10);
},
{
name = top;
pos = (181,496);
}
);
shapes = (
{
closed = 1;
nodes = (
(274,0,l),
(274,496,l),
(20,496,l),
(20,372,l),
(106,372,l),
(106,0,l)
);
},
{
closed = 1;
nodes = (
(112,574,l),
(181,635,l),
(249,574,l),
(383,574,l),
(231,712,ls),
(217,723,o),
(200,732,o),
(180,732,cs),
(161,732,o),
(143,723,o),
(130,712,cs),
(-23,574,l)
);
}
);
};
layerId = "EAC7C082-8AF0-48CD-AF1D-A26CC3CBE6D4";
shapes = (
{
ref = idotless;
},
{
pos = (18,0);
ref = circumflexcomb;
}
);
width = 632;
}
);
unicode = 238;
},
{
color = 6;
glyphname = igrave;
kernLeft = i;
kernRight = i;
lastChange = "2024-11-01 11:55:55 +0000";
layers = (
{
background = {
anchors = (
{
name = _top;
pos = (107,496);
},
{
name = bottom;
pos = (110,0);
},
{
name = ogonek;
pos = (137,10);
},
{
name = top;
pos = (105,496);
}
);
shapes = (
{
closed = 1;
nodes = (
(143,0,l),
(143,496,l),
(28,496,l),
(28,452,l),
(89,452,l),
(89,0,l)
);
},
{
closed = 1;
nodes = (
(126,569,l),
(54,665,ls),
(39,684,o),
(29,696,o),
(13,696,cs),
(-3,696,o),
(-13,684,o),
(-13,670,cs),
(-13,652,o),
(-4,645,o),
(23,620,cs),
(80,569,l)
);
}
);
};
layerId = "451A0C9A-5D2B-4982-995B-41594B80AF49";
shapes = (
{
ref = idotless;
},
{
pos = (-56,0);
ref = gravecomb;
}
);
width = 632;
},
{
background = {
anchors = (
{
name = _top;
pos = (181,496);
},
{
name = bottom;
pos = (140,0);
},
{
name = ogonek;
pos = (272,10);
},
{
name = top;
pos = (181,496);
}
);
shapes = (
{
closed = 1;
nodes = (
(274,0,l),
(274,496,l),
(20,496,l),
(20,372,l),
(106,372,l),
(106,0,l)
);
},
{
closed = 1;
nodes = (
(240,575,l),
(139,696,ls),
(120,719,o),
(106,731,o),
(81,731,cs),
(46,731,o),
(22,705,o),
(22,675,cs),
(22,656,o),
(27,640,o),
(60,616,cs),
(118,575,l)
);
}
);
};
layerId = "EAC7C082-8AF0-48CD-AF1D-A26CC3CBE6D4";
shapes = (
{
ref = idotless;
},
{
pos = (-32,0);
ref = gravecomb;
}
);
width = 632;
}
);
unicode = 236;
},
{
color = 6;
glyphname = imacron;
kernLeft = i;
kernRight = i;
lastChange = "2024-11-01 11:55:55 +0000";
layers = (
{
background = {
anchors = (
{
name = _top;
pos = (101,496);
},
{
name = bottom;
pos = (110,0);
},
{
name = ogonek;
pos = (137,10);
},
{
name = top;
pos = (105,496);
}
);
shapes = (
{
closed = 1;
nodes = (
(143,0,l),
(143,496,l),
(28,496,l),
(28,452,l),
(89,452,l),
(89,0,l)
);
},
{
closed = 1;
nodes = (
(228,607,l),
(228,651,l),
(-26,651,l),
(-26,607,l)
);
}
);
};
layerId = "451A0C9A-5D2B-4982-995B-41594B80AF49";
shapes = (
{
ref = idotless;
},
{
pos = (-5,0);
ref = macroncomb;
}
);
width = 632;
},
{
background = {
anchors = (
{
name = _top;
pos = (180,496);
},
{
name = bottom;
pos = (140,0);
},
{
name = ogonek;
pos = (272,10);
},
{
name = top;
pos = (181,496);
}
);
shapes = (
{
closed = 1;
nodes = (
(274,0,l),
(274,496,l),
(20,496,l),
(20,372,l),
(106,372,l),
(106,0,l)
);
},
{
closed = 1;
nodes = (
(331,564,l),
(331,668,l),
(28,668,l),
(28,564,l)
);
}
);
};
layerId = "EAC7C082-8AF0-48CD-AF1D-A26CC3CBE6D4";
shapes = (
{
ref = idotless;
},
{
pos = (17,0);
ref = macroncomb;
}
);
width = 632;
}
);
unicode = 299;
},
{
glyphname = iogonek;
kernLeft = i;
kernRight = i;
lastChange = "2024-11-01 12:01:51 +0000";
layers = (
{
anchors = (
{
name = top;
pos = (311,696);
}
);
layerId = "451A0C9A-5D2B-4982-995B-41594B80AF49";
shapes = (
{
closed = 1;
nodes = (
(462,0,l),
(420,-25,o),
(399,-54,o),
(399,-94,cs),
(399,-140,o),
(434,-168,o),
(481,-168,cs),
(497,-168,o),
(509,-167,o),
(529,-159,c),
(529,-120,l),
(520,-124,o),
(508,-127,o),
(495,-127,cs),
(467,-127,o),
(444,-114,o),
(444,-84,cs),
(444,-50,o),
(476,-17,o),
(529,0,c),
(529,44,l),
(349,44,l),
(349,496,l),
(140,496,l),
(140,452,l),
(295,452,l),
(295,44,l),
(115,44,l),
(115,0,l)
);
},
{
closed = 1;
nodes = (
(337,599,o),
(359,621,o),
(359,647,cs),
(359,673,o),
(337,695,o),
(311,695,cs),
(285,695,o),
(263,673,o),
(263,647,cs),
(263,621,o),
(285,599,o),
(311,599,cs)
);
}
);
width = 632;
},
{
anchors = (
{
name = top;
pos = (334,766);
}
);
layerId = "EAC7C082-8AF0-48CD-AF1D-A26CC3CBE6D4";
shapes = (
{
closed = 1;
nodes = (
(412,0,l),
(382,-17,o),
(355,-43,o),
(355,-84,cs),
(355,-121,o),
(385,-176,o),
(506,-176,cs),
(532,-176,o),
(574,-171,o),
(588,-167,c),
(588,-86,l),
(575,-90,o),
(555,-95,o),
(537,-95,cs),
(516,-95,o),
(491,-88,o),
(491,-65,cs),
(491,-41,o),
(519,-13,o),
(588,0,c),
(588,124,l),
(426,124,l),
(426,496,l),
(125,496,l),
(125,372,l),
(261,372,l),
(261,124,l),
(99,124,l),
(99,0,l)
);
},
{
closed = 1;
nodes = (
(387,576,o),
(429,618,o),
(429,671,cs),
(429,724,o),
(387,766,o),
(334,766,cs),
(281,766,o),
(239,724,o),
(239,671,cs),
(239,618,o),
(281,576,o),
(334,576,cs)
);
}
);
width = 632;
}
);
unicode = 303;
},
{
glyphname = ij;
kernLeft = i;
kernRight = j;
lastChange = "2024-11-01 12:01:51 +0000";
layers = (
{
guides = (
{
angle = 90;
pos = (225,248);
},
{
angle = 90;
pos = (233,248);
},
{
angle = 90;
pos = (512,248);
},
{
angle = 90;
pos = (531,248);
},
{
pos = (474,601);
},
{
pos = (274,693);
}
);
layerId = "451A0C9A-5D2B-4982-995B-41594B80AF49";
shapes = (
{
closed = 1;
nodes = (
(366,-161,ls),
(498,-161,o),
(512,-123,o),
(512,-9,cs),
(512,496,l),
(397,496,l),
(397,452,l),
(458,452,l),
(458,-10,ls),
(458,-95,o),
(449,-113,o),
(366,-113,cs),
(293,-113,l),
(293,-161,l)
);
},
{
closed = 1;
nodes = (
(225,0,l),
(225,496,l),
(110,496,l),
(110,452,l),
(171,452,l),
(171,0,l)
);
},
{
closed = 1;
nodes = (
(213,599,o),
(235,621,o),
(235,647,cs),
(235,673,o),
(213,695,o),
(187,695,cs),
(161,695,o),
(139,673,o),
(139,647,cs),
(139,621,o),
(161,599,o),
(187,599,cs)
);
},
{
closed = 1;
nodes = (
(500,599,o),
(522,621,o),
(522,647,cs),
(522,673,o),
(500,695,o),
(474,695,cs),
(448,695,o),
(426,673,o),
(426,647,cs),
(426,621,o),
(448,599,o),
(474,599,cs)
);
}
);
width = 632;
},
{
guides = (
{
angle = 90;
pos = (277,248);
},
{
angle = 90;
pos = (280,248);
},
{
angle = 90;
pos = (559,248);
},
{
angle = 90;
pos = (572,248);
},
{
pos = (474,576);
},
{
pos = (474,766);
}
);
layerId = "EAC7C082-8AF0-48CD-AF1D-A26CC3CBE6D4";
shapes = (
{
closed = 1;
nodes = (
(367,-161,ls),
(506,-161,o),
(569,-128,o),
(569,-7,cs),
(569,496,l),
(334,496,l),
(334,372,l),
(404,372,l),
(404,10,ls),
(404,-26,o),
(392,-32,o),
(336,-32,cs),
(300,-32,l),
(300,-161,l)
);
},
{
closed = 1;
nodes = (
(255,0,l),
(255,496,l),
(20,496,l),
(20,372,l),
(90,372,l),
(90,0,l)
);
},
{
closed = 1;
nodes = (
(216,576,o),
(258,618,o),
(258,671,cs),
(258,724,o),
(216,766,o),
(163,766,cs),
(110,766,o),
(68,724,o),
(68,671,cs),
(68,618,o),
(110,576,o),
(163,576,cs)
);
},
{
closed = 1;
nodes = (
(530,576,o),
(572,618,o),
(572,671,cs),
(572,724,o),
(530,766,o),
(477,766,cs),
(424,766,o),
(382,724,o),
(382,671,cs),
(382,618,o),
(424,576,o),
(477,576,cs)
);
}
);
width = 632;
}
);
unicode = 307;
},
{
color = 6;
glyphname = j;
kernLeft = j;
kernRight = j;
lastChange = "2024-11-01 11:55:55 +0000";
layers = (
{
background = {
anchors = (
{
name = _top;
pos = (109,496);
},
{
name = bottom;
pos = (98,-251);
},
{
name = top;
pos = (109,496);
}
);
shapes = (
{
closed = 1;
nodes = (
(-958,-161,ls),
(-826,-161,o),
(-812,-123,o),
(-812,-9,cs),
(-812,496,l),
(-866,496,l),
(-866,-10,ls),
(-866,-95,o),
(-875,-113,o),
(-958,-113,cs),
(-999,-113,l),
(-999,-161,l)
);
},
{
closed = 1;
nodes = (
(-814,601,o),
(-793,622,o),
(-793,647,cs),
(-793,672,o),
(-814,693,o),
(-839,693,cs),
(-864,693,o),
(-885,672,o),
(-885,647,cs),
(-885,622,o),
(-864,601,o),
(-839,601,cs)
);
},
{
ref = jdotless;
},
{
pos = (25,0);
ref = dotaccentcomb.large;
}
);
};
guides = (
{
angle = 90;
pos = (379,496);
},
{
angle = 90;
pos = (389,496);
},
{
angle = 90;
pos = (317,496);
},
{
angle = 90;
pos = (325,496);
}
);
layerId = "451A0C9A-5D2B-4982-995B-41594B80AF49";
shapes = (
{
ref = jdotless;
},
{
pos = (25,0);
ref = dotaccentcomb.large;
}
);
width = 632;
},
{
background = {
anchors = (
{
name = _top;
pos = (131,496);
},
{
name = bottom;
pos = (131,-251);
},
{
name = top;
pos = (131,496);
}
);
shapes = (
{
ref = i;
}
);
};
guides = (
{
angle = 90;
pos = (457,496);
},
{
angle = 90;
pos = (460,496);
},
{
angle = 90;
pos = (395,496);
},
{
angle = 90;
pos = (403,496);
}
);
layerId = "EAC7C082-8AF0-48CD-AF1D-A26CC3CBE6D4";
shapes = (
{
ref = jdotless;
},
{
pos = (49,0);
ref = dotaccentcomb.large;
}
);
width = 632;
}
);
unicode = 106;
},
{
glyphname = jdotless;
kernLeft = j;
kernRight = j;
lastChange = "2024-11-01 12:01:51 +0000";
layers = (
{
anchors = (
{
name = bottom;
pos = (341,-251);
},
{
name = top;
pos = (341,496);
}
);
layerId = "451A0C9A-5D2B-4982-995B-41594B80AF49";
shapes = (
{
closed = 1;
nodes = (
(233,-162,ls),
(365,-162,o),
(379,-124,o),
(379,-10,cs),
(379,496,l),
(170,496,l),
(170,452,l),
(325,452,l),
(325,-11,ls),
(325,-96,o),
(316,-114,o),
(233,-114,cs),
(100,-114,l),
(100,-162,l)
);
}
);
width = 632;
},
{
anchors = (
{
name = bottom;
pos = (345,-251);
},
{
name = top;
pos = (365,496);
}
);
layerId = "EAC7C082-8AF0-48CD-AF1D-A26CC3CBE6D4";
shapes = (
{
closed = 1;
nodes = (
(255,-162,ls),
(394,-162,o),
(457,-129,o),
(457,-8,cs),
(457,496,l),
(155,496,l),
(155,372,l),
(292,372,l),
(292,9,ls),
(292,-27,o),
(280,-33,o),
(224,-33,cs),
(68,-33,l),
(68,-162,l)
);
}
);
width = 632;
}
);
unicode = 567;
},
{
glyphname = k;
kernLeft = h;
kernRight = k;
lastChange = "2024-11-01 12:01:51 +0000";
layers = (
{
anchors = (
{
name = bottom;
pos = (329,0);
},
{
name = top;
pos = (324,796);
}
);
layerId = "451A0C9A-5D2B-4982-995B-41594B80AF49";
shapes = (
{
closed = 1;
nodes = (
(206,0,l),
(206,182,l),
(286,258,l),
(497,0,l),
(566,0,l),
(323,294,l),
(535,496,l),
(466,496,l),
(206,245,l),
(206,708,l),
(152,708,l),
(152,0,l)
);
}
);
width = 632;
},
{
anchors = (
{
name = bottom;
pos = (327,0);
},
{
name = top;
pos = (327,796);
}
);
layerId = "EAC7C082-8AF0-48CD-AF1D-A26CC3CBE6D4";
shapes = (
{
closed = 1;
nodes = (
(235,0,l),
(235,109,l),
(300,175,l),
(434,0,l),
(629,0,l),
(411,287,l),
(616,496,l),
(421,496,l),
(235,303,l),
(235,708,l),
(70,708,l),
(70,0,l)
);
}
);
width = 632;
}
);
unicode = 107;
},
{
glyphname = l;
kernLeft = h;
kernRight = l;
lastChange = "2024-11-13 12:41:17 +0000";
layers = (
{
anchors = (
{
name = bottom;
pos = (370,0);
},
{
name = center;
pos = (267,317);
},
{
name = top;
pos = (265,708);
},
{
name = topright;
pos = (364,499);
}
);
layerId = "451A0C9A-5D2B-4982-995B-41594B80AF49";
shapes = (
{
closed = 1;
nodes = (
(528,0,l),
(528,48,l),
(343,48,ls),
(299,48,o),
(293,60,o),
(293,98,cs),
(293,708,l),
(124,708,l),
(124,664,l),
(239,664,l),
(239,95,ls),
(239,24,o),
(260,0,o),
(338,0,cs)
);
}
);
width = 632;
},
{
anchors = (
{
name = bottom;
pos = (390,0);
},
{
name = center;
pos = (299,374);
},
{
name = top;
pos = (282,708);
},
{
name = topright;
pos = (385,497);
}
);
layerId = "EAC7C082-8AF0-48CD-AF1D-A26CC3CBE6D4";
shapes = (
{
closed = 1;
nodes = (
(584,0,l),
(584,129,l),
(414,129,ls),
(358,129,o),
(348,139,o),
(348,194,cs),
(348,708,l),
(68,708,l),
(68,584,l),
(183,584,l),
(183,145,ls),
(183,23,o),
(228,0,o),
(355,0,cs)
);
}
);
width = 632;
}
);
unicode = 108;
},
{
color = 6;
glyphname = lcaron;
kernLeft = h;
kernRight = dcaron;
lastChange = "2024-11-01 11:55:55 +0000";
layers = (
{
background = {
anchors = (
{
name = _topright;
pos = (177,499);
},
{
name = bottom;
pos = (98,0);
},
{
name = center;
pos = (100,317);
},
{
name = top;
pos = (98,796);
},
{
name = topright;
pos = (177,499);
}
);
shapes = (
{
closed = 1;
nodes = (
(192,0,l),
(192,46,l),
(176,46,ls),
(132,46,o),
(126,58,o),
(126,96,cs),
(126,708,l),
(72,708,l),
(72,95,ls),
(72,24,o),
(93,0,o),
(171,0,cs)
);
},
{
closed = 1;
nodes = (
(230,543,l),
(269,656,ls),
(277,678,o),
(280,688,o),
(280,695,cs),
(280,715,o),
(264,721,o),
(251,721,cs),
(229,721,o),
(222,705,o),
(217,672,cs),
(197,543,l)
);
}
);
};
layerId = "451A0C9A-5D2B-4982-995B-41594B80AF49";
shapes = (
{
ref = l;
},
{
pos = (109,3);
ref = caroncomb.alt;
}
);
width = 632;
},
{
background = {
anchors = (
{
name = _topright;
pos = (164,497);
},
{
name = bottom;
pos = (109,0);
},
{
name = center;
pos = (106,374);
},
{
name = top;
pos = (109,796);
},
{
name = topright;
pos = (164,497);
}
);
shapes = (
{
closed = 1;
nodes = (
(249,0,l),
(249,132,l),
(222,132,ls),
(166,132,o),
(156,142,o),
(156,197,cs),
(156,708,l),
(-10,708,l),
(-10,145,ls),
(-10,23,o),
(35,0,o),
(162,0,cs)
);
},
{
closed = 1;
nodes = (
(270,525,l),
(307,607,ls),
(320,635,o),
(325,647,o),
(325,662,cs),
(325,686,o),
(304,719,o),
(267,719,cs),
(244,719,o),
(214,703,o),
(208,669,cs),
(184,525,l)
);
}
);
};
layerId = "EAC7C082-8AF0-48CD-AF1D-A26CC3CBE6D4";
shapes = (
{
ref = l;
},
{
pos = (159,1);
ref = caroncomb.alt;
}
);
width = 632;
}
);
metricLeft = l;
unicode = 318;
},
{
glyphname = lslash;
kernLeft = h;
kernRight = l;
lastChange = "2024-11-01 12:01:51 +0000";
layers = (
{
layerId = "451A0C9A-5D2B-4982-995B-41594B80AF49";
shapes = (
{
closed = 1;
nodes = (
(528,0,l),
(528,48,l),
(343,48,ls),
(299,48,o),
(293,60,o),
(293,98,cs),
(293,310,l),
(387,372,l),
(387,420,l),
(293,358,l),
(293,708,l),
(124,708,l),
(124,664,l),
(239,664,l),
(239,323,l),
(175,281,l),
(175,233,l),
(239,275,l),
(239,95,ls),
(239,24,o),
(260,0,o),
(338,0,cs)
);
}
);
width = 632;
},
{
layerId = "EAC7C082-8AF0-48CD-AF1D-A26CC3CBE6D4";
shapes = (
{
closed = 1;
nodes = (
(584,0,l),
(584,129,l),
(414,129,ls),
(358,129,o),
(348,139,o),
(348,194,cs),
(348,338,l),
(474,406,l),
(474,529,l),
(348,461,l),
(348,708,l),
(68,708,l),
(68,584,l),
(183,584,l),
(183,373,l),
(128,343,l),
(128,220,l),
(183,250,l),
(183,145,ls),
(183,23,o),
(228,0,o),
(355,0,cs)
);
}
);
width = 632;
}
);
unicode = 322;
},
{
glyphname = m;
kernLeft = n;
kernRight = h;
lastChange = "2024-11-01 12:01:51 +0000";
layers = (
{
anchors = (
{
name = bottom;
pos = (317,0);
},
{
name = top;
pos = (312,496);
}
);
layerId = "451A0C9A-5D2B-4982-995B-41594B80AF49";
name = "AHL Variable 05 Mono Light Mono";
shapes = (
{
closed = 1;
nodes = (
(125,0,l),
(125,335,ls),
(125,416,o),
(166,458,o),
(218,458,cs),
(271,458,o),
(290,419,o),
(290,359,cs),
(290,0,l),
(344,0,l),
(344,336,ls),
(344,417,o),
(383,458,o),
(435,458,cs),
(489,458,o),
(509,418,o),
(509,358,cs),
(509,0,l),
(563,0,l),
(563,375,ls),
(563,451,o),
(530,506,o),
(448,506,cs),
(389,506,o),
(350,471,o),
(336,438,c),
(321,480,o),
(286,506,o),
(230,506,cs),
(173,506,o),
(138,473,o),
(122,441,c),
(113,496,l),
(71,496,l),
(71,0,l)
);
}
);
width = 632;
},
{
anchors = (
{
name = bottom;
pos = (318,0);
},
{
name = top;
pos = (318,496);
}
);
layerId = "EAC7C082-8AF0-48CD-AF1D-A26CC3CBE6D4";
name = "AHL Variable 05 Mono ExtraBold Mono";
shapes = (
{
closed = 1;
nodes = (
(175,0,l),
(175,309,ls),
(175,360,o),
(189,385,o),
(216,385,cs),
(239,385,o),
(250,367,o),
(250,327,cs),
(250,0,l),
(383,0,l),
(383,310,ls),
(383,360,o),
(397,385,o),
(424,385,cs),
(446,385,o),
(458,368,o),
(458,327,cs),
(458,0,l),
(591,0,l),
(591,376,ls),
(591,457,o),
(552,511,o),
(474,511,cs),
(426,511,o),
(388,488,o),
(365,455,c),
(347,492,o),
(317,511,o),
(270,511,cs),
(225,511,o),
(188,486,o),
(165,451,c),
(152,496,l),
(42,496,l),
(42,0,l)
);
}
);
width = 632;
}
);
unicode = 109;
},
{
glyphname = n;
kernLeft = n;
kernRight = h;
lastChange = "2024-11-01 12:01:51 +0000";
layers = (
{
anchors = (
{
name = bottom;
pos = (310,0);
},
{
name = top;
pos = (316,496);
}
);
layerId = "451A0C9A-5D2B-4982-995B-41594B80AF49";
name = "AHL Variable 05 Mono Light Mono";
shapes = (
{
closed = 1;
nodes = (
(168,0,l),
(168,273,ls),
(168,391,o),
(237,458,o),
(333,458,cs),
(430,458,o),
(466,395,o),
(466,311,cs),
(466,0,l),
(520,0,l),
(520,328,ls),
(520,428,o),
(465,506,o),
(339,506,cs),
(246,506,o),
(189,454,o),
(166,416,c),
(154,496,l),
(114,496,l),
(114,0,l)
);
}
);
width = 632;
},
{
anchors = (
{
name = bottom;
pos = (317,0);
},
{
name = top;
pos = (317,496);
}
);
layerId = "EAC7C082-8AF0-48CD-AF1D-A26CC3CBE6D4";
name = "AHL Variable 05 Mono ExtraBold Mono";
shapes = (
{
closed = 1;
nodes = (
(239,0,l),
(239,252,ls),
(239,339,o),
(264,385,o),
(325,385,cs),
(374,385,o),
(396,353,o),
(396,283,cs),
(396,0,l),
(561,0,l),
(561,317,ls),
(561,443,o),
(513,511,o),
(392,511,cs),
(317,511,o),
(260,466,o),
(239,432,c),
(221,496,l),
(74,496,l),
(74,0,l)
);
}
);
width = 632;
}
);
unicode = 110;
},
{
glyphname = o;
kernLeft = o;
kernRight = o;
lastChange = "2024-11-01 12:01:51 +0000";
layers = (
{
anchors = (
{
name = bottom;
pos = (316,0);
},
{
name = center;
pos = (316,248);
},
{
name = ogonek;
pos = (555,10);
},
{
name = top;
pos = (316,496);
},
{
name = topright;
pos = (592,496);
}
);
layerId = "451A0C9A-5D2B-4982-995B-41594B80AF49";
name = "AHL Variable 05 Mono Light Mono";
shapes = (
{
closed = 1;
nodes = (
(432,-12,o),
(562,66,o),
(562,247,cs),
(562,428,o),
(432,506,o),
(316,506,cs),
(200,506,o),
(70,428,o),
(70,247,cs),
(70,66,o),
(200,-12,o),
(316,-12,cs)
);
},
{
closed = 1;
nodes = (
(218,36,o),
(125,102,o),
(125,247,cs),
(125,392,o),
(218,458,o),
(316,458,cs),
(414,458,o),
(507,392,o),
(507,247,cs),
(507,102,o),
(414,36,o),
(316,36,cs)
);
}
);
width = 632;
},
{
anchors = (
{
name = bottom;
pos = (316,0);
},
{
name = center;
pos = (316,248);
},
{
name = ogonek;
pos = (547,10);
},
{
name = top;
pos = (316,496);
},
{
name = topright;
pos = (584,496);
}
);
guides = (
{
angle = 90;
pos = (563,475);
},
{
angle = 90;
pos = (583,475);
},
{
angle = 90;
pos = (49,475);
},
{
angle = 90;
pos = (69,475);
}
);
layerId = "EAC7C082-8AF0-48CD-AF1D-A26CC3CBE6D4";
name = "AHL Variable 05 Mono ExtraBold Mono";
shapes = (
{
closed = 1;
nodes = (
(456,-12,o),
(583,72,o),
(583,251,cs),
(583,430,o),
(456,511,o),
(316,511,cs),
(176,511,o),
(49,430,o),
(49,251,cs),
(49,72,o),
(176,-12,o),
(316,-12,cs)
);
},
{
closed = 1;
nodes = (
(257,114,o),
(217,160,o),
(217,251,cs),
(217,342,o),
(259,385,o),
(316,385,cs),
(373,385,o),
(415,342,o),
(415,251,cs),
(415,160,o),
(375,114,o),
(316,114,cs)
);
}
);
width = 632;
}
);
unicode = 111;
},
{
glyphname = oslash;
kernLeft = o;
kernRight = o;
lastChange = "2024-11-06 15:28:38 +0000";
layers = (
{
anchors = (
{
name = bottom;
pos = (316,0);
},
{
name = center;
pos = (316,248);
},
{
name = ogonek;
pos = (555,10);
},
{
name = top;
pos = (316,496);
},
{
name = topright;
pos = (592,496);
}
);
layerId = "451A0C9A-5D2B-4982-995B-41594B80AF49";
shapes = (
{
closed = 1;
nodes = (
(432,-12,o),
(562,66,o),
(562,247,cs),
(562,322,o),
(540,379,o),
(506,420,c),
(553,470,l),
(526,497,l),
(479,447,l),
(432,487,o),
(373,506,o),
(316,506,cs),
(200,506,o),
(70,428,o),
(70,247,cs),
(70,173,o),
(92,116,o),
(125,75,c),
(79,26,l),
(106,-1,l),
(152,47,l),
(199,7,o),
(259,-12,o),
(316,-12,cs)
);
},
{
closed = 1;
nodes = (
(268,36,o),
(222,52,o),
(187,84,c),
(469,382,l),
(493,349,o),
(507,304,o),
(507,247,cs),
(507,102,o),
(414,36,o),
(316,36,cs)
);
},
{
closed = 1;
nodes = (
(139,146,o),
(125,191,o),
(125,247,cs),
(125,392,o),
(218,458,o),
(316,458,cs),
(363,458,o),
(409,443,o),
(444,411,c),
(162,113,l)
);
}
);
width = 632;
},
{
anchors = (
{
name = bottom;
pos = (316,0);
},
{
name = center;
pos = (316,248);
},
{
name = ogonek;
pos = (547,10);
},
{
name = top;
pos = (316,496);
},
{
name = topright;
pos = (584,496);
}
);
layerId = "EAC7C082-8AF0-48CD-AF1D-A26CC3CBE6D4";
shapes = (
{
closed = 1;
nodes = (
(456,-12,o),
(583,72,o),
(583,251,cs),
(583,327,o),
(560,386,o),
(522,428,c),
(563,475,l),
(504,526,l),
(461,476,l),
(418,500,o),
(368,511,o),
(316,511,cs),
(176,511,o),
(49,430,o),
(49,251,cs),
(49,174,o),
(73,114,o),
(111,72,c),
(67,21,l),
(126,-30,l),
(172,23,l),
(214,-1,o),
(264,-12,o),
(316,-12,cs)
);
},
{
closed = 1;
nodes = (
(296,114,o),
(279,119,o),
(264,129,c),
(410,299,l),
(413,285,o),
(415,269,o),
(415,251,cs),
(415,160,o),
(375,114,o),
(316,114,cs)
);
},
{
closed = 1;
nodes = (
(219,215,o),
(217,232,o),
(217,251,cs),
(217,342,o),
(259,385,o),
(316,385,cs),
(336,385,o),
(354,380,o),
(369,369,c),
(222,200,l)
);
}
);
width = 632;
}
);
metricLeft = o;
metricRight = o;
unicode = 248;
},
{
glyphname = oe;
kernLeft = o;
kernRight = e;
lastChange = "2024-11-01 12:01:51 +0000";
layers = (
{
anchors = (
{
name = bottom;
pos = (299,0);
},
{
name = top;
pos = (299,496);
}
);
guides = (
{
angle = 160.6155;
pos = (492,123);
}
);
layerId = "451A0C9A-5D2B-4982-995B-41594B80AF49";
shapes = (
{
closed = 1;
nodes = (
(543,-12,o),
(582,33,o),
(607,82,c),
(562,98,l),
(537,54,o),
(515,32,o),
(472,32,cs),
(420,32,o),
(344,79,o),
(346,244,c),
(627,244,l),
(636,373,o),
(586,506,o),
(467,506,cs),
(402,506,o),
(351,460,o),
(325,381,c),
(296,467,o),
(239,506,o),
(178,506,cs),
(90,506,o),
(4,428,o),
(4,247,cs),
(4,66,o),
(90,-12,o),
(175,-12,cs),
(230,-12,o),
(289,26,o),
(319,111,c),
(345,37,o),
(395,-12,o),
(471,-12,cs)
);
},
{
closed = 1;
nodes = (
(114,36,o),
(55,102,o),
(55,247,cs),
(55,392,o),
(114,458,o),
(176,458,cs),
(239,458,o),
(299,392,o),
(299,247,cs),
(299,102,o),
(239,36,o),
(176,36,cs)
);
},
{
closed = 1;
nodes = (
(361,416,o),
(413,462,o),
(467,462,cs),
(546,462,o),
(574,365,o),
(574,286,c),
(348,286,l)
);
}
);
width = 632;
},
{
anchors = (
{
name = bottom;
pos = (321,0);
},
{
name = top;
pos = (321,496);
}
);
guides = (
{
angle = 159.5901;
pos = (490,145);
}
);
layerId = "EAC7C082-8AF0-48CD-AF1D-A26CC3CBE6D4";
shapes = (
{
closed = 1;
nodes = (
(505,-12,o),
(567,23,o),
(608,101,c),
(512,137,l),
(500,112,o),
(478,95,o),
(449,95,cs),
(406,95,o),
(379,135,o),
(372,207,c),
(627,207,l),
(636,387,o),
(572,511,o),
(452,511,cs),
(393,511,o),
(350,486,o),
(322,440,c),
(290,488,o),
(243,511,o),
(193,511,cs),
(94,511,o),
(18,430,o),
(18,251,cs),
(18,72,o),
(94,-12,o),
(193,-12,cs),
(241,-12,o),
(283,10,o),
(313,54,c),
(343,11,o),
(387,-12,o),
(446,-12,cs)
);
},
{
closed = 1;
nodes = (
(158,109,o),
(131,157,o),
(131,251,cs),
(131,345,o),
(160,390,o),
(198,390,cs),
(237,390,o),
(265,345,o),
(265,251,cs),
(265,157,o),
(238,109,o),
(198,109,cs)
);
},
{
closed = 1;
nodes = (
(379,367,o),
(402,399,o),
(440,399,cs),
(480,399,o),
(504,366,o),
(505,297,c),
(372,297,l)
);
}
);
width = 632;
}
);
unicode = 339;
},
{
glyphname = p;
kernLeft = p;
kernRight = o;
lastChange = "2024-11-01 12:01:51 +0000";
layers = (
{
anchors = (
{
name = bottom;
pos = (273,0);
},
{
name = top;
pos = (273,496);
}
);
layerId = "451A0C9A-5D2B-4982-995B-41594B80AF49";
shapes = (
{
closed = 1;
nodes = (
(154,-162,l),
(154,84,l),
(186,33,o),
(249,-12,o),
(339,-12,cs),
(477,-12,o),
(573,83,o),
(573,247,cs),
(573,411,o),
(477,506,o),
(339,506,cs),
(253,506,o),
(190,464,o),
(156,408,c),
(140,496,l),
(100,496,l),
(100,-162,l)
);
},
{
closed = 1;
nodes = (
(225,36,o),
(154,118,o),
(154,247,cs),
(154,374,o),
(225,458,o),
(334,458,cs),
(445,458,o),
(518,382,o),
(518,247,cs),
(518,112,o),
(445,36,o),
(334,36,cs)
);
}
);
width = 632;
},
{
anchors = (
{
name = bottom;
pos = (315,0);
},
{
name = top;
pos = (315,496);
}
);
layerId = "EAC7C082-8AF0-48CD-AF1D-A26CC3CBE6D4";
shapes = (
{
closed = 1;
nodes = (
(225,-162,l),
(225,70,l),
(258,15,o),
(326,-12,o),
(374,-12,cs),
(505,-12,o),
(594,85,o),
(594,248,cs),
(594,409,o),
(505,511,o),
(374,511,cs),
(326,511,o),
(258,485,o),
(225,430,c),
(206,496,l),
(60,496,l),
(60,-162,l)
);
},
{
closed = 1;
nodes = (
(266,115,o),
(217,153,o),
(217,252,cs),
(217,351,o),
(266,385,o),
(321,385,cs),
(376,385,o),
(424,334,o),
(424,248,cs),
(424,160,o),
(376,115,o),
(321,115,cs)
);
}
);
width = 632;
}
);
unicode = 112;
},
{
glyphname = thorn;
kernLeft = p;
kernRight = o;
lastChange = "2024-11-01 12:01:51 +0000";
layers = (
{
anchors = (
{
name = bottom;
pos = (314,0);
},
{
name = top;
pos = (314,496);
}
);
layerId = "451A0C9A-5D2B-4982-995B-41594B80AF49";
shapes = (
{
closed = 1;
nodes = (
(154,-162,l),
(154,85,l),
(186,33,o),
(249,-12,o),
(339,-12,cs),
(477,-12,o),
(573,83,o),
(573,247,cs),
(573,411,o),
(477,506,o),
(339,506,cs),
(253,506,o),
(189,464,o),
(154,405,c),
(154,708,l),
(100,708,l),
(100,-162,l)
);
},
{
closed = 1;
nodes = (
(225,36,o),
(154,118,o),
(154,247,cs),
(154,377,o),
(225,458,o),
(334,458,cs),
(445,458,o),
(518,382,o),
(518,247,cs),
(518,112,o),
(445,36,o),
(334,36,cs)
);
}
);
width = 632;
},
{
anchors = (
{
name = bottom;
pos = (315,0);
},
{
name = top;
pos = (315,496);
}
);
layerId = "EAC7C082-8AF0-48CD-AF1D-A26CC3CBE6D4";
shapes = (
{
closed = 1;
nodes = (
(225,-162,l),
(225,69,l),
(258,15,o),
(326,-12,o),
(374,-12,cs),
(505,-12,o),
(594,85,o),
(594,247,cs),
(594,407,o),
(505,511,o),
(374,511,cs),
(326,511,o),
(258,484,o),
(225,430,c),
(225,708,l),
(60,708,l),
(60,-162,l)
);
},
{
closed = 1;
nodes = (
(266,115,o),
(217,152,o),
(217,252,cs),
(217,350,o),
(266,384,o),
(321,384,cs),
(376,384,o),
(424,333,o),
(424,247,cs),
(424,160,o),
(376,115,o),
(321,115,cs)
);
}
);
width = 632;
}
);
unicode = 254;
},
{
glyphname = q;
kernLeft = o;
kernRight = q;
lastChange = "2024-11-01 12:01:51 +0000";
layers = (
{
anchors = (
{
name = bottom;
pos = (332,0);
},
{
name = top;
pos = (332,496);
}
);
layerId = "451A0C9A-5D2B-4982-995B-41594B80AF49";
shapes = (
{
closed = 1;
nodes = (
(597,-174,o),
(615,-169,o),
(632,-160,c),
(632,-112,l),
(617,-122,o),
(601,-126,o),
(584,-126,cs),
(548,-126,o),
(532,-104,o),
(532,-55,cs),
(532,496,l),
(492,496,l),
(478,406,l),
(444,463,o),
(382,506,o),
(293,506,cs),
(155,506,o),
(59,411,o),
(59,247,cs),
(59,83,o),
(155,-12,o),
(293,-12,cs),
(382,-12,o),
(442,31,o),
(478,86,c),
(478,-56,ls),
(478,-147,o),
(518,-174,o),
(576,-174,cs)
);
},
{
closed = 1;
nodes = (
(187,36,o),
(114,112,o),
(114,247,cs),
(114,382,o),
(187,458,o),
(298,458,cs),
(407,458,o),
(478,376,o),
(478,247,cs),
(478,118,o),
(408,36,o),
(298,36,cs)
);
}
);
width = 632;
},
{
anchors = (
{
name = bottom;
pos = (320,0);
},
{
name = top;
pos = (320,496);
}
);
layerId = "EAC7C082-8AF0-48CD-AF1D-A26CC3CBE6D4";
shapes = (
{
closed = 1;
nodes = (
(578,-174,o),
(614,-163,o),
(632,-156,c),
(632,-20,l),
(612,-27,o),
(601,-30,o),
(584,-30,cs),
(543,-30,o),
(542,4,o),
(542,44,cs),
(542,496,l),
(396,496,l),
(377,430,l),
(346,485,o),
(286,511,o),
(240,511,cs),
(120,511,o),
(38,409,o),
(38,248,cs),
(38,85,o),
(120,-12,o),
(235,-12,cs),
(286,-12,o),
(347,15,o),
(377,69,c),
(377,-6,ls),
(377,-143,o),
(453,-174,o),
(532,-174,cs)
);
},
{
closed = 1;
nodes = (
(250,115,o),
(208,160,o),
(208,250,cs),
(208,340,o),
(250,385,o),
(297,385,cs),
(343,385,o),
(385,347,o),
(385,250,cs),
(385,153,o),
(343,115,o),
(297,115,cs)
);
}
);
width = 632;
}
);
unicode = 113;
},
{
glyphname = r;
kernLeft = n;
kernRight = r;
lastChange = "2024-11-06 13:42:29 +0000";
layers = (
{
anchors = (
{
name = bottom;
pos = (189,0);
},
{
name = top;
pos = (315,496);
}
);
layerId = "451A0C9A-5D2B-4982-995B-41594B80AF49";
name = "AHL Variable 05 Mono Light Mono";
shapes = (
{
closed = 1;
nodes = (
(216,0,l),
(216,218,ls),
(216,373,o),
(313,447,o),
(433,447,cs),
(460,447,o),
(491,442,o),
(520,434,c),
(520,494,l),
(502,498,o),
(470,502,o),
(446,502,cs),
(348,502,o),
(260,458,o),
(218,371,c),
(202,496,l),
(162,496,l),
(162,0,l)
);
}
);
width = 632;
},
{
anchors = (
{
name = bottom;
pos = (193,0);
},
{
name = top;
pos = (330,496);
}
);
layerId = "EAC7C082-8AF0-48CD-AF1D-A26CC3CBE6D4";
name = "AHL Variable 05 Mono ExtraBold Mono";
shapes = (
{
closed = 1;
nodes = (
(276,0,l),
(276,180,ls),
(276,298,o),
(340,361,o),
(458,361,cs),
(502,361,o),
(547,353,o),
(581,340,c),
(581,500,l),
(551,507,o),
(520,511,o),
(488,511,cs),
(408,511,o),
(327,484,o),
(268,405,c),
(242,496,l),
(111,496,l),
(111,0,l)
);
}
);
width = 632;
}
);
unicode = 114;
},
{
glyphname = s;
kernLeft = s;
kernRight = s;
lastChange = "2024-11-01 12:01:51 +0000";
layers = (
{
anchors = (
{
name = bottom;
pos = (325,0);
},
{
name = top;
pos = (314,496);
}
);
layerId = "451A0C9A-5D2B-4982-995B-41594B80AF49";
name = "AHL Variable 05 Mono Light Mono";
shapes = (
{
closed = 1;
nodes = (
(437,-12,o),
(522,43,o),
(522,134,cs),
(522,221,o),
(462,254,o),
(358,276,cs),
(279,293,ls),
(219,306,o),
(177,329,o),
(177,374,cs),
(177,429,o),
(237,458,o),
(312,458,cs),
(379,458,o),
(435,434,o),
(453,387,c),
(504,407,l),
(477,470,o),
(407,506,o),
(314,506,cs),
(205,506,o),
(125,453,o),
(125,371,cs),
(125,295,o),
(179,263,o),
(265,245,cs),
(344,228,ls),
(417,212,o),
(470,192,o),
(470,130,cs),
(470,75,o),
(418,36,o),
(325,36,cs),
(240,36,o),
(181,71,o),
(163,132,c),
(110,112,l),
(141,25,o),
(235,-12,o),
(324,-12,cs)
);
}
);
width = 632;
},
{
anchors = (
{
name = bottom;
pos = (322,0);
},
{
name = top;
pos = (322,496);
}
);
layerId = "EAC7C082-8AF0-48CD-AF1D-A26CC3CBE6D4";
name = "AHL Variable 05 Mono ExtraBold Mono";
shapes = (
{
closed = 1;
nodes = (
(457,-12,o),
(566,43,o),
(566,158,cs),
(566,242,o),
(518,282,o),
(392,304,cs),
(297,321,ls),
(253,329,o),
(241,338,o),
(241,356,cs),
(241,378,o),
(263,395,o),
(318,395,cs),
(367,395,o),
(399,378,o),
(413,343,c),
(551,394,l),
(511,480,o),
(418,511,o),
(320,511,cs),
(198,511,o),
(85,456,o),
(85,347,cs),
(85,268,o),
(150,218,o),
(250,201,cs),
(340,185,ls),
(397,175,o),
(410,162,o),
(410,147,cs),
(410,118,o),
(367,105,o),
(323,105,cs),
(264,105,o),
(216,126,o),
(204,165,c),
(66,114,l),
(103,34,o),
(197,-12,o),
(321,-12,cs)
);
}
);
width = 632;
}
);
unicode = 115;
},
{
glyphname = scedilla;
kernLeft = s;
kernRight = s;
lastChange = "2024-11-01 12:01:51 +0000";
layers = (
{
anchors = (
{
name = top;
pos = (314,496);
}
);
layerId = "451A0C9A-5D2B-4982-995B-41594B80AF49";
shapes = (
{
closed = 1;
nodes = (
(378,-177,o),
(404,-130,o),
(404,-99,cs),
(404,-71,o),
(383,-44,o),
(342,-44,cs),
(336,-44,o),
(324,-45,o),
(311,-48,c),
(334,-12,l),
(442,-9,o),
(522,46,o),
(522,134,cs),
(522,221,o),
(462,254,o),
(358,276,cs),
(279,293,ls),
(219,306,o),
(177,329,o),
(177,374,cs),
(177,429,o),
(237,458,o),
(312,458,cs),
(379,458,o),
(435,434,o),
(453,387,c),
(504,407,l),
(477,470,o),
(407,506,o),
(314,506,cs),
(205,506,o),
(125,453,o),
(125,371,cs),
(125,295,o),
(179,263,o),
(265,245,cs),
(344,228,ls),
(417,212,o),
(470,192,o),
(470,130,cs),
(470,75,o),
(418,36,o),
(325,36,cs),
(240,36,o),
(181,71,o),
(163,132,c),
(110,112,l),
(138,34,o),
(217,-4,o),
(297,-11,c),
(270,-55,ls),
(261,-69,o),
(264,-83,o),
(279,-83,cs),
(289,-83,o),
(306,-77,o),
(321,-77,cs),
(351,-77,o),
(362,-89,o),
(362,-107,cs),
(362,-121,o),
(351,-145,o),
(314,-145,cs),
(294,-145,o),
(277,-142,o),
(249,-128,c),
(235,-153,l),
(258,-167,o),
(291,-177,o),
(316,-177,cs)
);
}
);
width = 632;
},
{
anchors = (
{
name = top;
pos = (322,496);
}
);
layerId = "EAC7C082-8AF0-48CD-AF1D-A26CC3CBE6D4";
shapes = (
{
closed = 1;
nodes = (
(375,-188,o),
(444,-170,o),
(444,-108,cs),
(444,-59,o),
(391,-46,o),
(354,-46,cs),
(339,-46,o),
(328,-47,o),
(320,-49,c),
(344,-11,l),
(469,-6,o),
(566,49,o),
(566,158,cs),
(566,242,o),
(518,282,o),
(392,304,cs),
(297,321,ls),
(253,329,o),
(241,338,o),
(241,356,cs),
(241,378,o),
(263,395,o),
(318,395,cs),
(367,395,o),
(399,378,o),
(413,343,c),
(551,394,l),
(511,480,o),
(418,511,o),
(320,511,cs),
(198,511,o),
(85,456,o),
(85,347,cs),
(85,268,o),
(150,218,o),
(250,201,cs),
(340,185,ls),
(397,175,o),
(410,162,o),
(410,147,cs),
(410,118,o),
(367,105,o),
(323,105,cs),
(264,105,o),
(216,126,o),
(204,165,c),
(66,114,l),
(99,42,o),
(179,-3,o),
(285,-11,c),
(255,-59,ls),
(246,-75,o),
(256,-96,o),
(280,-90,cs),
(289,-87,o),
(299,-85,o),
(306,-85,cs),
(328,-85,o),
(344,-94,o),
(344,-111,cs),
(344,-131,o),
(323,-136,o),
(301,-136,cs),
(275,-136,o),
(248,-129,o),
(239,-124,c),
(223,-176,l),
(246,-183,o),
(278,-188,o),
(311,-188,cs)
);
}
);
width = 632;
}
);
metricLeft = s;
metricRight = s;
unicode = 351;
},
{
glyphname = germandbls;
kernLeft = germandbls;
kernRight = germandbls;
lastChange = "2024-11-01 12:01:51 +0000";
layers = (
{
layerId = "451A0C9A-5D2B-4982-995B-41594B80AF49";
shapes = (
{
closed = 1;
nodes = (
(467,-14,o),
(578,55,o),
(578,205,cs),
(578,317,o),
(502,394,o),
(395,416,c),
(468,442,o),
(494,486,o),
(494,541,cs),
(494,613,o),
(421,680,o),
(306,680,cs),
(164,680,o),
(98,589,o),
(98,469,cs),
(98,0,l),
(152,0,l),
(152,467,ls),
(152,590,o),
(223,632,o),
(304,632,cs),
(384,632,o),
(441,592,o),
(441,540,cs),
(441,487,o),
(392,435,o),
(289,435,c),
(289,387,l),
(301,387,ls),
(425,387,o),
(524,314,o),
(524,205,cs),
(524,91,o),
(451,33,o),
(327,33,cs),
(312,33,o),
(298,33,o),
(282,35,c),
(297,-13,l),
(307,-14,o),
(317,-14,o),
(326,-14,cs)
);
}
);
width = 632;
},
{
layerId = "EAC7C082-8AF0-48CD-AF1D-A26CC3CBE6D4";
shapes = (
{
closed = 1;
nodes = (
(506,-13,o),
(617,49,o),
(617,208,cs),
(617,304,o),
(560,379,o),
(481,401,c),
(497,420,o),
(522,459,o),
(522,509,cs),
(522,623,o),
(427,680,o),
(303,680,cs),
(149,680,o),
(50,628,o),
(50,459,cs),
(50,0,l),
(215,0,l),
(215,452,ls),
(215,523,o),
(231,559,o),
(307,559,cs),
(364,559,o),
(386,535,o),
(386,504,cs),
(386,466,o),
(359,447,o),
(289,450,c),
(289,322,l),
(302,322,ls),
(387,322,o),
(449,290,o),
(449,212,cs),
(449,143,o),
(393,122,o),
(337,122,cs),
(309,122,o),
(281,127,o),
(259,134,c),
(302,-8,l),
(325,-11,o),
(347,-13,o),
(369,-13,cs)
);
}
);
width = 632;
}
);
unicode = 223;
},
{
glyphname = t;
kernLeft = t;
kernRight = t;
lastChange = "2024-11-01 12:01:51 +0000";
layers = (
{
anchors = (
{
name = bottom;
pos = (335,0);
},
{
name = center;
pos = (285,248);
},
{
name = top;
pos = (285,496);
},
{
name = topright;
pos = (324,542);
}
);
layerId = "451A0C9A-5D2B-4982-995B-41594B80AF49";
name = "AHL Variable 05 Mono Light Mono";
shapes = (
{
closed = 1;
nodes = (
(459,0,l),
(459,48,l),
(349,48,ls),
(303,48,o),
(294,59,o),
(294,117,cs),
(294,452,l),
(509,452,l),
(509,496,l),
(294,496,l),
(294,620,l),
(240,620,l),
(240,496,l),
(130,496,l),
(130,452,l),
(240,452,l),
(240,116,ls),
(240,20,o),
(265,0,o),
(345,0,cs)
);
}
);
width = 632;
},
{
anchors = (
{
name = bottom;
pos = (323,0);
},
{
name = center;
pos = (288,248);
},
{
name = top;
pos = (288,496);
},
{
name = topright;
pos = (381,554);
}
);
layerId = "EAC7C082-8AF0-48CD-AF1D-A26CC3CBE6D4";
name = "AHL Variable 05 Mono ExtraBold Mono";
shapes = (
{
closed = 1;
nodes = (
(501,0,l),
(501,129,l),
(417,129,ls),
(368,129,o),
(351,138,o),
(351,184,cs),
(351,372,l),
(551,372,l),
(551,496,l),
(351,496,l),
(351,620,l),
(186,620,l),
(186,496,l),
(88,496,l),
(88,372,l),
(186,372,l),
(186,143,ls),
(186,23,o),
(231,0,o),
(359,0,cs)
);
}
);
width = 632;
}
);
unicode = 116;
},
{
glyphname = tcedilla;
kernLeft = t;
kernRight = t;
lastChange = "2024-11-01 12:01:51 +0000";
layers = (
{
anchors = (
{
name = center;
pos = (285,248);
},
{
name = top;
pos = (285,496);
},
{
name = topright;
pos = (324,542);
}
);
layerId = "451A0C9A-5D2B-4982-995B-41594B80AF49";
shapes = (
{
closed = 1;
nodes = (
(388,-177,o),
(414,-130,o),
(414,-99,cs),
(414,-71,o),
(393,-44,o),
(352,-44,cs),
(346,-44,o),
(334,-45,o),
(321,-48,c),
(352,0,l),
(459,0,l),
(459,48,l),
(349,48,ls),
(303,48,o),
(294,59,o),
(294,117,cs),
(294,452,l),
(509,452,l),
(509,496,l),
(294,496,l),
(294,620,l),
(240,620,l),
(240,496,l),
(130,496,l),
(130,452,l),
(240,452,l),
(240,116,ls),
(240,33,o),
(258,7,o),
(315,1,c),
(280,-55,ls),
(271,-69,o),
(274,-83,o),
(289,-83,cs),
(299,-83,o),
(316,-77,o),
(331,-77,cs),
(361,-77,o),
(372,-89,o),
(372,-107,cs),
(372,-121,o),
(361,-145,o),
(324,-145,cs),
(304,-145,o),
(287,-142,o),
(259,-128,c),
(245,-153,l),
(268,-167,o),
(301,-177,o),
(326,-177,cs)
);
}
);
width = 632;
},
{
anchors = (
{
name = center;
pos = (288,248);
},
{
name = top;
pos = (288,496);
},
{
name = topright;
pos = (381,554);
}
);
layerId = "EAC7C082-8AF0-48CD-AF1D-A26CC3CBE6D4";
shapes = (
{
closed = 1;
nodes = (
(376,-188,o),
(445,-170,o),
(445,-108,cs),
(445,-59,o),
(392,-46,o),
(355,-46,cs),
(340,-46,o),
(329,-47,o),
(321,-49,c),
(352,0,l),
(501,0,l),
(501,129,l),
(417,129,ls),
(368,129,o),
(351,138,o),
(351,184,cs),
(351,372,l),
(551,372,l),
(551,496,l),
(351,496,l),
(351,620,l),
(186,620,l),
(186,496,l),
(88,496,l),
(88,372,l),
(186,372,l),
(186,143,ls),
(186,46,o),
(215,12,o),
(294,3,c),
(256,-59,ls),
(247,-75,o),
(257,-96,o),
(281,-90,cs),
(290,-87,o),
(300,-85,o),
(307,-85,cs),
(329,-85,o),
(345,-94,o),
(345,-111,cs),
(345,-131,o),
(324,-136,o),
(302,-136,cs),
(276,-136,o),
(249,-129,o),
(240,-124,c),
(224,-176,l),
(247,-183,o),
(279,-188,o),
(312,-188,cs)
);
}
);
width = 632;
}
);
unicode = 355;
},
{
color = 6;
glyphname = tcommaaccent;
kernLeft = t;
kernRight = t;
lastChange = "2024-11-01 11:55:55 +0000";
layers = (
{
background = {
anchors = (
{
name = _bottom;
pos = (176,0);
},
{
name = bottom;
pos = (179,0);
},
{
name = center;
pos = (149,248);
},
{
name = top;
pos = (149,496);
},
{
name = topright;
pos = (188,542);
}
);
shapes = (
{
closed = 1;
nodes = (
(258,0,l),
(258,48,l),
(213,48,ls),
(162,48,o),
(158,64,o),
(158,117,cs),
(158,452,l),
(259,452,l),
(259,496,l),
(158,496,l),
(158,622,l),
(104,622,l),
(104,496,l),
(19,496,l),
(19,452,l),
(104,452,l),
(104,116,ls),
(104,20,o),
(129,0,o),
(209,0,cs)
);
},
{
closed = 1;
nodes = (
(190,-229,o),
(241,-191,o),
(241,-127,cs),
(241,-97,o),
(229,-75,o),
(202,-52,c),
(159,-70,l),
(185,-86,o),
(196,-110,o),
(196,-135,cs),
(196,-186,o),
(148,-204,o),
(115,-207,c),
(145,-232,l)
);
}
);
};
layerId = "451A0C9A-5D2B-4982-995B-41594B80AF49";
shapes = (
{
ref = t;
},
{
pos = (7,0);
ref = commaaccentcomb;
}
);
width = 632;
},
{
background = {
anchors = (
{
name = _bottom;
pos = (222,0);
},
{
name = bottom;
pos = (222,0);
},
{
name = center;
pos = (192,248);
},
{
name = topright;
pos = (285,554);
}
);
shapes = (
{
closed = 1;
nodes = (
(363,0,l),
(363,133,l),
(321,133,ls),
(272,133,o),
(255,142,o),
(255,188,cs),
(255,371,l),
(363,371,l),
(363,496,l),
(255,496,l),
(255,620,l),
(90,620,l),
(90,496,l),
(8,496,l),
(8,371,l),
(90,371,l),
(90,143,ls),
(90,23,o),
(135,0,o),
(263,0,cs)
);
},
{
closed = 1;
nodes = (
(275,-251,o),
(337,-202,o),
(337,-141,cs),
(337,-104,o),
(314,-69,o),
(248,-43,c),
(138,-86,l),
(176,-94,o),
(209,-116,o),
(209,-145,cs),
(209,-179,o),
(175,-204,o),
(106,-204,c),
(160,-251,l)
);
}
);
};
layerId = "EAC7C082-8AF0-48CD-AF1D-A26CC3CBE6D4";
shapes = (
{
ref = t;
},
{
pos = (-4,0);
ref = commaaccentcomb;
}
);
width = 632;
}
);
unicode = 539;
},
{
glyphname = u;
kernLeft = u;
kernRight = u;
lastChange = "2024-11-01 12:01:51 +0000";
layers = (
{
anchors = (
{
name = bottom;
pos = (303,0);
},
{
name = ogonek;
pos = (511,10);
},
{
name = top;
pos = (314,496);
},
{
name = topright;
pos = (553,496);
}
);
layerId = "451A0C9A-5D2B-4982-995B-41594B80AF49";
name = "AHL Variable 05 Mono Light Mono";
shapes = (
{
closed = 1;
nodes = (
(384,-12,o),
(436,36,o),
(459,80,c),
(471,0,l),
(511,0,l),
(511,496,l),
(457,496,l),
(457,220,ls),
(457,102,o),
(391,36,o),
(299,36,cs),
(203,36,o),
(172,97,o),
(172,186,cs),
(172,496,l),
(118,496,l),
(118,169,ls),
(118,64,o),
(168,-12,o),
(293,-12,cs)
);
}
);
width = 632;
},
{
anchors = (
{
name = bottom;
pos = (315,0);
},
{
name = ogonek;
pos = (555,10);
},
{
name = top;
pos = (315,496);
},
{
name = topright;
pos = (583,496);
}
);
layerId = "EAC7C082-8AF0-48CD-AF1D-A26CC3CBE6D4";
name = "AHL Variable 05 Mono ExtraBold Mono";
shapes = (
{
closed = 1;
nodes = (
(323,-12,o),
(361,20,o),
(390,70,c),
(411,0,l),
(555,0,l),
(555,496,l),
(390,496,l),
(390,237,ls),
(390,148,o),
(370,114,o),
(309,114,cs),
(238,114,o),
(238,172,o),
(238,242,cs),
(238,496,l),
(73,496,l),
(73,201,ls),
(73,62,o),
(114,-12,o),
(248,-12,cs)
);
}
);
width = 632;
}
);
unicode = 117;
},
{
glyphname = uogonek;
kernLeft = u;
kernRight = u;
lastChange = "2024-11-01 12:01:51 +0000";
layers = (
{
anchors = (
{
name = top;
pos = (314,496);
},
{
name = topright;
pos = (553,496);
}
);
layerId = "451A0C9A-5D2B-4982-995B-41594B80AF49";
shapes = (
{
closed = 1;
nodes = (
(384,-12,o),
(436,36,o),
(459,80,c),
(469,14,l),
(411,-15,o),
(381,-47,o),
(381,-94,cs),
(381,-140,o),
(416,-168,o),
(463,-168,cs),
(479,-168,o),
(491,-167,o),
(511,-159,c),
(511,-120,l),
(502,-124,o),
(490,-127,o),
(477,-127,cs),
(449,-127,o),
(426,-114,o),
(426,-84,cs),
(426,-50,o),
(458,-17,o),
(511,0,c),
(511,496,l),
(457,496,l),
(457,220,ls),
(457,102,o),
(391,36,o),
(299,36,cs),
(203,36,o),
(172,97,o),
(172,186,cs),
(172,496,l),
(118,496,l),
(118,169,ls),
(118,64,o),
(168,-12,o),
(293,-12,cs)
);
}
);
width = 632;
},
{
anchors = (
{
name = top;
pos = (315,496);
},
{
name = topright;
pos = (583,496);
}
);
layerId = "EAC7C082-8AF0-48CD-AF1D-A26CC3CBE6D4";
shapes = (
{
closed = 1;
nodes = (
(323,-12,o),
(361,20,o),
(390,70,c),
(407,14,l),
(367,-4,o),
(322,-31,o),
(322,-84,cs),
(322,-121,o),
(352,-176,o),
(473,-176,cs),
(499,-176,o),
(541,-171,o),
(555,-167,c),
(555,-86,l),
(542,-90,o),
(522,-95,o),
(504,-95,cs),
(483,-95,o),
(458,-88,o),
(458,-65,cs),
(458,-41,o),
(486,-13,o),
(555,0,c),
(555,496,l),
(390,496,l),
(390,237,ls),
(390,148,o),
(370,114,o),
(309,114,cs),
(238,114,o),
(238,172,o),
(238,242,cs),
(238,496,l),
(73,496,l),
(73,201,ls),
(73,62,o),
(114,-12,o),
(248,-12,cs)
);
}
);
width = 632;
}
);
metricLeft = u;
metricRight = u;
unicode = 371;
},
{
glyphname = v;
kernLeft = v;
kernRight = v;
lastChange = "2024-11-01 12:01:51 +0000";
layers = (
{
anchors = (
{
name = bottom;
pos = (317,0);
},
{
name = top;
pos = (317,496);
}
);
layerId = "451A0C9A-5D2B-4982-995B-41594B80AF49";
name = "AHL Variable 05 Mono Light Mono";
shapes = (
{
closed = 1;
nodes = (
(337,0,l),
(566,496,l),
(508,496,l),
(320,72,l),
(316,72,l),
(125,496,l),
(66,496,l),
(295,0,l)
);
}
);
width = 632;
},
{
anchors = (
{
name = bottom;
pos = (316,0);
},
{
name = top;
pos = (316,496);
}
);
layerId = "EAC7C082-8AF0-48CD-AF1D-A26CC3CBE6D4";
name = "AHL Variable 05 Mono ExtraBold Mono";
shapes = (
{
closed = 1;
nodes = (
(409,0,l),
(587,496,l),
(419,496,l),
(319,167,l),
(315,167,l),
(215,496,l),
(45,496,l),
(222,0,l)
);
}
);
width = 632;
}
);
unicode = 118;
},
{
glyphname = w;
kernLeft = v;
kernRight = v;
lastChange = "2024-11-01 12:01:51 +0000";
layers = (
{
anchors = (
{
name = bottom;
pos = (315,0);
},
{
name = top;
pos = (316,496);
}
);
layerId = "451A0C9A-5D2B-4982-995B-41594B80AF49";
shapes = (
{
closed = 1;
nodes = (
(209,0,l),
(314,418,l),
(318,418,l),
(424,0,l),
(469,0,l),
(597,496,l),
(544,496,l),
(450,95,l),
(446,95,l),
(341,496,l),
(291,496,l),
(190,93,l),
(186,93,l),
(89,496,l),
(35,496,l),
(164,0,l)
);
}
);
width = 632;
},
{
anchors = (
{
name = bottom;
pos = (317,0);
},
{
name = top;
pos = (318,496);
}
);
guides = (
{
angle = 90;
pos = (315,400);
}
);
layerId = "EAC7C082-8AF0-48CD-AF1D-A26CC3CBE6D4";
shapes = (
{
closed = 1;
nodes = (
(262,0,l),
(313,325,l),
(317,325,l),
(370,0,l),
(519,0,l),
(619,496,l),
(489,496,l),
(433,166,l),
(429,166,l),
(383,496,l),
(252,496,l),
(206,166,l),
(202,166,l),
(145,496,l),
(13,496,l),
(113,0,l)
);
}
);
width = 632;
}
);
unicode = 119;
},
{
glyphname = x;
kernLeft = x;
kernRight = x;
lastChange = "2024-11-01 12:01:51 +0000";
layers = (
{
anchors = (
{
name = bottom;
pos = (317,0);
},
{
name = top;
pos = (317,496);
}
);
layerId = "451A0C9A-5D2B-4982-995B-41594B80AF49";
shapes = (
{
closed = 1;
nodes = (
(141,0,l),
(313,217,l),
(317,217,l),
(490,0,l),
(555,0,l),
(354,252,l),
(548,496,l),
(485,496,l),
(317,287,l),
(313,287,l),
(149,496,l),
(85,496,l),
(279,253,l),
(78,0,l)
);
}
);
width = 632;
},
{
anchors = (
{
name = bottom;
pos = (317,0);
},
{
name = top;
pos = (317,496);
}
);
layerId = "EAC7C082-8AF0-48CD-AF1D-A26CC3CBE6D4";
shapes = (
{
closed = 1;
nodes = (
(219,0,l),
(314,135,l),
(318,135,l),
(413,0,l),
(592,0,l),
(405,260,l),
(576,496,l),
(398,496,l),
(320,385,l),
(316,385,l),
(236,496,l),
(56,496,l),
(228,260,l),
(40,0,l)
);
}
);
width = 632;
}
);
unicode = 120;
},
{
glyphname = y;
kernLeft = v;
kernRight = v;
lastChange = "2024-11-01 12:01:51 +0000";
layers = (
{
anchors = (
{
name = bottom;
pos = (313,0);
},
{
name = top;
pos = (316,496);
}
);
layerId = "451A0C9A-5D2B-4982-995B-41594B80AF49";
shapes = (
{
closed = 1;
nodes = (
(174,-162,ls),
(257,-162,o),
(274,-135,o),
(302,-75,cs),
(566,496,l),
(508,496,l),
(320,73,l),
(316,73,l),
(125,496,l),
(66,496,l),
(289,11,l),
(256,-59,ls),
(234,-105,o),
(220,-114,o),
(175,-114,cs),
(98,-114,l),
(98,-162,l)
);
}
);
width = 632;
},
{
anchors = (
{
name = bottom;
pos = (316,0);
},
{
name = top;
pos = (316,496);
}
);
layerId = "EAC7C082-8AF0-48CD-AF1D-A26CC3CBE6D4";
shapes = (
{
closed = 1;
nodes = (
(172,-162,ls),
(306,-162,o),
(340,-127,o),
(391,2,cs),
(587,496,l),
(410,496,l),
(319,197,l),
(315,197,l),
(221,496,l),
(45,496,l),
(241,4,l),
(236,-8,ls),
(225,-35,o),
(205,-42,o),
(145,-42,cs),
(73,-42,l),
(73,-162,l)
);
}
);
width = 632;
}
);
unicode = 121;
},
{
glyphname = z;
kernLeft = z;
kernRight = z;
lastChange = "2024-11-01 12:01:51 +0000";
layers = (
{
anchors = (
{
name = bottom;
pos = (311,0);
},
{
name = center;
pos = (311,248);
},
{
name = top;
pos = (327,496);
}
);
layerId = "451A0C9A-5D2B-4982-995B-41594B80AF49";
shapes = (
{
closed = 1;
nodes = (
(536,0,l),
(536,48,l),
(172,48,l),
(527,448,l),
(527,496,l),
(113,496,l),
(113,448,l),
(460,448,l),
(105,48,l),
(105,0,l)
);
}
);
width = 632;
},
{
anchors = (
{
name = bottom;
pos = (316,0);
},
{
name = center;
pos = (316,248);
},
{
name = top;
pos = (327,496);
}
);
layerId = "EAC7C082-8AF0-48CD-AF1D-A26CC3CBE6D4";
shapes = (
{
closed = 1;
nodes = (
(573,0,l),
(573,130,l),
(292,130,l),
(558,366,l),
(558,496,l),
(85,496,l),
(85,366,l),
(337,366,l),
(69,130,l),
(69,0,l)
);
}
);
width = 632;
}
);
unicode = 122;
},
{
export = 0;
glyphname = r.ss01;
kernLeft = n;
kernRight = r;
lastChange = "2024-11-06 13:42:29 +0000";
layers = (
{
anchors = (
{
name = bottom;
pos = (243,0);
},
{
name = top;
pos = (325,496);
}
);
layerId = "451A0C9A-5D2B-4982-995B-41594B80AF49";
name = "AHL Variable 05 Mono Light Mono";
shapes = (
{
closed = 1;
nodes = (
(216,0,l),
(216,218,ls),
(216,373,o),
(319,447,o),
(429,447,cs),
(455,447,o),
(491,440,o),
(520,428,c),
(520,490,l),
(502,497,o),
(466,502,o),
(441,502,cs),
(349,502,o),
(252,452,o),
(218,371,c),
(202,496,l),
(162,496,l),
(162,0,l)
);
}
);
width = 632;
},
{
anchors = (
{
name = bottom;
pos = (254,0);
},
{
name = top;
pos = (340,496);
}
);
layerId = "EAC7C082-8AF0-48CD-AF1D-A26CC3CBE6D4";
name = "AHL Variable 05 Mono ExtraBold Mono";
shapes = (
{
closed = 1;
nodes = (
(276,0,l),
(276,190,ls),
(276,298,o),
(337,362,o),
(450,362,cs),
(499,362,o),
(543,348,o),
(591,325,c),
(591,490,l),
(560,503,o),
(523,511,o),
(484,511,cs),
(407,511,o),
(324,481,o),
(268,405,c),
(242,496,l),
(111,496,l),
(111,0,l)
);
}
);
width = 632;
}
);
},
{
export = 0;
glyphname = r.ss02;
kernLeft = n;
kernRight = r;
lastChange = "2024-11-06 13:42:29 +0000";
layers = (
{
anchors = (
{
name = bottom;
pos = (241,0);
},
{
name = top;
pos = (323,496);
}
);
layerId = "451A0C9A-5D2B-4982-995B-41594B80AF49";
name = "AHL Variable 05 Mono Light Mono";
shapes = (
{
closed = 1;
nodes = (
(214,0,l),
(214,218,ls),
(214,373,o),
(314,456,o),
(424,456,cs),
(490,456,o),
(543,421,o),
(559,359,c),
(528,356,l),
(625,379,l),
(615,374,l),
(586,467,o),
(515,506,o),
(430,506,cs),
(339,506,o),
(253,457,o),
(216,376,c),
(200,496,l),
(160,496,l),
(160,0,l)
);
}
);
width = 632;
},
{
anchors = (
{
name = bottom;
pos = (224,0);
},
{
name = top;
pos = (310,496);
}
);
layerId = "EAC7C082-8AF0-48CD-AF1D-A26CC3CBE6D4";
name = "AHL Variable 05 Mono ExtraBold Mono";
shapes = (
{
closed = 1;
nodes = (
(246,0,l),
(246,175,ls),
(246,312,o),
(310,377,o),
(389,377,cs),
(450,377,o),
(483,337,o),
(480,271,c),
(409,301,l),
(685,399,l),
(630,357,l),
(611,444,o),
(550,511,o),
(437,511,cs),
(365,511,o),
(294,483,o),
(242,417,c),
(220,496,l),
(81,496,l),
(81,0,l)
);
}
);
width = 632;
}
);
},
{
glyphname = ordfeminine;
kernLeft = ordfeminine;
kernRight = ordfeminine;
lastChange = "2024-11-01 12:01:51 +0000";
layers = (
{
layerId = "451A0C9A-5D2B-4982-995B-41594B80AF49";
shapes = (
{
closed = 1;
nodes = (
(329,335,o),
(372,351,o),
(400,394,c),
(414,343,l),
(461,343,l),
(449,365,o),
(445,388,o),
(445,445,cs),
(445,547,ls),
(445,653,o),
(389,693,o),
(314,693,cs),
(245,693,o),
(195,653,o),
(181,604,c),
(223,595,l),
(234,631,o),
(270,652,o),
(315,652,cs),
(399,652,o),
(400,592,o),
(400,548,c),
(245,538,o),
(168,505,o),
(168,428,cs),
(168,366,o),
(210,335,o),
(278,335,cs)
);
},
{
closed = 1;
nodes = (
(239,373,o),
(218,389,o),
(218,426,cs),
(218,478,o),
(263,501,o),
(399,510,c),
(399,490,ls),
(399,429,o),
(361,373,o),
(284,373,cs)
);
}
);
width = 632;
},
{
layerId = "EAC7C082-8AF0-48CD-AF1D-A26CC3CBE6D4";
shapes = (
{
closed = 1;
nodes = (
(330,335,o),
(362,354,o),
(380,383,c),
(391,343,l),
(489,343,l),
(482,390,o),
(482,435,o),
(482,481,cs),
(482,555,ls),
(482,655,o),
(428,693,o),
(330,693,cs),
(247,693,o),
(188,667,o),
(165,617,c),
(264,583,l),
(269,606,o),
(292,613,o),
(316,613,cs),
(354,613,o),
(369,599,o),
(369,566,c),
(210,553,o),
(143,522,o),
(143,438,cs),
(143,380,o),
(190,335,o),
(271,335,cs)
);
},
{
closed = 1;
nodes = (
(275,415,o),
(261,429,o),
(261,447,cs),
(261,473,o),
(285,495,o),
(371,494,c),
(371,473,ls),
(371,438,o),
(342,415,o),
(304,415,cs)
);
}
);
width = 632;
}
);
unicode = 170;
},
{
glyphname = ordmasculine;
kernLeft = ordmasculine;
kernRight = ordmasculine;
lastChange = "2024-11-01 12:01:51 +0000";
layers = (
{
layerId = "451A0C9A-5D2B-4982-995B-41594B80AF49";
shapes = (
{
closed = 1;
nodes = (
(395,335,o),
(474,392,o),
(474,514,cs),
(474,634,o),
(395,693,o),
(315,693,cs),
(235,693,o),
(158,634,o),
(158,514,cs),
(158,392,o),
(235,335,o),
(315,335,cs)
);
},
{
closed = 1;
nodes = (
(251,376,o),
(208,430,o),
(208,514,cs),
(208,598,o),
(251,652,o),
(315,652,cs),
(380,652,o),
(424,598,o),
(424,514,cs),
(424,430,o),
(380,376,o),
(315,376,cs)
);
}
);
width = 632;
},
{
layerId = "EAC7C082-8AF0-48CD-AF1D-A26CC3CBE6D4";
shapes = (
{
closed = 1;
nodes = (
(416,335,o),
(498,392,o),
(498,514,cs),
(498,637,o),
(416,693,o),
(317,693,cs),
(218,693,o),
(134,637,o),
(134,514,cs),
(134,392,o),
(218,335,o),
(317,335,cs)
);
},
{
closed = 1;
nodes = (
(280,424,o),
(251,455,o),
(251,514,cs),
(251,574,o),
(280,605,o),
(317,605,cs),
(355,605,o),
(381,574,o),
(381,514,cs),
(381,455,o),
(355,424,o),
(317,424,cs)
);
}
);
width = 632;
}
);
unicode = 186;
},
{
glyphname = Delta;
kernLeft = A;
kernRight = A;
lastChange = "2024-11-01 12:01:51 +0000";
layers = (
{
layerId = "451A0C9A-5D2B-4982-995B-41594B80AF49";
shapes = (
{
closed = 1;
nodes = (
(597,0,l),
(346,668,l),
(287,668,l),
(35,0,l)
);
},
{
closed = 1;
nodes = (
(314,609,l),
(318,609,l),
(523,48,l),
(109,48,l)
);
}
);
width = 632;
},
{
layerId = "EAC7C082-8AF0-48CD-AF1D-A26CC3CBE6D4";
shapes = (
{
closed = 1;
nodes = (
(601,0,l),
(406,668,l),
(226,668,l),
(31,0,l)
);
},
{
closed = 1;
nodes = (
(310,495,l),
(314,495,l),
(408,137,l),
(216,137,l)
);
}
);
width = 632;
}
);
metricLeft = A;
metricRight = A;
unicode = 916;
},
{
glyphname = Omega;
kernLeft = Omega;
kernRight = Omega;
lastChange = "2024-11-01 12:01:51 +0000";
layers = (
{
layerId = "451A0C9A-5D2B-4982-995B-41594B80AF49";
shapes = (
{
closed = 1;
nodes = (
(248,0,l),
(248,147,l),
(151,179,o),
(85,274,o),
(85,383,cs),
(85,524,o),
(190,632,o),
(316,632,cs),
(442,632,o),
(547,524,o),
(547,383,cs),
(547,274,o),
(481,179,o),
(384,147,c),
(384,0,l),
(603,0,l),
(603,48,l),
(432,48,l),
(432,115,l),
(531,164,o),
(595,272,o),
(595,384,cs),
(595,550,o),
(470,680,o),
(316,680,cs),
(162,680,o),
(37,550,o),
(37,384,cs),
(37,272,o),
(101,164,o),
(200,115,c),
(200,48,l),
(29,48,l),
(29,0,l)
);
}
);
width = 632;
},
{
layerId = "EAC7C082-8AF0-48CD-AF1D-A26CC3CBE6D4";
shapes = (
{
closed = 1;
nodes = (
(297,0,l),
(297,232,l),
(216,242,o),
(153,311,o),
(153,393,cs),
(153,483,o),
(226,556,o),
(316,556,cs),
(406,556,o),
(479,483,o),
(479,393,cs),
(479,311,o),
(416,242,o),
(335,232,c),
(335,0,l),
(599,0,l),
(599,121,l),
(474,121,l),
(474,141,l),
(555,193,o),
(609,284,o),
(609,386,cs),
(609,548,o),
(478,680,o),
(316,680,cs),
(154,680,o),
(23,548,o),
(23,386,cs),
(23,284,o),
(77,193,o),
(158,141,c),
(158,121,l),
(33,121,l),
(33,0,l)
);
}
);
width = 632;
}
);
unicode = 937;
},
{
glyphname = mu;
kernLeft = p;
kernRight = u;
lastChange = "2024-11-01 12:01:51 +0000";
layers = (
{
layerId = "451A0C9A-5D2B-4982-995B-41594B80AF49";
shapes = (
{
closed = 1;
nodes = (
(183,-162,l),
(183,36,l),
(196,7,o),
(244,-12,o),
(297,-12,cs),
(381,-12,o),
(427,37,o),
(450,78,c),
(454,27,o),
(472,0,o),
(545,0,cs),
(557,0,l),
(557,46,l),
(547,46,ls),
(510,46,o),
(504,58,o),
(504,96,cs),
(504,496,l),
(450,496,l),
(450,220,ls),
(450,102,o),
(388,36,o),
(302,36,cs),
(212,36,o),
(183,97,o),
(183,186,cs),
(183,496,l),
(129,496,l),
(129,-162,l)
);
}
);
width = 632;
},
{
layerId = "EAC7C082-8AF0-48CD-AF1D-A26CC3CBE6D4";
shapes = (
{
closed = 1;
nodes = (
(215,-162,l),
(215,11,l),
(234,-4,o),
(258,-12,o),
(287,-12,cs),
(317,-12,o),
(358,-4,o),
(387,47,c),
(406,19,o),
(440,0,o),
(518,0,cs),
(612,0,l),
(612,132,l),
(592,132,ls),
(545,132,o),
(533,143,o),
(533,198,cs),
(533,496,l),
(367,496,l),
(367,237,ls),
(367,148,o),
(346,114,o),
(286,114,cs),
(215,114,o),
(215,172,o),
(215,242,cs),
(215,496,l),
(50,496,l),
(50,-162,l)
);
}
);
width = 632;
}
);
unicode = 956;
},
{
glyphname = pi;
kernLeft = pi;
kernRight = pi;
lastChange = "2024-11-01 12:01:51 +0000";
layers = (
{
layerId = "451A0C9A-5D2B-4982-995B-41594B80AF49";
shapes = (
{
closed = 1;
nodes = (
(198,0,l),
(198,452,l),
(407,452,l),
(407,127,ls),
(407,22,o),
(416,0,o),
(507,0,cs),
(544,0,l),
(544,48,l),
(511,48,ls),
(470,48,o),
(462,54,o),
(462,103,cs),
(462,452,l),
(544,452,l),
(544,496,l),
(73,496,l),
(73,452,l),
(144,452,l),
(144,0,l)
);
}
);
width = 632;
},
{
layerId = "EAC7C082-8AF0-48CD-AF1D-A26CC3CBE6D4";
shapes = (
{
closed = 1;
nodes = (
(242,0,l),
(242,374,l),
(368,374,l),
(368,117,ls),
(368,20,o),
(407,0,o),
(510,0,cs),
(593,0,l),
(593,111,l),
(560,111,ls),
(514,111,o),
(504,121,o),
(504,153,cs),
(504,374,l),
(593,374,l),
(593,496,l),
(13,496,l),
(13,374,l),
(105,374,l),
(105,0,l)
);
}
);
width = 632;
}
);
unicode = 960;
},
{
glyphname = .notdef;
kernLeft = space;
kernRight = space;
lastChange = "2024-11-01 12:01:51 +0000";
layers = (
{
layerId = "451A0C9A-5D2B-4982-995B-41594B80AF49";
shapes = (
{
closed = 1;
nodes = (
(530,0,l),
(530,700,l),
(102,700,l),
(102,0,l)
);
},
{
closed = 1;
nodes = (
(316,329,l),
(502,21,l),
(131,21,l)
);
},
{
closed = 1;
nodes = (
(123,650,l),
(303,350,l),
(123,49,l)
);
},
{
closed = 1;
nodes = (
(328,350,l),
(510,652,l),
(510,47,l)
);
},
{
closed = 1;
nodes = (
(130,680,l),
(502,680,l),
(315,371,l)
);
}
);
width = 632;
},
{
layerId = "EAC7C082-8AF0-48CD-AF1D-A26CC3CBE6D4";
shapes = (
{
closed = 1;
nodes = (
(530,0,l),
(530,700,l),
(102,700,l),
(102,0,l)
);
},
{
closed = 1;
nodes = (
(316,329,l),
(502,21,l),
(131,21,l)
);
},
{
closed = 1;
nodes = (
(123,650,l),
(303,350,l),
(123,49,l)
);
},
{
closed = 1;
nodes = (
(328,350,l),
(510,652,l),
(510,47,l)
);
},
{
closed = 1;
nodes = (
(130,680,l),
(502,680,l),
(315,371,l)
);
}
);
width = 632;
}
);
},
{
glyphname = period;
kernLeft = period;
kernRight = period_2;
lastChange = "2024-11-01 12:01:51 +0000";
layers = (
{
layerId = "451A0C9A-5D2B-4982-995B-41594B80AF49";
shapes = (
{
closed = 1;
nodes = (
(345,-12,o),
(368,11,o),
(368,40,cs),
(368,69,o),
(345,92,o),
(316,92,cs),
(287,92,o),
(264,69,o),
(264,40,cs),
(264,11,o),
(287,-12,o),
(316,-12,cs)
);
}
);
width = 632;
},
{
layerId = "EAC7C082-8AF0-48CD-AF1D-A26CC3CBE6D4";
shapes = (
{
closed = 1;
nodes = (
(379,-12,o),
(431,40,o),
(431,103,cs),
(431,166,o),
(379,218,o),
(316,218,cs),
(253,218,o),
(201,166,o),
(201,103,cs),
(201,40,o),
(253,-12,o),
(316,-12,cs)
);
}
);
width = 632;
}
);
metricRight = "=|";
unicode = 46;
},
{
glyphname = comma;
kernLeft = period;
kernRight = period_2;
lastChange = "2024-11-01 12:01:51 +0000";
layers = (
{
layerId = "451A0C9A-5D2B-4982-995B-41594B80AF49";
shapes = (
{
closed = 1;
nodes = (
(305,-138,l),
(362,11,ls),
(368,26,o),
(369,34,o),
(369,40,cs),
(369,69,o),
(346,92,o),
(317,92,cs),
(288,92,o),
(265,69,o),
(265,40,cs),
(265,12,o),
(286,-10,o),
(313,-12,c),
(264,-138,l)
);
}
);
width = 632;
},
{
layerId = "EAC7C082-8AF0-48CD-AF1D-A26CC3CBE6D4";
shapes = (
{
closed = 1;
nodes = (
(335,-161,l),
(424,61,ls),
(429,74,o),
(431,89,o),
(431,103,cs),
(431,167,o),
(380,218,o),
(316,218,cs),
(253,218,o),
(201,167,o),
(201,103,cs),
(201,51,o),
(239,3,o),
(288,-8,c),
(229,-161,l)
);
}
);
width = 632;
}
);
unicode = 44;
},
{
color = 6;
glyphname = colon;
kernLeft = colon;
kernRight = colon_2;
lastChange = "2024-11-01 11:55:55 +0000";
layers = (
{
background = {
shapes = (
{
closed = 1;
nodes = (
(345,-12,o),
(368,11,o),
(368,40,cs),
(368,69,o),
(345,92,o),
(316,92,cs),
(287,92,o),
(264,69,o),
(264,40,cs),
(264,11,o),
(287,-12,o),
(316,-12,cs)
);
},
{
pos = (0,417);
ref = period;
}
);
};
guides = (
{
angle = 90;
pos = (264,40);
}
);
layerId = "451A0C9A-5D2B-4982-995B-41594B80AF49";
shapes = (
{
ref = period;
},
{
pos = (0,417);
ref = period;
}
);
width = 632;
},
{
background = {
shapes = (
{
closed = 1;
nodes = (
(207,-12,o),
(253,35,o),
(253,92,cs),
(253,150,o),
(207,195,o),
(150,195,cs),
(93,195,o),
(46,150,o),
(46,92,cs),
(46,35,o),
(93,-12,o),
(150,-12,cs)
);
},
{
closed = 1;
nodes = (
(207,305,o),
(253,351,o),
(253,407,cs),
(253,464,o),
(207,511,o),
(150,511,cs),
(93,511,o),
(46,464,o),
(46,407,cs),
(46,351,o),
(93,305,o),
(150,305,cs)
);
}
);
};
guides = (
{
angle = 90;
pos = (201,103);
}
);
layerId = "EAC7C082-8AF0-48CD-AF1D-A26CC3CBE6D4";
shapes = (
{
ref = period;
},
{
pos = (0,310);
ref = period;
}
);
width = 632;
}
);
unicode = 58;
},
{
color = 6;
glyphname = ellipsis;
kernLeft = period;
kernRight = period_2;
lastChange = "2024-11-01 11:55:55 +0000";
layers = (
{
background = {
shapes = (
{
closed = 1;
nodes = (
(558,-12,o),
(580,9,o),
(580,34,cs),
(580,60,o),
(558,81,o),
(533,81,cs),
(507,81,o),
(486,60,o),
(486,34,cs),
(486,9,o),
(507,-12,o),
(533,-12,cs)
);
},
{
closed = 1;
nodes = (
(132,-12,o),
(153,9,o),
(153,34,cs),
(153,60,o),
(132,81,o),
(105,81,cs),
(80,81,o),
(59,60,o),
(59,34,cs),
(59,9,o),
(80,-12,o),
(105,-12,cs)
);
},
{
closed = 1;
nodes = (
(346,-12,o),
(367,9,o),
(367,34,cs),
(367,60,o),
(346,81,o),
(320,81,cs),
(293,81,o),
(273,60,o),
(273,34,cs),
(273,9,o),
(293,-12,o),
(320,-12,cs)
);
}
);
};
layerId = "451A0C9A-5D2B-4982-995B-41594B80AF49";
shapes = (
{
pos = (-210,0);
ref = period;
},
{
ref = period;
},
{
pos = (210,0);
ref = period;
}
);
width = 632;
},
{
background = {
shapes = (
{
closed = 1;
nodes = (
(751,-12,o),
(796,35,o),
(796,92,cs),
(796,150,o),
(751,197,o),
(693,197,cs),
(636,197,o),
(589,150,o),
(589,92,cs),
(589,35,o),
(636,-12,o),
(693,-12,cs)
);
},
{
closed = 1;
nodes = (
(212,-12,o),
(258,35,o),
(258,92,cs),
(258,150,o),
(212,197,o),
(155,197,cs),
(98,197,o),
(51,150,o),
(51,92,cs),
(51,35,o),
(98,-12,o),
(155,-12,cs)
);
},
{
closed = 1;
nodes = (
(481,-12,o),
(527,35,o),
(527,92,cs),
(527,150,o),
(481,197,o),
(423,197,cs),
(366,197,o),
(321,150,o),
(321,92,cs),
(321,35,o),
(366,-12,o),
(423,-12,cs)
);
}
);
};
layerId = "EAC7C082-8AF0-48CD-AF1D-A26CC3CBE6D4";
shapes = (
{
pos = (-132,-3);
ref = period;
scale = (0.78,0.78);
},
{
pos = (69,-3);
ref = period;
scale = (0.78,0.78);
},
{
pos = (271,-3);
ref = period;
scale = (0.78,0.78);
}
);
width = 632;
}
);
unicode = 8230;
},
{
glyphname = exclam;
kernLeft = exclam;
kernRight = exclam;
lastChange = "2024-11-01 12:01:51 +0000";
layers = (
{
layerId = "451A0C9A-5D2B-4982-995B-41594B80AF49";
shapes = (
{
closed = 1;
nodes = (
(331,170,l),
(343,497,l),
(343,668,l),
(289,668,l),
(289,497,l),
(301,170,l)
);
},
{
closed = 1;
nodes = (
(342,-12,o),
(363,9,o),
(363,35,cs),
(363,61,o),
(342,82,o),
(316,82,cs),
(290,82,o),
(269,61,o),
(269,35,cs),
(269,9,o),
(290,-12,o),
(316,-12,cs)
);
}
);
width = 632;
},
{
layerId = "EAC7C082-8AF0-48CD-AF1D-A26CC3CBE6D4";
shapes = (
{
closed = 1;
nodes = (
(371,252,l),
(404,495,l),
(404,668,l),
(226,668,l),
(226,495,l),
(259,252,l)
);
},
{
closed = 1;
nodes = (
(373,-12,o),
(419,35,o),
(419,92,cs),
(419,149,o),
(373,196,o),
(315,196,cs),
(257,196,o),
(211,149,o),
(211,92,cs),
(211,35,o),
(257,-12,o),
(315,-12,cs)
);
}
);
width = 632;
}
);
unicode = 33;
},
{
glyphname = exclamdown;
kernLeft = exclamdown;
kernRight = exclamdown;
lastChange = "2024-11-01 12:01:51 +0000";
layers = (
{
layerId = "451A0C9A-5D2B-4982-995B-41594B80AF49";
shapes = (
{
closed = 1;
nodes = (
(343,-170,l),
(343,1,l),
(331,328,l),
(301,328,l),
(289,1,l),
(289,-170,l)
);
},
{
closed = 1;
nodes = (
(342,416,o),
(363,437,o),
(363,463,cs),
(363,489,o),
(342,510,o),
(316,510,cs),
(290,510,o),
(269,489,o),
(269,463,cs),
(269,437,o),
(290,416,o),
(316,416,cs)
);
}
);
width = 632;
},
{
layerId = "EAC7C082-8AF0-48CD-AF1D-A26CC3CBE6D4";
shapes = (
{
closed = 1;
nodes = (
(404,-170,l),
(404,3,l),
(371,246,l),
(259,246,l),
(226,3,l),
(226,-170,l)
);
},
{
closed = 1;
nodes = (
(373,302,o),
(419,349,o),
(419,406,cs),
(419,463,o),
(373,510,o),
(315,510,cs),
(257,510,o),
(211,463,o),
(211,406,cs),
(211,349,o),
(257,302,o),
(315,302,cs)
);
}
);
width = 632;
}
);
metricLeft = exclam;
metricRight = exclam;
unicode = 161;
},
{
glyphname = question;
kernLeft = question;
kernRight = question;
lastChange = "2024-11-01 12:01:51 +0000";
layers = (
{
layerId = "451A0C9A-5D2B-4982-995B-41594B80AF49";
shapes = (
{
closed = 1;
nodes = (
(326,162,l),
(326,206,ls),
(326,259,o),
(331,271,o),
(390,320,cs),
(474,390,o),
(517,436,o),
(517,517,cs),
(517,626,o),
(421,680,o),
(330,680,cs),
(226,680,o),
(145,615,o),
(134,518,c),
(187,509,l),
(192,560,o),
(230,632,o),
(328,632,cs),
(405,632,o),
(463,589,o),
(463,517,cs),
(463,458,o),
(428,412,o),
(368,367,cs),
(290,309,o),
(272,277,o),
(272,202,cs),
(272,162,l)
);
},
{
closed = 1;
nodes = (
(325,-12,o),
(346,9,o),
(346,35,cs),
(346,61,o),
(325,82,o),
(299,82,cs),
(273,82,o),
(252,61,o),
(252,35,cs),
(252,9,o),
(273,-12,o),
(299,-12,cs)
);
}
);
width = 632;
},
{
layerId = "EAC7C082-8AF0-48CD-AF1D-A26CC3CBE6D4";
shapes = (
{
closed = 1;
nodes = (
(356,241,l),
(356,256,ls),
(356,284,o),
(368,309,o),
(449,344,cs),
(524,377,o),
(582,417,o),
(582,503,cs),
(582,620,o),
(456,680,o),
(320,680,cs),
(184,680,o),
(82,628,o),
(42,535,c),
(189,480,l),
(211,528,o),
(264,550,o),
(318,550,cs),
(375,550,o),
(411,527,o),
(411,500,cs),
(411,471,o),
(379,452,o),
(316,431,cs),
(228,402,o),
(190,352,o),
(190,255,cs),
(190,241,l)
);
},
{
closed = 1;
nodes = (
(332,-12,o),
(379,35,o),
(379,92,cs),
(379,150,o),
(332,195,o),
(276,195,cs),
(218,195,o),
(172,150,o),
(172,92,cs),
(172,35,o),
(218,-12,o),
(276,-12,cs)
);
}
);
width = 632;
}
);
unicode = 63;
},
{
glyphname = questiondown;
kernLeft = questiondown;
kernRight = questiondown;
lastChange = "2024-11-01 12:01:51 +0000";
layers = (
{
layerId = "451A0C9A-5D2B-4982-995B-41594B80AF49";
shapes = (
{
closed = 1;
nodes = (
(406,-182,o),
(487,-117,o),
(498,-20,c),
(445,-11,l),
(440,-62,o),
(402,-134,o),
(304,-134,cs),
(227,-134,o),
(169,-91,o),
(169,-19,cs),
(169,40,o),
(204,86,o),
(264,131,cs),
(342,189,o),
(360,221,o),
(360,296,cs),
(360,336,l),
(306,336,l),
(306,292,ls),
(306,239,o),
(301,227,o),
(242,178,cs),
(158,108,o),
(115,62,o),
(115,-19,cs),
(115,-128,o),
(211,-182,o),
(302,-182,cs)
);
},
{
closed = 1;
nodes = (
(359,416,o),
(380,437,o),
(380,463,cs),
(380,489,o),
(359,510,o),
(333,510,cs),
(307,510,o),
(286,489,o),
(286,463,cs),
(286,437,o),
(307,416,o),
(333,416,cs)
);
}
);
width = 632;
},
{
layerId = "EAC7C082-8AF0-48CD-AF1D-A26CC3CBE6D4";
shapes = (
{
closed = 1;
nodes = (
(448,-182,o),
(550,-130,o),
(590,-37,c),
(443,18,l),
(421,-30,o),
(368,-52,o),
(314,-52,cs),
(257,-52,o),
(221,-29,o),
(221,-2,cs),
(221,27,o),
(253,46,o),
(316,67,cs),
(404,96,o),
(442,146,o),
(442,243,cs),
(442,257,l),
(276,257,l),
(276,242,ls),
(276,214,o),
(264,189,o),
(183,154,cs),
(108,121,o),
(50,81,o),
(50,-5,cs),
(50,-122,o),
(176,-182,o),
(312,-182,cs)
);
},
{
closed = 1;
nodes = (
(414,303,o),
(460,348,o),
(460,406,cs),
(460,463,o),
(414,510,o),
(356,510,cs),
(300,510,o),
(253,463,o),
(253,406,cs),
(253,348,o),
(300,303,o),
(356,303,cs)
);
}
);
width = 632;
}
);
metricLeft = "=|question";
metricRight = "=|question";
unicode = 191;
},
{
color = 6;
glyphname = periodcentered;
kernLeft = anoteleia;
kernRight = anoteleia;
lastChange = "2024-11-01 11:55:55 +0000";
layers = (
{
background = {
shapes = (
{
closed = 1;
nodes = (
(113,200,o),
(134,222,o),
(134,248,cs),
(134,273,o),
(113,294,o),
(86,294,cs),
(61,294,o),
(40,273,o),
(40,248,cs),
(40,222,o),
(61,200,o),
(86,200,cs)
);
}
);
};
layerId = "451A0C9A-5D2B-4982-995B-41594B80AF49";
shapes = (
{
pos = (0,213);
ref = period;
}
);
width = 632;
},
{
background = {
shapes = (
{
closed = 1;
nodes = (
(201,145,o),
(247,191,o),
(247,248,cs),
(247,306,o),
(201,351,o),
(144,351,cs),
(87,351,o),
(40,306,o),
(40,248,cs),
(40,191,o),
(87,145,o),
(144,145,cs)
);
}
);
};
layerId = "EAC7C082-8AF0-48CD-AF1D-A26CC3CBE6D4";
shapes = (
{
pos = (0,159);
ref = period;
}
);
width = 632;
}
);
metricRight = "=|";
unicode = 183;
},
{
glyphname = bullet;
kernLeft = bullet;
kernRight = bullet;
lastChange = "2024-11-01 12:01:51 +0000";
layers = (
{
layerId = "451A0C9A-5D2B-4982-995B-41594B80AF49";
shapes = (
{
closed = 1;
nodes = (
(408,88,o),
(482,163,o),
(482,254,cs),
(482,346,o),
(408,420,o),
(316,420,cs),
(224,420,o),
(150,346,o),
(150,254,cs),
(150,163,o),
(224,88,o),
(316,88,cs)
);
}
);
width = 632;
},
{
layerId = "EAC7C082-8AF0-48CD-AF1D-A26CC3CBE6D4";
shapes = (
{
closed = 1;
nodes = (
(408,88,o),
(482,163,o),
(482,254,cs),
(482,346,o),
(408,420,o),
(316,420,cs),
(224,420,o),
(150,346,o),
(150,254,cs),
(150,163,o),
(224,88,o),
(316,88,cs)
);
}
);
width = 632;
}
);
unicode = 8226;
},
{
glyphname = asterisk;
kernLeft = asterisk;
kernRight = asterisk;
lastChange = "2024-11-01 12:01:51 +0000";
layers = (
{
guides = (
{
pos = (438,343);
}
);
layerId = "451A0C9A-5D2B-4982-995B-41594B80AF49";
shapes = (
{
closed = 1;
nodes = (
(316,451,l),
(404,334,l),
(439,360,l),
(351,479,l),
(492,521,l),
(479,564,l),
(338,519,l),
(338,666,l),
(295,666,l),
(295,519,l),
(154,564,l),
(141,521,l),
(282,479,l),
(196,360,l),
(232,334,l)
);
}
);
width = 632;
},
{
guides = (
{
pos = (438,343);
}
);
layerId = "EAC7C082-8AF0-48CD-AF1D-A26CC3CBE6D4";
shapes = (
{
closed = 1;
nodes = (
(316,410,l),
(387,314,l),
(461,367,l),
(390,464,l),
(503,502,l),
(473,588,l),
(362,551,l),
(362,670,l),
(270,670,l),
(270,551,l),
(158,588,l),
(129,502,l),
(243,464,l),
(172,368,l),
(246,315,l)
);
}
);
width = 632;
}
);
unicode = 42;
},
{
glyphname = numbersign;
kernLeft = numbersign;
kernRight = numbersign;
lastChange = "2024-11-01 12:01:51 +0000";
layers = (
{
guides = (
{
angle = 262.3448;
pos = (410,334);
},
{
angle = 262.3448;
pos = (457,334);
}
);
layerId = "451A0C9A-5D2B-4982-995B-41594B80AF49";
shapes = (
{
closed = 1;
nodes = (
(180,0,l),
(207,198,l),
(390,198,l),
(363,0,l),
(410,0,l),
(437,198,l),
(556,198,l),
(563,241,l),
(443,241,l),
(468,427,l),
(587,427,l),
(594,470,l),
(473,470,l),
(500,668,l),
(453,668,l),
(426,470,l),
(243,470,l),
(270,668,l),
(223,668,l),
(196,470,l),
(76,470,l),
(69,427,l),
(190,427,l),
(165,241,l),
(45,241,l),
(38,198,l),
(160,198,l),
(133,0,l)
);
},
{
closed = 1;
nodes = (
(237,427,l),
(421,427,l),
(396,241,l),
(212,241,l)
);
}
);
width = 632;
},
{
guides = (
{
angle = 180;
pos = (101,524);
},
{
pos = (85,383);
}
);
layerId = "EAC7C082-8AF0-48CD-AF1D-A26CC3CBE6D4";
shapes = (
{
closed = 1;
nodes = (
(230,0,l),
(246,144,l),
(345,144,l),
(329,0,l),
(478,0,l),
(494,144,l),
(569,144,l),
(585,285,l),
(510,285,l),
(521,383,l),
(595,383,l),
(611,524,l),
(535,524,l),
(551,668,l),
(402,668,l),
(386,524,l),
(287,524,l),
(303,668,l),
(154,668,l),
(138,524,l),
(63,524,l),
(47,383,l),
(122,383,l),
(111,285,l),
(37,285,l),
(21,144,l),
(97,144,l),
(81,0,l)
);
},
{
closed = 1;
nodes = (
(271,383,l),
(372,383,l),
(361,285,l),
(260,285,l)
);
}
);
width = 632;
}
);
unicode = 35;
},
{
glyphname = slash;
kernLeft = slash;
kernRight = slash;
lastChange = "2024-11-01 12:01:51 +0000";
layers = (
{
layerId = "451A0C9A-5D2B-4982-995B-41594B80AF49";
shapes = (
{
closed = 1;
nodes = (
(113,-90,l),
(572,708,l),
(519,708,l),
(60,-90,l)
);
}
);
width = 632;
},
{
layerId = "EAC7C082-8AF0-48CD-AF1D-A26CC3CBE6D4";
shapes = (
{
closed = 1;
nodes = (
(209,-90,l),
(592,708,l),
(423,708,l),
(40,-90,l)
);
}
);
width = 632;
}
);
unicode = 47;
},
{
glyphname = backslash;
kernLeft = backslash;
kernRight = backslash;
lastChange = "2024-11-01 12:01:51 +0000";
layers = (
{
layerId = "451A0C9A-5D2B-4982-995B-41594B80AF49";
shapes = (
{
closed = 1;
nodes = (
(113,708,l),
(60,708,l),
(519,-90,l),
(572,-90,l)
);
}
);
width = 632;
},
{
layerId = "EAC7C082-8AF0-48CD-AF1D-A26CC3CBE6D4";
shapes = (
{
closed = 1;
nodes = (
(209,708,l),
(40,708,l),
(423,-90,l),
(592,-90,l)
);
}
);
width = 632;
}
);
metricLeft = "=|slash";
metricRight = "=|slash";
unicode = 92;
},
{
glyphname = hyphen;
kernLeft = hyphen;
kernRight = hyphen_2;
lastChange = "2024-11-01 12:01:51 +0000";
layers = (
{
layerId = "451A0C9A-5D2B-4982-995B-41594B80AF49";
shapes = (
{
closed = 1;
nodes = (
(453,221,l),
(453,276,l),
(179,276,l),
(179,221,l)
);
}
);
width = 632;
},
{
layerId = "EAC7C082-8AF0-48CD-AF1D-A26CC3CBE6D4";
shapes = (
{
closed = 1;
nodes = (
(482,179,l),
(482,318,l),
(150,318,l),
(150,179,l)
);
}
);
width = 632;
}
);
unicode = 45;
},
{
glyphname = endash;
kernLeft = hyphen;
kernRight = hyphen_2;
lastChange = "2024-11-01 12:01:51 +0000";
layers = (
{
layerId = "451A0C9A-5D2B-4982-995B-41594B80AF49";
shapes = (
{
closed = 1;
nodes = (
(527,220,l),
(527,273,l),
(105,273,l),
(105,220,l)
);
}
);
width = 632;
},
{
layerId = "EAC7C082-8AF0-48CD-AF1D-A26CC3CBE6D4";
shapes = (
{
closed = 1;
nodes = (
(537,181,l),
(537,318,l),
(95,318,l),
(95,181,l)
);
}
);
width = 632;
}
);
unicode = 8211;
},
{
glyphname = emdash;
kernLeft = hyphen;
kernRight = hyphen_2;
lastChange = "2024-11-01 12:01:51 +0000";
layers = (
{
layerId = "451A0C9A-5D2B-4982-995B-41594B80AF49";
shapes = (
{
closed = 1;
nodes = (
(597,220,l),
(597,273,l),
(35,273,l),
(35,220,l)
);
}
);
width = 632;
},
{
layerId = "EAC7C082-8AF0-48CD-AF1D-A26CC3CBE6D4";
shapes = (
{
closed = 1;
nodes = (
(607,181,l),
(607,318,l),
(25,318,l),
(25,181,l)
);
}
);
width = 632;
}
);
unicode = 8212;
},
{
glyphname = underscore;
kernLeft = underscore;
kernRight = underscore;
lastChange = "2024-11-01 12:01:51 +0000";
layers = (
{
layerId = "451A0C9A-5D2B-4982-995B-41594B80AF49";
shapes = (
{
closed = 1;
nodes = (
(634,-53,l),
(634,0,l),
(-2,0,l),
(-2,-53,l)
);
}
);
width = 632;
},
{
guides = (
{
pos = (151,-78);
}
);
layerId = "EAC7C082-8AF0-48CD-AF1D-A26CC3CBE6D4";
shapes = (
{
closed = 1;
nodes = (
(634,-137,l),
(634,0,l),
(-2,0,l),
(-2,-137,l)
);
}
);
width = 632;
}
);
unicode = 95;
},
{
glyphname = parenleft;
kernLeft = parenleft;
kernRight = parenleft;
lastChange = "2024-11-01 12:01:51 +0000";
layers = (
{
layerId = "451A0C9A-5D2B-4982-995B-41594B80AF49";
shapes = (
{
closed = 1;
nodes = (
(482,-162,l),
(334,-35,o),
(250,120,o),
(250,273,cs),
(250,426,o),
(334,581,o),
(482,708,c),
(410,708,l),
(272,587,o),
(195,429,o),
(195,273,cs),
(195,117,o),
(272,-41,o),
(410,-162,c)
);
}
);
width = 632;
},
{
layerId = "EAC7C082-8AF0-48CD-AF1D-A26CC3CBE6D4";
shapes = (
{
closed = 1;
nodes = (
(502,-162,l),
(363,-27,o),
(285,128,o),
(285,273,cs),
(285,418,o),
(363,573,o),
(502,708,c),
(318,708,l),
(193,578,o),
(125,428,o),
(125,273,cs),
(125,118,o),
(193,-32,o),
(318,-162,c)
);
}
);
width = 632;
}
);
unicode = 40;
},
{
glyphname = parenright;
kernLeft = parenright;
kernRight = parenright;
lastChange = "2024-11-01 12:01:51 +0000";
layers = (
{
layerId = "451A0C9A-5D2B-4982-995B-41594B80AF49";
shapes = (
{
closed = 1;
nodes = (
(222,-162,l),
(360,-41,o),
(437,117,o),
(437,273,cs),
(437,429,o),
(360,587,o),
(222,708,c),
(150,708,l),
(298,581,o),
(382,426,o),
(382,273,cs),
(382,120,o),
(298,-35,o),
(150,-162,c)
);
}
);
width = 632;
},
{
layerId = "EAC7C082-8AF0-48CD-AF1D-A26CC3CBE6D4";
shapes = (
{
closed = 1;
nodes = (
(314,-162,l),
(439,-32,o),
(507,118,o),
(507,273,cs),
(507,428,o),
(439,578,o),
(314,708,c),
(130,708,l),
(269,573,o),
(347,418,o),
(347,273,cs),
(347,128,o),
(269,-27,o),
(130,-162,c)
);
}
);
width = 632;
}
);
metricLeft = "=|parenleft";
metricRight = "=|parenleft";
unicode = 41;
},
{
glyphname = braceleft;
kernLeft = braceleft;
kernRight = braceleft;
lastChange = "2024-11-01 12:01:51 +0000";
layers = (
{
layerId = "451A0C9A-5D2B-4982-995B-41594B80AF49";
shapes = (
{
closed = 1;
nodes = (
(469,-162,l),
(469,-120,l),
(341,-120,ls),
(309,-120,o),
(299,-109,o),
(299,-80,cs),
(299,144,ls),
(299,226,o),
(277,257,o),
(232,270,c),
(232,276,l),
(277,289,o),
(299,320,o),
(299,402,cs),
(299,626,ls),
(299,655,o),
(309,666,o),
(341,666,cs),
(469,666,l),
(469,708,l),
(346,708,ls),
(257,708,o),
(246,681,o),
(246,615,cs),
(246,388,ls),
(246,319,o),
(228,297,o),
(151,294,c),
(151,252,l),
(228,249,o),
(246,227,o),
(246,158,cs),
(246,-69,ls),
(246,-135,o),
(257,-162,o),
(346,-162,cs)
);
}
);
width = 632;
},
{
layerId = "EAC7C082-8AF0-48CD-AF1D-A26CC3CBE6D4";
shapes = (
{
closed = 1;
nodes = (
(502,-162,l),
(502,-33,l),
(400,-33,ls),
(356,-33,o),
(343,-24,o),
(343,11,cs),
(343,135,ls),
(343,214,o),
(316,246,o),
(245,270,c),
(245,276,l),
(316,300,o),
(343,332,o),
(343,411,cs),
(343,535,ls),
(343,570,o),
(356,579,o),
(400,579,cs),
(502,579,l),
(502,708,l),
(369,708,ls),
(239,708,o),
(187,655,o),
(187,540,cs),
(187,434,ls),
(187,363,o),
(169,342,o),
(97,339,c),
(97,207,l),
(169,204,o),
(187,183,o),
(187,112,cs),
(187,6,ls),
(187,-109,o),
(239,-162,o),
(369,-162,cs)
);
}
);
width = 632;
}
);
unicode = 123;
},
{
glyphname = braceright;
kernLeft = braceright;
kernRight = braceright;
lastChange = "2024-11-01 12:01:51 +0000";
layers = (
{
layerId = "451A0C9A-5D2B-4982-995B-41594B80AF49";
shapes = (
{
closed = 1;
nodes = (
(286,-162,ls),
(375,-162,o),
(386,-135,o),
(386,-69,cs),
(386,158,ls),
(386,227,o),
(404,249,o),
(481,252,c),
(481,294,l),
(404,297,o),
(386,319,o),
(386,388,cs),
(386,615,ls),
(386,681,o),
(375,708,o),
(286,708,cs),
(163,708,l),
(163,666,l),
(291,666,ls),
(323,666,o),
(333,655,o),
(333,626,cs),
(333,402,ls),
(333,320,o),
(355,289,o),
(400,276,c),
(400,270,l),
(355,257,o),
(333,226,o),
(333,144,cs),
(333,-80,ls),
(333,-109,o),
(323,-120,o),
(291,-120,cs),
(163,-120,l),
(163,-162,l)
);
}
);
width = 632;
},
{
layerId = "EAC7C082-8AF0-48CD-AF1D-A26CC3CBE6D4";
shapes = (
{
closed = 1;
nodes = (
(263,-162,ls),
(393,-162,o),
(445,-109,o),
(445,6,cs),
(445,112,ls),
(445,183,o),
(463,204,o),
(535,207,c),
(535,339,l),
(463,342,o),
(445,363,o),
(445,434,cs),
(445,540,ls),
(445,655,o),
(393,708,o),
(263,708,cs),
(130,708,l),
(130,579,l),
(232,579,ls),
(276,579,o),
(289,570,o),
(289,535,cs),
(289,411,ls),
(289,332,o),
(316,300,o),
(387,276,c),
(387,270,l),
(316,246,o),
(289,214,o),
(289,135,cs),
(289,11,ls),
(289,-24,o),
(276,-33,o),
(232,-33,cs),
(130,-33,l),
(130,-162,l)
);
}
);
width = 632;
}
);
metricLeft = "=|braceleft";
metricRight = "=|braceleft";
unicode = 125;
},
{
glyphname = bracketleft;
kernLeft = bracketleft;
kernRight = bracketleft;
lastChange = "2024-11-01 12:01:51 +0000";
layers = (
{
layerId = "451A0C9A-5D2B-4982-995B-41594B80AF49";
shapes = (
{
closed = 1;
nodes = (
(469,-162,l),
(469,-122,l),
(266,-122,l),
(266,668,l),
(469,668,l),
(469,708,l),
(212,708,l),
(212,-162,l)
);
}
);
width = 632;
},
{
layerId = "EAC7C082-8AF0-48CD-AF1D-A26CC3CBE6D4";
shapes = (
{
closed = 1;
nodes = (
(489,-162,l),
(489,-38,l),
(301,-38,l),
(301,584,l),
(489,584,l),
(489,708,l),
(164,708,l),
(164,-162,l)
);
}
);
width = 632;
}
);
unicode = 91;
},
{
glyphname = bracketright;
kernLeft = bracketright;
kernRight = bracketright;
lastChange = "2024-11-01 12:01:51 +0000";
layers = (
{
layerId = "451A0C9A-5D2B-4982-995B-41594B80AF49";
shapes = (
{
closed = 1;
nodes = (
(420,-162,l),
(420,708,l),
(163,708,l),
(163,668,l),
(366,668,l),
(366,-122,l),
(163,-122,l),
(163,-162,l)
);
}
);
width = 632;
},
{
layerId = "EAC7C082-8AF0-48CD-AF1D-A26CC3CBE6D4";
shapes = (
{
closed = 1;
nodes = (
(468,-162,l),
(468,708,l),
(143,708,l),
(143,584,l),
(331,584,l),
(331,-38,l),
(143,-38,l),
(143,-162,l)
);
}
);
width = 632;
}
);
metricLeft = "=|bracketleft";
metricRight = "=|bracketleft";
unicode = 93;
},
{
color = 6;
glyphname = quotesinglbase;
kernLeft = period;
kernRight = period_2;
lastChange = "2024-11-01 11:55:55 +0000";
layers = (
{
background = {
shapes = (
{
closed = 1;
nodes = (
(-643,-128,l),
(-589,16,ls),
(-587,22,o),
(-585,28,o),
(-585,35,cs),
(-585,59,o),
(-606,81,o),
(-633,81,cs),
(-658,81,o),
(-679,60,o),
(-679,34,cs),
(-679,9,o),
(-660,-10,o),
(-636,-12,c),
(-680,-128,l)
);
},
{
closed = 1;
nodes = (
(305,-138,l),
(362,11,ls),
(368,26,o),
(369,34,o),
(369,40,cs),
(369,69,o),
(346,92,o),
(317,92,cs),
(288,92,o),
(265,69,o),
(265,40,cs),
(265,12,o),
(286,-10,o),
(313,-12,c),
(264,-138,l)
);
}
);
};
layerId = "451A0C9A-5D2B-4982-995B-41594B80AF49";
shapes = (
{
ref = comma;
}
);
width = 632;
},
{
background = {
shapes = (
{
closed = 1;
nodes = (
(-614,-148,l),
(-534,55,ls),
(-530,67,o),
(-528,80,o),
(-528,92,cs),
(-528,150,o),
(-575,197,o),
(-631,197,cs),
(-688,197,o),
(-735,150,o),
(-735,92,cs),
(-735,44,o),
(-702,2,o),
(-656,-9,c),
(-710,-148,l)
);
},
{
closed = 1;
nodes = (
(335,-161,l),
(424,61,ls),
(429,74,o),
(431,89,o),
(431,103,cs),
(431,167,o),
(380,218,o),
(316,218,cs),
(253,218,o),
(201,167,o),
(201,103,cs),
(201,51,o),
(239,3,o),
(288,-8,c),
(229,-161,l)
);
}
);
};
layerId = "EAC7C082-8AF0-48CD-AF1D-A26CC3CBE6D4";
shapes = (
{
ref = comma;
}
);
width = 632;
}
);
unicode = 8218;
},
{
glyphname = quotedblbase;
kernLeft = period;
kernRight = period_2;
lastChange = "2024-11-01 12:01:51 +0000";
layers = (
{
layerId = "451A0C9A-5D2B-4982-995B-41594B80AF49";
shapes = (
{
closed = 1;
nodes = (
(217,-138,l),
(274,11,ls),
(280,26,o),
(281,34,o),
(281,40,cs),
(281,69,o),
(258,92,o),
(229,92,cs),
(200,92,o),
(177,69,o),
(177,40,cs),
(177,12,o),
(198,-10,o),
(225,-12,c),
(176,-138,l)
);
},
{
closed = 1;
nodes = (
(392,-138,l),
(449,11,ls),
(455,26,o),
(456,34,o),
(456,40,cs),
(456,69,o),
(433,92,o),
(404,92,cs),
(375,92,o),
(352,69,o),
(352,40,cs),
(352,12,o),
(373,-10,o),
(400,-12,c),
(351,-138,l)
);
}
);
width = 632;
},
{
layerId = "EAC7C082-8AF0-48CD-AF1D-A26CC3CBE6D4";
shapes = (
{
closed = 1;
nodes = (
(198,-164,l),
(283,47,ls),
(288,60,o),
(290,74,o),
(290,87,cs),
(290,148,o),
(241,197,o),
(180,197,cs),
(120,197,o),
(70,148,o),
(70,87,cs),
(70,38,o),
(107,-8,o),
(153,-18,c),
(97,-164,l)
);
},
{
closed = 1;
nodes = (
(470,-163,l),
(555,48,ls),
(560,61,o),
(562,75,o),
(562,88,cs),
(562,149,o),
(513,198,o),
(452,198,cs),
(392,198,o),
(342,149,o),
(342,88,cs),
(342,39,o),
(379,-7,o),
(425,-17,c),
(369,-163,l)
);
}
);
width = 632;
}
);
unicode = 8222;
},
{
glyphname = quotedblleft;
kernLeft = quoteleft;
kernRight = quoteleft_2;
lastChange = "2024-11-01 12:01:51 +0000";
layers = (
{
layerId = "451A0C9A-5D2B-4982-995B-41594B80AF49";
shapes = (
{
closed = 1;
nodes = (
(432,438,o),
(455,461,o),
(455,490,cs),
(455,518,o),
(434,540,o),
(407,542,c),
(456,668,l),
(415,668,l),
(358,519,ls),
(352,504,o),
(351,496,o),
(351,490,cs),
(351,461,o),
(374,438,o),
(403,438,cs)
);
},
{
closed = 1;
nodes = (
(257,438,o),
(280,461,o),
(280,490,cs),
(280,518,o),
(259,540,o),
(232,542,c),
(281,668,l),
(240,668,l),
(183,519,ls),
(177,504,o),
(176,496,o),
(176,490,cs),
(176,461,o),
(199,438,o),
(228,438,cs)
);
}
);
width = 632;
},
{
layerId = "EAC7C082-8AF0-48CD-AF1D-A26CC3CBE6D4";
shapes = (
{
closed = 1;
nodes = (
(512,307,o),
(562,356,o),
(562,417,cs),
(562,466,o),
(525,512,o),
(479,522,c),
(535,668,l),
(434,668,l),
(349,457,ls),
(344,444,o),
(342,430,o),
(342,417,cs),
(342,356,o),
(391,307,o),
(452,307,cs)
);
},
{
closed = 1;
nodes = (
(240,306,o),
(290,355,o),
(290,416,cs),
(290,465,o),
(253,511,o),
(207,521,c),
(263,667,l),
(162,667,l),
(77,456,ls),
(72,443,o),
(70,429,o),
(70,416,cs),
(70,355,o),
(119,306,o),
(180,306,cs)
);
}
);
width = 632;
}
);
unicode = 8220;
},
{
glyphname = quotedblright;
kernLeft = quoteright;
kernRight = quoteright_2;
lastChange = "2024-11-01 12:01:51 +0000";
layers = (
{
layerId = "451A0C9A-5D2B-4982-995B-41594B80AF49";
shapes = (
{
closed = 1;
nodes = (
(392,450,l),
(449,599,ls),
(455,614,o),
(456,622,o),
(456,628,cs),
(456,657,o),
(433,680,o),
(404,680,cs),
(375,680,o),
(352,657,o),
(352,628,cs),
(352,600,o),
(373,578,o),
(400,576,c),
(351,450,l)
);
},
{
closed = 1;
nodes = (
(217,450,l),
(274,599,ls),
(280,614,o),
(281,622,o),
(281,628,cs),
(281,657,o),
(258,680,o),
(229,680,cs),
(200,680,o),
(177,657,o),
(177,628,cs),
(177,600,o),
(198,578,o),
(225,576,c),
(176,450,l)
);
}
);
width = 632;
},
{
layerId = "EAC7C082-8AF0-48CD-AF1D-A26CC3CBE6D4";
shapes = (
{
closed = 1;
nodes = (
(470,320,l),
(555,531,ls),
(560,544,o),
(562,558,o),
(562,571,cs),
(562,632,o),
(513,681,o),
(452,681,cs),
(392,681,o),
(342,632,o),
(342,571,cs),
(342,522,o),
(379,476,o),
(425,466,c),
(369,320,l)
);
},
{
closed = 1;
nodes = (
(198,319,l),
(283,530,ls),
(288,543,o),
(290,557,o),
(290,570,cs),
(290,631,o),
(241,680,o),
(180,680,cs),
(120,680,o),
(70,631,o),
(70,570,cs),
(70,521,o),
(107,475,o),
(153,465,c),
(97,319,l)
);
}
);
width = 632;
}
);
unicode = 8221;
},
{
glyphname = quoteleft;
kernLeft = quoteleft;
kernRight = quoteleft_2;
lastChange = "2024-11-01 12:01:51 +0000";
layers = (
{
layerId = "451A0C9A-5D2B-4982-995B-41594B80AF49";
shapes = (
{
closed = 1;
nodes = (
(344,450,o),
(367,473,o),
(367,502,cs),
(367,530,o),
(346,552,o),
(319,554,c),
(368,680,l),
(327,680,l),
(270,531,ls),
(264,516,o),
(263,508,o),
(263,502,cs),
(263,473,o),
(286,450,o),
(315,450,cs)
);
}
);
width = 632;
},
{
layerId = "EAC7C082-8AF0-48CD-AF1D-A26CC3CBE6D4";
shapes = (
{
closed = 1;
nodes = (
(379,289,o),
(431,340,o),
(431,404,cs),
(431,456,o),
(393,504,o),
(344,515,c),
(403,668,l),
(297,668,l),
(208,446,ls),
(203,433,o),
(201,418,o),
(201,404,cs),
(201,340,o),
(252,289,o),
(316,289,cs)
);
}
);
width = 632;
}
);
metricLeft = "=|quoteright";
metricRight = "=|quoteright";
unicode = 8216;
},
{
glyphname = quoteright;
kernLeft = quoteright;
kernRight = quoteright_2;
lastChange = "2024-11-01 12:01:51 +0000";
layers = (
{
layerId = "451A0C9A-5D2B-4982-995B-41594B80AF49";
shapes = (
{
closed = 1;
nodes = (
(305,450,l),
(362,599,ls),
(368,614,o),
(369,622,o),
(369,628,cs),
(369,657,o),
(346,680,o),
(317,680,cs),
(288,680,o),
(265,657,o),
(265,628,cs),
(265,600,o),
(286,578,o),
(313,576,c),
(264,450,l)
);
}
);
width = 632;
},
{
layerId = "EAC7C082-8AF0-48CD-AF1D-A26CC3CBE6D4";
shapes = (
{
closed = 1;
nodes = (
(335,301,l),
(424,523,ls),
(429,536,o),
(431,551,o),
(431,565,cs),
(431,629,o),
(380,680,o),
(316,680,cs),
(253,680,o),
(201,629,o),
(201,565,cs),
(201,513,o),
(239,465,o),
(288,454,c),
(229,301,l)
);
}
);
width = 632;
}
);
unicode = 8217;
},
{
glyphname = guillemetleft;
kernLeft = guilsinglleft;
kernRight = guilsinglleft_2;
lastChange = "2024-11-01 12:01:51 +0000";
layers = (
{
layerId = "451A0C9A-5D2B-4982-995B-41594B80AF49";
shapes = (
{
closed = 1;
nodes = (
(516,40,l),
(368,250,l),
(516,460,l),
(456,460,l),
(308,250,l),
(456,40,l)
);
},
{
closed = 1;
nodes = (
(324,40,l),
(176,250,l),
(324,460,l),
(264,460,l),
(116,250,l),
(264,40,l)
);
}
);
width = 632;
},
{
layerId = "EAC7C082-8AF0-48CD-AF1D-A26CC3CBE6D4";
shapes = (
{
closed = 1;
nodes = (
(608,40,l),
(459,250,l),
(608,460,l),
(420,460,l),
(272,250,l),
(420,40,l)
);
},
{
closed = 1;
nodes = (
(361,40,l),
(212,250,l),
(361,460,l),
(173,460,l),
(25,250,l),
(173,40,l)
);
}
);
width = 632;
}
);
unicode = 171;
},
{
glyphname = guillemetright;
kernLeft = guilsinglright;
kernRight = guilsinglright_2;
lastChange = "2024-11-01 12:01:51 +0000";
layers = (
{
layerId = "451A0C9A-5D2B-4982-995B-41594B80AF49";
shapes = (
{
closed = 1;
nodes = (
(368,40,l),
(516,250,l),
(368,460,l),
(308,460,l),
(456,250,l),
(308,40,l)
);
},
{
closed = 1;
nodes = (
(176,40,l),
(324,250,l),
(176,460,l),
(116,460,l),
(264,250,l),
(116,40,l)
);
}
);
width = 632;
},
{
layerId = "EAC7C082-8AF0-48CD-AF1D-A26CC3CBE6D4";
shapes = (
{
closed = 1;
nodes = (
(459,40,l),
(607,250,l),
(459,460,l),
(271,460,l),
(420,250,l),
(271,40,l)
);
},
{
closed = 1;
nodes = (
(212,40,l),
(360,250,l),
(212,460,l),
(24,460,l),
(173,250,l),
(24,40,l)
);
}
);
width = 632;
}
);
unicode = 187;
},
{
glyphname = guilsinglleft;
kernLeft = guilsinglleft;
kernRight = guilsinglleft_2;
lastChange = "2024-11-01 12:01:51 +0000";
layers = (
{
layerId = "451A0C9A-5D2B-4982-995B-41594B80AF49";
shapes = (
{
closed = 1;
nodes = (
(420,40,l),
(272,250,l),
(420,460,l),
(360,460,l),
(212,250,l),
(360,40,l)
);
}
);
width = 632;
},
{
layerId = "EAC7C082-8AF0-48CD-AF1D-A26CC3CBE6D4";
shapes = (
{
closed = 1;
nodes = (
(484,40,l),
(335,250,l),
(484,460,l),
(296,460,l),
(148,250,l),
(296,40,l)
);
}
);
width = 632;
}
);
unicode = 8249;
},
{
glyphname = guilsinglright;
kernLeft = guilsinglright;
kernRight = guilsinglright_2;
lastChange = "2024-11-01 12:01:51 +0000";
layers = (
{
layerId = "451A0C9A-5D2B-4982-995B-41594B80AF49";
shapes = (
{
closed = 1;
nodes = (
(272,40,l),
(420,250,l),
(272,460,l),
(212,460,l),
(360,250,l),
(212,40,l)
);
}
);
width = 632;
},
{
layerId = "EAC7C082-8AF0-48CD-AF1D-A26CC3CBE6D4";
shapes = (
{
closed = 1;
nodes = (
(336,40,l),
(484,250,l),
(336,460,l),
(148,460,l),
(297,250,l),
(148,40,l)
);
}
);
width = 632;
}
);
unicode = 8250;
},
{
glyphname = quotedbl;
kernLeft = quotesingle;
kernRight = quotesingle_2;
lastChange = "2024-11-01 12:01:51 +0000";
layers = (
{
layerId = "451A0C9A-5D2B-4982-995B-41594B80AF49";
shapes = (
{
closed = 1;
nodes = (
(245,432,l),
(262,668,l),
(205,668,l),
(222,432,l)
);
},
{
closed = 1;
nodes = (
(410,432,l),
(427,668,l),
(370,668,l),
(387,432,l)
);
}
);
width = 632;
},
{
layerId = "EAC7C082-8AF0-48CD-AF1D-A26CC3CBE6D4";
shapes = (
{
closed = 1;
nodes = (
(267,420,l),
(282,668,l),
(120,668,l),
(135,420,l)
);
},
{
closed = 1;
nodes = (
(497,420,l),
(512,668,l),
(350,668,l),
(365,420,l)
);
}
);
width = 632;
}
);
unicode = 34;
},
{
glyphname = quotesingle;
kernLeft = quotesingle;
kernRight = quotesingle_2;
lastChange = "2024-11-01 12:01:51 +0000";
layers = (
{
layerId = "451A0C9A-5D2B-4982-995B-41594B80AF49";
shapes = (
{
closed = 1;
nodes = (
(328,432,l),
(345,668,l),
(288,668,l),
(305,432,l)
);
}
);
width = 632;
},
{
layerId = "EAC7C082-8AF0-48CD-AF1D-A26CC3CBE6D4";
shapes = (
{
closed = 1;
nodes = (
(382,420,l),
(397,668,l),
(235,668,l),
(250,420,l)
);
}
);
width = 632;
}
);
unicode = 39;
},
{
glyphname = florin;
kernLeft = florin;
kernRight = florin;
lastChange = "2024-11-01 12:01:51 +0000";
layers = (
{
layerId = "451A0C9A-5D2B-4982-995B-41594B80AF49";
shapes = (
{
closed = 1;
nodes = (
(241,-172,o),
(335,-143,o),
(335,49,cs),
(335,455,l),
(535,455,l),
(535,496,l),
(335,496,l),
(335,575,ls),
(335,633,o),
(340,649,o),
(378,649,cs),
(535,649,l),
(535,694,l),
(389,694,ls),
(290,694,o),
(287,660,o),
(287,566,cs),
(287,496,l),
(102,496,l),
(102,455,l),
(287,455,l),
(287,23,ls),
(287,-74,o),
(245,-129,o),
(165,-129,cs),
(136,-129,o),
(108,-121,o),
(97,-114,c),
(97,-162,l),
(109,-167,o),
(133,-172,o),
(156,-172,cs)
);
}
);
width = 632;
},
{
layerId = "EAC7C082-8AF0-48CD-AF1D-A26CC3CBE6D4";
shapes = (
{
closed = 1;
nodes = (
(317,-172,o),
(382,-109,o),
(382,38,cs),
(382,372,l),
(571,372,l),
(571,496,l),
(382,496,l),
(382,563,ls),
(382,597,o),
(395,603,o),
(451,603,cs),
(571,603,l),
(571,733,l),
(420,733,ls),
(281,733,o),
(218,699,o),
(218,579,cs),
(218,496,l),
(56,496,l),
(56,372,l),
(218,372,l),
(218,124,ls),
(218,17,o),
(210,-22,o),
(133,-22,cs),
(95,-22,o),
(72,-19,o),
(56,-16,c),
(56,-160,l),
(92,-167,o),
(136,-172,o),
(177,-172,cs)
);
}
);
width = 632;
}
);
unicode = 402;
},
{
glyphname = "note-musical";
lastChange = "2024-11-01 12:01:51 +0000";
layers = (
{
layerId = "451A0C9A-5D2B-4982-995B-41594B80AF49";
shapes = (
{
closed = 1;
nodes = (
(253,-10,o),
(299,31,o),
(299,111,cs),
(299,464,l),
(286,445,l),
(387,414,o),
(470,341,o),
(487,224,c),
(490,223,l),
(521,263,o),
(534,302,o),
(534,328,cs),
(534,407,o),
(478,458,o),
(418,506,cs),
(348,562,o),
(305,599,o),
(299,668,c),
(264,668,l),
(264,155,l),
(271,160,l),
(253,181,o),
(228,192,o),
(198,192,cs),
(142,192,o),
(97,147,o),
(97,91,cs),
(97,35,o),
(140,-10,o),
(195,-10,cs)
);
}
);
width = 632;
},
{
layerId = "EAC7C082-8AF0-48CD-AF1D-A26CC3CBE6D4";
shapes = (
{
closed = 1;
nodes = (
(268,-10,o),
(339,45,o),
(339,176,cs),
(339,473,l),
(283,408,l),
(381,379,o),
(458,314,o),
(472,176,c),
(480,174,l),
(550,240,o),
(579,291,o),
(579,339,cs),
(579,420,o),
(513,479,o),
(451,529,cs),
(381,585,o),
(344,613,o),
(339,668,c),
(249,668,l),
(249,157,l),
(295,209,l),
(270,243,o),
(232,262,o),
(188,262,cs),
(113,262,o),
(52,201,o),
(52,126,cs),
(52,51,o),
(111,-10,o),
(185,-10,cs)
);
}
);
width = 632;
}
);
unicode = 9834;
},
{
glyphname = at;
kernLeft = at;
kernRight = at;
lastChange = "2024-11-01 12:01:51 +0000";
layers = (
{
layerId = "451A0C9A-5D2B-4982-995B-41594B80AF49";
shapes = (
{
closed = 1;
nodes = (
(365,-93,o),
(405,-84,o),
(444,-65,c),
(444,-12,l),
(406,-36,o),
(362,-47,o),
(322,-47,cs),
(182,-47,o),
(63,52,o),
(63,256,cs),
(63,444,o),
(171,555,o),
(322,555,cs),
(474,555,o),
(572,449,o),
(572,287,cs),
(572,216,o),
(550,123,o),
(494,123,cs),
(467,123,o),
(441,138,o),
(441,188,cs),
(441,420,l),
(408,432,o),
(372,440,o),
(337,440,cs),
(250,440,o),
(164,386,o),
(164,237,cs),
(164,130,o),
(227,75,o),
(290,75,cs),
(331,75,o),
(373,90,o),
(401,138,c),
(413,106,o),
(445,78,o),
(487,78,cs),
(552,78,o),
(617,137,o),
(617,287,cs),
(617,520,o),
(451,601,o),
(322,601,cs),
(144,601,o),
(15,464,o),
(15,257,cs),
(15,23,o),
(168,-93,o),
(326,-93,cs)
);
},
{
closed = 1;
nodes = (
(256,118,o),
(214,157,o),
(214,236,cs),
(214,364,o),
(285,394,o),
(337,394,cs),
(358,394,o),
(372,393,o),
(390,387,c),
(390,230,ls),
(390,167,o),
(346,118,o),
(297,118,cs)
);
}
);
width = 632;
},
{
layerId = "EAC7C082-8AF0-48CD-AF1D-A26CC3CBE6D4";
shapes = (
{
closed = 1;
nodes = (
(361,-103,o),
(402,-93,o),
(436,-75,c),
(436,8,l),
(400,-16,o),
(367,-28,o),
(324,-28,cs),
(187,-28,o),
(95,88,o),
(95,253,cs),
(95,414,o),
(178,536,o),
(321,536,cs),
(448,536,o),
(540,443,o),
(540,290,cs),
(540,194,o),
(519,155,o),
(492,155,cs),
(472,155,o),
(454,172,o),
(454,231,cs),
(454,418,l),
(417,430,o),
(373,438,o),
(333,438,cs),
(244,438,o),
(152,385,o),
(152,239,cs),
(152,132,o),
(228,75,o),
(288,75,cs),
(322,75,o),
(361,90,o),
(383,132,c),
(401,94,o),
(438,72,o),
(479,72,cs),
(545,72,o),
(622,136,o),
(622,285,cs),
(622,477,o),
(501,611,o),
(323,611,cs),
(137,611,o),
(10,462,o),
(10,251,cs),
(10,45,o),
(132,-103,o),
(321,-103,cs)
);
},
{
closed = 1;
nodes = (
(278,170,o),
(253,196,o),
(253,248,cs),
(253,329,o),
(293,348,o),
(332,348,cs),
(343,348,o),
(358,346,o),
(367,344,c),
(367,253,ls),
(367,198,o),
(335,170,o),
(306,170,cs)
);
}
);
width = 632;
}
);
unicode = 64;
},
{
glyphname = ampersand;
kernLeft = ampersand;
kernRight = ampersand;
lastChange = "2024-11-01 12:01:51 +0000";
layers = (
{
layerId = "451A0C9A-5D2B-4982-995B-41594B80AF49";
shapes = (
{
closed = 1;
nodes = (
(325,-11,o),
(403,32,o),
(455,104,c),
(547,0,l),
(617,0,l),
(483,150,l),
(509,203,o),
(523,267,o),
(523,340,c),
(469,340,l),
(468,280,o),
(460,234,o),
(445,193,c),
(285,372,l),
(353,401,o),
(428,454,o),
(428,540,cs),
(428,641,o),
(349,681,o),
(278,681,cs),
(188,681,o),
(125,618,o),
(125,538,cs),
(125,483,o),
(162,432,o),
(203,387,c),
(102,345,o),
(22,282,o),
(22,176,cs),
(22,60,o),
(104,-11,o),
(229,-11,cs)
);
},
{
closed = 1;
nodes = (
(150,37,o),
(76,82,o),
(76,179,cs),
(76,263,o),
(143,312,o),
(234,352,c),
(420,142,l),
(380,76,o),
(315,37,o),
(229,37,cs)
);
},
{
closed = 1;
nodes = (
(211,455,o),
(178,492,o),
(178,541,cs),
(178,595,o),
(219,635,o),
(278,635,cs),
(327,635,o),
(376,604,o),
(376,539,cs),
(376,474,o),
(324,430,o),
(256,405,c)
);
}
);
width = 632;
},
{
layerId = "EAC7C082-8AF0-48CD-AF1D-A26CC3CBE6D4";
shapes = (
{
closed = 1;
nodes = (
(304,-13,o),
(362,0,o),
(424,47,c),
(461,0,l),
(627,0,l),
(518,143,l),
(554,190,o),
(594,276,o),
(611,371,c),
(482,371,l),
(473,324,o),
(459,283,o),
(438,249,c),
(359,350,l),
(447,403,o),
(474,467,o),
(474,533,cs),
(474,628,o),
(398,709,o),
(297,709,cs),
(189,709,o),
(107,639,o),
(107,536,cs),
(107,492,o),
(118,436,o),
(160,382,c),
(59,332,o),
(20,249,o),
(20,182,cs),
(20,70,o),
(107,-13,o),
(245,-13,cs)
);
},
{
closed = 1;
nodes = (
(203,121,o),
(174,154,o),
(174,193,cs),
(174,224,o),
(187,259,o),
(236,281,c),
(343,147,l),
(316,129,o),
(289,121,o),
(258,121,cs)
);
},
{
closed = 1;
nodes = (
(249,485,o),
(239,511,o),
(239,534,cs),
(239,566,o),
(263,589,o),
(294,589,cs),
(328,589,o),
(350,563,o),
(350,530,cs),
(350,503,o),
(333,468,o),
(292,441,c)
);
}
);
width = 632;
}
);
unicode = 38;
},
{
glyphname = paragraph;
kernLeft = paragraph;
kernRight = paragraph;
lastChange = "2024-11-01 12:01:51 +0000";
layers = (
{
layerId = "451A0C9A-5D2B-4982-995B-41594B80AF49";
shapes = (
{
closed = 1;
nodes = (
(337,-162,l),
(337,621,l),
(452,621,l),
(452,-162,l),
(505,-162,l),
(505,621,l),
(541,621,l),
(541,668,l),
(320,668,ls),
(186,668,o),
(101,583,o),
(101,479,cs),
(101,386,o),
(167,309,o),
(284,292,c),
(284,-162,l)
);
}
);
width = 632;
},
{
layerId = "EAC7C082-8AF0-48CD-AF1D-A26CC3CBE6D4";
shapes = (
{
closed = 1;
nodes = (
(333,-162,l),
(333,601,l),
(424,601,l),
(424,-162,l),
(522,-162,l),
(522,601,l),
(570,601,l),
(570,668,l),
(284,668,ls),
(150,668,o),
(65,583,o),
(65,479,cs),
(65,390,o),
(125,318,o),
(235,296,c),
(235,-162,l)
);
}
);
width = 632;
}
);
unicode = 182;
},
{
glyphname = section;
kernLeft = section;
kernRight = section;
lastChange = "2024-11-01 12:01:51 +0000";
layers = (
{
layerId = "451A0C9A-5D2B-4982-995B-41594B80AF49";
shapes = (
{
closed = 1;
nodes = (
(400,-173,o),
(482,-121,o),
(482,-39,cs),
(482,6,o),
(464,40,o),
(400,82,c),
(489,119,o),
(535,167,o),
(535,228,cs),
(535,296,o),
(500,334,o),
(406,385,cs),
(311,437,ls),
(219,487,o),
(199,510,o),
(199,548,cs),
(199,596,o),
(250,635,o),
(319,635,cs),
(396,635,o),
(431,599,o),
(445,544,c),
(503,556,l),
(482,635,o),
(413,680,o),
(319,680,cs),
(232,680,o),
(150,628,o),
(150,546,cs),
(150,501,o),
(168,467,o),
(232,425,c),
(143,388,o),
(97,340,o),
(97,279,cs),
(97,211,o),
(132,173,o),
(226,122,cs),
(321,70,ls),
(413,20,o),
(433,-3,o),
(433,-41,cs),
(433,-89,o),
(382,-128,o),
(313,-128,cs),
(236,-128,o),
(201,-92,o),
(187,-37,c),
(129,-49,l),
(150,-128,o),
(219,-173,o),
(313,-173,cs)
);
},
{
closed = 1;
nodes = (
(258,162,ls),
(183,203,o),
(146,232,o),
(146,283,cs),
(146,334,o),
(202,373,o),
(272,401,c),
(374,345,ls),
(449,304,o),
(486,275,o),
(486,224,cs),
(486,173,o),
(430,134,o),
(360,106,c)
);
}
);
width = 632;
},
{
layerId = "EAC7C082-8AF0-48CD-AF1D-A26CC3CBE6D4";
shapes = (
{
closed = 1;
nodes = (
(442,-173,o),
(538,-101,o),
(538,2,cs),
(538,33,o),
(529,61,o),
(509,88,c),
(559,122,o),
(587,163,o),
(587,219,cs),
(587,303,o),
(533,356,o),
(438,401,cs),
(327,454,ls),
(270,481,o),
(254,495,o),
(254,514,cs),
(254,534,o),
(273,554,o),
(316,554,cs),
(361,554,o),
(392,534,o),
(404,489,c),
(542,540,l),
(510,626,o),
(436,680,o),
(326,680,cs),
(190,680,o),
(94,608,o),
(94,505,cs),
(94,474,o),
(103,446,o),
(123,419,c),
(73,385,o),
(45,344,o),
(45,288,cs),
(45,204,o),
(99,151,o),
(194,106,cs),
(305,53,ls),
(362,26,o),
(378,12,o),
(378,-7,cs),
(378,-27,o),
(359,-47,o),
(316,-47,cs),
(271,-47,o),
(240,-27,o),
(228,18,c),
(90,-33,l),
(122,-119,o),
(196,-173,o),
(306,-173,cs)
);
},
{
closed = 1;
nodes = (
(261,241,ls),
(224,259,o),
(204,275,o),
(204,301,cs),
(204,315,o),
(209,327,o),
(224,338,c),
(371,266,ls),
(408,248,o),
(428,232,o),
(428,206,cs),
(428,192,o),
(423,180,o),
(408,169,c)
);
}
);
width = 632;
}
);
unicode = 167;
},
{
glyphname = copyright;
kernLeft = copyright;
kernRight = copyright;
lastChange = "2024-11-01 12:01:51 +0000";
layers = (
{
layerId = "451A0C9A-5D2B-4982-995B-41594B80AF49";
shapes = (
{
closed = 1;
nodes = (
(494,-13,o),
(612,142,o),
(612,334,cs),
(612,526,o),
(494,681,o),
(316,681,cs),
(138,681,o),
(20,526,o),
(20,334,cs),
(20,142,o),
(138,-13,o),
(316,-13,cs)
);
},
{
closed = 1;
nodes = (
(394,143,o),
(426,189,o),
(444,223,c),
(394,243,l),
(377,203,o),
(356,188,o),
(318,188,cs),
(268,188,o),
(225,240,o),
(225,335,cs),
(225,433,o),
(268,481,o),
(319,481,cs),
(350,481,o),
(374,466,o),
(391,426,c),
(441,446,l),
(423,483,o),
(389,526,o),
(322,526,cs),
(232,526,o),
(168,457,o),
(168,335,cs),
(168,214,o),
(230,143,o),
(321,143,cs)
);
},
{
closed = 1;
nodes = (
(166,35,o),
(69,169,o),
(69,334,cs),
(69,499,o),
(166,633,o),
(316,633,cs),
(466,633,o),
(563,499,o),
(563,334,cs),
(563,169,o),
(466,35,o),
(316,35,cs)
);
}
);
width = 632;
},
{
layerId = "EAC7C082-8AF0-48CD-AF1D-A26CC3CBE6D4";
shapes = (
{
closed = 1;
nodes = (
(488,-13,o),
(612,142,o),
(612,333,cs),
(612,524,o),
(488,679,o),
(316,679,cs),
(144,679,o),
(20,524,o),
(20,333,cs),
(20,142,o),
(144,-13,o),
(316,-13,cs)
);
},
{
closed = 1;
nodes = (
(362,143,o),
(422,163,o),
(455,230,c),
(375,265,l),
(366,246,o),
(348,233,o),
(322,233,cs),
(292,233,o),
(258,256,o),
(258,335,cs),
(258,411,o),
(291,436,o),
(322,436,cs),
(345,436,o),
(364,425,o),
(374,394,c),
(456,430,l),
(427,504,o),
(367,526,o),
(315,526,cs),
(223,526,o),
(158,451,o),
(158,335,cs),
(158,220,o),
(214,143,o),
(315,143,cs)
);
},
{
closed = 1;
nodes = (
(186,47,o),
(86,166,o),
(86,333,cs),
(86,500,o),
(186,619,o),
(316,619,cs),
(446,619,o),
(546,500,o),
(546,333,cs),
(546,166,o),
(446,47,o),
(316,47,cs)
);
}
);
width = 632;
}
);
unicode = 169;
},
{
glyphname = registered;
kernLeft = registered;
kernRight = registered;
lastChange = "2024-11-01 12:01:51 +0000";
layers = (
{
layerId = "451A0C9A-5D2B-4982-995B-41594B80AF49";
shapes = (
{
closed = 1;
nodes = (
(494,-13,o),
(612,142,o),
(612,334,cs),
(612,526,o),
(494,681,o),
(316,681,cs),
(138,681,o),
(20,526,o),
(20,334,cs),
(20,142,o),
(138,-13,o),
(316,-13,cs)
);
},
{
closed = 1;
nodes = (
(166,35,o),
(69,169,o),
(69,334,cs),
(69,499,o),
(166,633,o),
(316,633,cs),
(466,633,o),
(563,499,o),
(563,334,cs),
(563,169,o),
(466,35,o),
(316,35,cs)
);
},
{
closed = 1;
nodes = (
(262,162,l),
(262,302,l),
(312,302,l),
(397,162,l),
(459,162,l),
(367,311,l),
(420,330,o),
(442,370,o),
(442,417,cs),
(442,485,o),
(398,529,o),
(318,529,cs),
(208,529,l),
(208,162,l)
);
},
{
closed = 1;
nodes = (
(262,485,l),
(310,485,ls),
(357,485,o),
(386,467,o),
(386,417,cs),
(386,372,o),
(363,347,o),
(315,347,cs),
(262,347,l)
);
}
);
width = 632;
},
{
layerId = "EAC7C082-8AF0-48CD-AF1D-A26CC3CBE6D4";
shapes = (
{
closed = 1;
nodes = (
(488,-13,o),
(612,142,o),
(612,333,cs),
(612,524,o),
(488,679,o),
(316,679,cs),
(144,679,o),
(20,524,o),
(20,333,cs),
(20,142,o),
(144,-13,o),
(316,-13,cs)
);
},
{
closed = 1;
nodes = (
(186,47,o),
(86,166,o),
(86,333,cs),
(86,500,o),
(186,619,o),
(316,619,cs),
(446,619,o),
(546,500,o),
(546,333,cs),
(546,166,o),
(446,47,o),
(316,47,cs)
);
},
{
closed = 1;
nodes = (
(263,162,l),
(263,300,l),
(291,300,l),
(375,162,l),
(472,162,l),
(379,310,l),
(439,328,o),
(455,373,o),
(455,415,cs),
(455,504,o),
(392,529,o),
(312,529,cs),
(177,529,l),
(177,162,l)
);
},
{
closed = 1;
nodes = (
(263,450,l),
(308,450,ls),
(339,450,o),
(363,444,o),
(363,414,cs),
(363,383,o),
(337,378,o),
(307,378,cs),
(263,378,l)
);
}
);
width = 632;
}
);
unicode = 174;
},
{
glyphname = trademark;
kernLeft = trademark;
kernRight = trademark;
lastChange = "2024-11-01 12:01:51 +0000";
layers = (
{
guides = (
{
pos = (438,343);
}
);
layerId = "451A0C9A-5D2B-4982-995B-41594B80AF49";
shapes = (
{
closed = 1;
nodes = (
(147,343,l),
(147,631,l),
(238,631,l),
(238,668,l),
(12,668,l),
(12,631,l),
(103,631,l),
(103,343,l)
);
},
{
closed = 1;
nodes = (
(332,343,l),
(332,614,l),
(336,614,l),
(434,343,l),
(475,343,l),
(571,614,l),
(575,614,l),
(575,343,l),
(619,343,l),
(619,668,l),
(553,668,l),
(457,397,l),
(453,397,l),
(355,668,l),
(290,668,l),
(290,343,l)
);
}
);
width = 632;
},
{
guides = (
{
pos = (438,343);
}
);
layerId = "EAC7C082-8AF0-48CD-AF1D-A26CC3CBE6D4";
shapes = (
{
closed = 1;
nodes = (
(168,343,l),
(168,588,l),
(249,588,l),
(249,668,l),
(4,668,l),
(4,588,l),
(85,588,l),
(85,343,l)
);
},
{
closed = 1;
nodes = (
(351,343,l),
(351,572,l),
(355,572,l),
(413,343,l),
(486,343,l),
(544,572,l),
(548,572,l),
(548,343,l),
(628,343,l),
(628,668,l),
(499,668,l),
(453,464,l),
(449,464,l),
(403,668,l),
(271,668,l),
(271,343,l)
);
}
);
width = 632;
}
);
unicode = 8482;
},
{
glyphname = degree;
kernLeft = degree;
kernRight = degree;
lastChange = "2024-11-01 12:01:51 +0000";
layers = (
{
layerId = "451A0C9A-5D2B-4982-995B-41594B80AF49";
shapes = (
{
closed = 1;
nodes = (
(383,437,o),
(438,491,o),
(438,558,cs),
(438,626,o),
(383,681,o),
(316,681,cs),
(249,681,o),
(194,626,o),
(194,558,cs),
(194,491,o),
(249,437,o),
(316,437,cs)
);
},
{
closed = 1;
nodes = (
(273,479,o),
(237,515,o),
(237,558,cs),
(237,603,o),
(273,637,o),
(316,637,cs),
(360,637,o),
(395,603,o),
(395,558,cs),
(395,515,o),
(360,479,o),
(316,479,cs)
);
}
);
width = 632;
},
{
layerId = "EAC7C082-8AF0-48CD-AF1D-A26CC3CBE6D4";
shapes = (
{
closed = 1;
nodes = (
(409,344,o),
(483,419,o),
(483,512,cs),
(483,604,o),
(409,679,o),
(316,679,cs),
(224,679,o),
(149,604,o),
(149,512,cs),
(149,419,o),
(224,344,o),
(316,344,cs)
);
},
{
closed = 1;
nodes = (
(276,439,o),
(243,472,o),
(243,512,cs),
(243,552,o),
(276,585,o),
(316,585,cs),
(357,585,o),
(389,552,o),
(389,512,cs),
(389,472,o),
(357,439,o),
(316,439,cs)
);
}
);
width = 632;
}
);
unicode = 176;
},
{
glyphname = bar;
kernLeft = bar;
kernRight = bar;
lastChange = "2024-11-01 12:01:51 +0000";
layers = (
{
layerId = "451A0C9A-5D2B-4982-995B-41594B80AF49";
shapes = (
{
closed = 1;
nodes = (
(343,-162,l),
(343,838,l),
(289,838,l),
(289,-162,l)
);
}
);
width = 632;
},
{
layerId = "EAC7C082-8AF0-48CD-AF1D-A26CC3CBE6D4";
shapes = (
{
closed = 1;
nodes = (
(395,-162,l),
(395,838,l),
(237,838,l),
(237,-162,l)
);
}
);
width = 632;
}
);
unicode = 124;
},
{
glyphname = brokenbar;
kernLeft = brokenbar;
kernRight = brokenbar;
lastChange = "2024-11-01 12:01:51 +0000";
layers = (
{
layerId = "451A0C9A-5D2B-4982-995B-41594B80AF49";
shapes = (
{
closed = 1;
nodes = (
(343,-162,l),
(343,233,l),
(289,233,l),
(289,-162,l)
);
},
{
closed = 1;
nodes = (
(343,443,l),
(343,838,l),
(289,838,l),
(289,443,l)
);
}
);
width = 632;
},
{
layerId = "EAC7C082-8AF0-48CD-AF1D-A26CC3CBE6D4";
shapes = (
{
closed = 1;
nodes = (
(385,-162,l),
(385,233,l),
(247,233,l),
(247,-162,l)
);
},
{
closed = 1;
nodes = (
(385,443,l),
(385,838,l),
(247,838,l),
(247,443,l)
);
}
);
width = 632;
}
);
unicode = 166;
},
